<svg width="50" height="50" viewBox="0 0 50 50" fill="none" xmlns="http://www.w3.org/2000/svg">
<path d="M30.1994 0.15277C28.9137 -0.0259292 27.6362 0.0932035 26.3552 0.228534C26.3222 0.23193 26.2995 0.248128 26.2681 0.253876C15.0256 -1.82128 5.25788 9.24133 1.79661 18.2604C-2.64346 29.8296 1.04463 43.638 13.9941 48.4663C27.5483 53.5203 41.7775 45.4349 47.6219 33.7017C54.2578 20.381 46.5475 2.42465 30.1994 0.15277ZM45.7165 32.6522C40.7937 43.4442 27.6659 50.8722 15.4188 46.8329C2.7682 42.6607 0.0988324 29.5819 4.00652 18.8341C5.79081 13.9264 9.06659 9.56294 13.2782 6.2497C17.5341 2.90144 22.6114 1.98888 27.9277 1.95334C43.8216 2.55319 51.5601 19.8405 45.7165 32.6522Z" fill="black"/>
<path d="M33.3758 6.43258C31.1224 5.73947 28.7106 5.54797 26.3557 5.58742C26.1624 5.59055 26.0146 5.65142 25.8874 5.73215C4.03029 4.13666 -2.99319 41.2002 20.1127 45.2437C31.495 47.2352 40.6441 39.6486 43.7039 29.7917C46.475 20.8651 43.6351 9.58803 33.3758 6.43258ZM24.2678 43.621C13.198 44.0424 7.15134 35.2162 7.89251 25.627C8.66223 15.6669 15.9513 8.77996 25.9567 7.14737C26.0698 7.20224 26.1993 7.2396 26.3557 7.24195C50.2873 7.60248 45.6013 42.8085 24.2678 43.621Z" fill="black"/>
<path d="M14.1075 31.9476C13.8965 31.9434 13.8033 31.818 13.6469 31.7101C13.4975 31.6066 13.35 31.5664 13.1656 31.563C12.9887 31.5596 12.9416 31.8366 13.1229 31.8595C13.5033 31.9087 13.6436 32.3086 14.0484 32.3606C14.374 32.4022 14.4275 31.9541 14.1075 31.9476Z" fill="black"/>
<path d="M41.4553 22.2291C41.289 21.8678 40.8182 21.4268 40.5497 21.1493C40.108 20.6921 40.2134 19.8942 40.0382 19.3255C39.9034 18.8882 39.5471 18.5707 39.1692 18.2784C39.8582 17.5926 40.0332 16.6521 39.061 15.5093C38.6415 15.0161 37.3264 14.3196 37.1858 13.7137C37.0502 13.1303 36.9859 12.7089 36.5944 12.2361C35.9408 11.4468 33.9197 11.9236 33.0593 11.8113C32.8541 11.7843 32.6975 11.8862 32.6124 12.0221C32.2791 11.6498 31.8978 11.3486 31.4891 11.231C31.4808 11.1855 31.4639 11.1396 31.4328 11.0949C30.4219 9.64701 29.1711 8.70492 27.4589 8.08131C27.2742 8.01416 26.9939 8.08758 26.8671 8.22865C26.2369 8.93013 26.1823 9.5365 25.9485 10.3043C25.2495 10.2625 24.3262 10.1787 23.8049 10.5311C23.321 10.8582 23.5021 11.5751 23.2428 12.0354C23.2096 12.0947 22.8191 12.1031 22.3763 12.1525C22.3661 12.0561 22.3073 11.9657 22.1875 11.9377C20.447 11.5307 18.1121 11.2213 17.0273 12.9608C16.4625 13.8666 16.549 14.2501 15.4053 14.4609C14.8493 14.5636 14.5216 14.9602 14.2784 15.4061C13.4981 16.8365 10.9289 18.1326 11.2807 19.9925C11.3126 20.161 11.3747 20.3047 11.4429 20.4431C11.207 20.5215 10.9938 20.6239 10.8374 20.7697C10.2942 21.276 10.3801 21.9738 10.6139 22.6029C9.83917 23.0202 9.09273 23.6503 8.85316 24.4712C8.58614 25.3856 10.0696 25.5434 10.5917 25.8514C11.0134 26.1004 11.4582 25.5366 11.1152 25.2121C10.9524 25.0582 10.8257 24.9642 10.6372 24.8383C10.4941 24.758 10.3458 24.688 10.1916 24.6287C10.1503 24.5989 10.1192 24.5793 10.0904 24.5621C10.4672 23.9931 10.9264 23.6117 11.5483 23.2686C11.7516 23.1565 11.858 22.9191 11.792 22.7041C11.6404 22.2095 11.2325 21.5874 11.9268 21.4048C12.076 21.3656 12.2257 21.3338 12.3754 21.3024C13.1965 21.6731 14.3089 21.6755 15.1943 21.5195C15.2763 21.752 15.3731 21.9846 15.4995 22.2202C15.6687 22.535 16.1431 22.558 16.3938 22.3286C16.6522 22.0922 16.9444 21.9297 17.2675 21.7829C17.2711 21.7813 17.2752 21.7805 17.2791 21.7789C16.8654 22.4504 16.4376 23.0952 16.152 23.799C14.4689 23.0531 12.6225 23.406 11.8691 25.4867C11.6675 26.0439 10.8479 26.5022 10.4836 27.0119C10.099 27.5503 9.93067 28.204 9.93067 28.8443C9.93067 29.8578 10.6616 30.5796 11.5594 30.9757C11.4205 31.1604 11.301 31.3605 11.2245 31.5917C10.9572 32.3995 11.3761 33.1992 12.0882 33.6525C12.5468 33.9443 13.0858 34.0342 13.6188 33.9924C13.4338 34.7926 13.0855 35.6524 13.3273 36.4213C13.5708 37.1938 14.5327 37.256 15.3301 37.2035C15.1851 38.9084 15.6662 40.8229 17.5245 41.5113C19.0032 42.0592 20.482 41.4596 21.4974 40.4232C21.5625 40.4663 21.6185 40.5136 21.6948 40.5512C22.5477 40.9742 23.5198 40.6675 24.3694 40.215C24.5582 40.732 25.1228 41.1377 26.2568 41.2927C28.6581 41.6205 29.1799 40.0538 28.7696 38.4878C29.3194 39.2201 30.1853 39.6812 31.4056 39.5537C33.1231 39.3737 33.3458 37.9836 34.2547 36.9671C34.4926 36.7006 34.8453 36.646 35.061 36.3346C35.2609 36.0469 35.1636 35.6394 35.0264 35.2736C36.3626 35.2237 37.2166 34.4057 37.955 33.2081C38.0734 33.0163 37.9264 32.6947 37.6602 32.724C37.2454 32.7695 37.0546 32.8886 36.7835 33.2071C36.0509 34.0679 35.6602 34.5199 34.3631 34.3986C34.0872 34.3725 33.8321 34.691 33.93 34.934C34.2411 35.7052 34.2566 35.7969 33.6452 36.2219C33.0807 36.6144 32.8381 37.4177 32.3717 37.8809C31.5118 38.7355 30.4906 38.6305 29.6543 37.8783C28.8569 37.1609 28.7693 35.9683 28.9218 34.9645C31.5551 34.7866 34.0001 32.794 35.0258 30.3931C35.2665 30.4443 35.5546 30.4283 35.7761 30.4385C36.2788 30.4623 36.4083 29.8949 36.1707 29.6056C36.2783 29.2791 35.8233 28.9444 35.4852 29.2219C35.4559 29.2464 35.4201 29.2634 35.3871 29.284C35.6608 28.0844 35.5665 26.84 34.9573 25.7061C34.9781 25.6434 34.9992 25.5807 34.9967 25.5011C34.9526 24.1399 35.6738 23.4332 34.8625 22.1188C34.83 22.0663 34.7762 22.0324 34.728 21.9934C35.102 21.5373 35.5135 21.201 35.856 20.8491C35.7387 20.997 35.7184 21.1992 35.917 21.3735C35.9563 21.4077 35.9996 21.4294 36.0406 21.4576C36.1152 21.7095 36.0215 22.0783 35.9805 22.2866C35.9153 22.6178 35.8155 22.9444 35.7903 23.2817C35.7728 23.5215 36.0118 23.7044 36.2467 23.7117C37.0314 23.7363 37.8169 23.7305 38.6019 23.7321C38.8525 23.7326 39.0929 23.5265 39.0802 23.2814C39.0613 22.9198 38.6723 22.1311 38.9435 21.8278C39.0505 21.7084 39.1012 21.5373 39.0641 21.3852C39.0829 21.4098 39.0993 21.4354 39.1251 21.4573C40.8742 22.9183 40.7538 24.5433 38.753 25.8723C38.4169 26.0957 38.3249 26.5147 38.6246 26.811C39.4492 27.6251 38.9063 28.406 38.42 29.0808C38.0997 28.9345 37.772 28.7981 37.4395 28.6474C37.2152 28.5457 36.8788 28.5703 36.7596 28.8156C36.4482 29.457 36.3822 30.4054 35.897 30.9414C35.4858 31.3963 36.1818 32.0588 36.5963 31.6003C37.0896 31.0554 37.2102 30.3476 37.4517 29.6864C37.6319 29.7666 37.8066 29.8497 37.9788 29.9356C37.9943 30.3641 38.5245 30.6609 38.8933 30.4965C38.926 30.5216 38.9595 30.5425 38.992 30.5686C38.8783 31.0951 38.6887 31.6369 38.0382 31.6259C37.5005 31.6168 36.9939 31.5549 36.4993 31.8067C36.0725 32.0241 36.3656 32.7028 36.8323 32.5508C37.2404 32.4178 37.7071 32.5921 38.1288 32.5965C38.6662 32.6023 39.1639 32.3781 39.4772 31.9643C39.902 31.4028 40.3196 30.4249 39.7296 29.8899C39.6389 29.8079 39.5396 29.7446 39.4442 29.6736C40.1313 28.4266 40.7746 27.849 39.9181 26.5098C41.3755 25.3663 42.3116 24.0924 41.4553 22.2291ZM32.8347 18.3986C32.9002 17.0416 33.2354 15.7142 33.3896 14.3674C33.9366 14.7269 34.4391 15.1496 34.7008 15.7371C35.0618 16.5489 34.9304 17.5445 34.7976 18.414C34.1745 18.5253 33.602 18.363 32.9509 18.3894C32.9068 18.3912 32.87 18.4017 32.8317 18.4111C32.832 18.4064 32.8342 18.4033 32.8347 18.3986ZM23.529 13.1889C23.7392 13.2087 23.9349 13.0661 24.0425 12.9114C24.3719 12.4375 24.5876 11.9973 24.6331 11.4301C24.6339 11.4188 24.6342 11.4141 24.635 11.404C25.1635 11.3036 25.8559 11.3883 26.3558 11.3851C26.6303 11.3833 26.8023 11.2187 26.9004 10.9946C27.0596 10.6293 27.1941 9.17153 28.0492 9.53598C29.0258 9.95216 29.8343 10.5891 30.5333 11.3363C30.4041 11.404 30.2743 11.4886 30.144 11.607C29.6055 12.0945 29.2911 12.7045 29.132 13.367C29.0615 13.2087 28.896 13.0841 28.7116 13.0851C27.905 13.0898 27.0263 12.9482 26.2338 13.0982C25.9518 13.1515 25.8526 13.4436 25.9316 13.6698C26.0558 14.3676 25.7586 15.077 25.9272 15.7567C26.1543 16.6727 27.4722 16.6664 28.2405 16.6683C28.4052 16.6685 28.6198 16.5784 28.6889 16.4261C29.0161 15.7027 28.9032 14.9463 29.0116 14.2101C28.952 15.2374 29.1763 16.3195 29.4808 17.2409C28.6844 17.5704 27.4627 18.1517 27.5298 18.9859C27.5933 19.7712 28.2333 20.2145 28.9051 20.5855C28.5649 20.6691 28.2236 20.7381 27.8839 20.6691C27.7664 20.6454 27.6674 20.6673 27.5842 20.7096C26.8308 19.9995 25.1339 18.6261 24.0483 19.4877C23.8875 19.6152 23.7749 19.7694 23.6823 19.9337C23.5179 19.8647 23.3482 19.7777 23.1821 19.7432C23.1949 19.64 23.0598 19.5643 22.965 19.6419C22.8946 19.6994 22.8574 19.7803 22.7878 19.8315C22.7701 19.8446 22.7626 19.8655 22.7487 19.882C23.1161 18.491 23.471 17.0591 23.3928 15.7353C23.3748 15.4286 22.9459 15.2972 22.7695 15.5762C22.5932 15.8552 22.4487 16.1591 22.3167 16.4721C22.276 16.4128 22.2163 16.3668 22.1162 16.3733C20.9849 16.4472 19.6058 17.2383 19.453 18.3839C19.3077 19.4723 20.2851 20.352 21.2863 20.7718C21.2558 20.9421 21.2253 21.1133 21.1929 21.2784C19.5525 20.8136 18.3874 19.7372 19.0199 17.9534C19.6382 16.2092 21.7028 15.2436 23.5295 15.2016C23.9374 15.1922 24.063 14.5652 23.6296 14.5053C23.0473 14.4249 22.4773 14.4327 21.9282 14.5045C22.1625 13.738 21.9637 13.0418 23.529 13.1889ZM28.0605 13.9661C28.0195 14.1281 27.9843 14.2911 27.9713 14.4674C27.9405 14.8828 27.9793 15.2899 27.8709 15.6883C27.5883 15.6859 27.2936 15.67 27.051 15.5697C26.9204 15.5156 26.9329 15.4916 26.9251 15.3285C26.9029 14.8719 26.9306 14.4384 26.8902 13.9985C27.2756 14.01 27.671 13.9857 28.0605 13.9661ZM22.1415 16.9023C21.7907 17.8886 21.5969 18.9812 21.4156 20.0343C20.9436 19.6165 20.4878 19.169 20.4329 18.524C20.3608 17.6785 21.5076 17.2814 22.1415 16.9023ZM15.6892 19.1541C15.2993 19.0726 14.8737 19.3255 14.8865 19.7302C14.8967 20.0557 14.9308 20.3606 14.9796 20.6592C14.5449 20.6519 14.0366 20.6474 13.5982 20.5487C13.5669 20.3509 13.4144 20.173 13.1651 20.191C13.0789 20.1973 12.9854 20.2033 12.8876 20.2104C12.7894 20.1215 12.7032 20.021 12.6486 19.8914C12.3042 19.0739 14.0721 17.915 14.5973 17.5286C15.0404 17.2025 15.3063 16.3503 15.5741 15.8751C15.7563 15.5517 16.7661 15.5012 17.1022 15.4239C17.298 15.3787 17.5109 15.2016 17.545 15.0067C17.9063 12.9451 19.466 12.444 21.3274 12.4244C21.232 12.4798 21.1499 12.5433 21.0964 12.6225C20.6525 13.2745 20.6977 14.0779 20.6519 14.8272C19.3601 15.316 18.3028 16.2633 17.7541 17.6258C17.512 18.2264 17.4563 18.7868 17.5348 19.3015C16.9195 19.2769 16.277 19.2769 15.6892 19.1541ZM16.274 21.0973C16.1997 20.8144 16.162 20.5325 16.1531 20.2368C16.6966 20.1756 17.265 20.1782 17.8026 20.1471C17.8844 20.3104 17.9826 20.4661 18.0929 20.6153C17.5045 20.5372 16.8305 20.7773 16.274 21.0973ZM17.3495 23.8452C17.6121 23.0682 18.0372 22.3973 18.2391 21.5997C18.2468 21.5692 18.2438 21.5409 18.2435 21.5122C18.3477 21.4782 18.449 21.4364 18.5443 21.379C18.6028 21.3437 18.6483 21.2954 18.6802 21.2408C19.4241 21.8787 20.4373 22.3122 21.4904 22.4768C21.7807 22.522 22.1429 22.4094 22.2047 22.0945C22.3273 21.4714 22.5 20.8186 22.6761 20.1552C22.6888 20.2433 22.7229 20.3285 22.7873 20.3831C22.9747 20.5416 23.2004 20.6683 23.4447 20.7695C23.3917 21.5449 23.6524 22.4297 23.8548 23.1046C23.0121 23.7859 22.0103 24.814 22.2407 25.9131C22.4512 26.9184 23.3066 27.321 24.2505 27.4989C23.7896 27.8443 23.4688 28.2262 23.2475 28.6265C22.1368 28.6228 21.166 28.5985 20.0325 28.1126C19.6085 27.9305 19.2547 27.7695 19.1372 27.4675C19.151 27.4341 19.1682 27.4043 19.181 27.3693C19.2306 27.2342 19.1948 27.1269 19.1183 27.0529C19.1241 27.0252 19.1244 27.0007 19.133 26.9711C19.2819 26.4492 19.4122 26.0406 19.4513 25.5C19.4738 25.1889 19.1463 24.8855 18.8183 24.9033C18.3921 24.9266 17.9474 24.9273 17.6443 24.7996C17.5497 24.7105 17.4521 24.6272 17.3531 24.5459C17.2616 24.3858 17.2411 24.166 17.3495 23.8452ZM20.9819 32.8429C20.8136 32.8985 20.6422 32.9691 20.4711 33.048C20.0635 32.9186 19.6507 32.7951 19.2622 32.6279C18.3563 32.2381 18.953 31.2442 19.2506 30.6204C19.3651 30.3805 19.321 30.1219 19.0712 29.9748C18.3533 29.5529 17.804 29.1869 18.4481 28.4726C18.4592 28.4603 18.4689 28.4483 18.48 28.436C19.8362 29.1623 21.3637 29.852 22.904 29.7313C22.8363 30.4678 23.044 31.2246 23.4458 31.9266C23.1921 31.9525 22.9093 31.9073 22.6816 31.8906C22.3128 31.8637 22.0017 31.93 21.6451 31.964C21.2811 31.9988 20.9661 32.2274 20.9694 32.6009C20.9697 32.6853 20.9786 32.7614 20.9819 32.8429ZM22.3236 32.9145C22.3553 32.9084 22.3866 32.899 22.4185 32.8946C22.9276 32.8019 23.4769 32.8546 23.9396 32.6527C24.0713 32.8165 24.2133 32.9743 24.3628 33.1266C23.6116 33.1161 23.163 33.9482 22.4928 34.1988C22.4235 33.9942 22.368 33.786 22.3489 33.5686C22.3311 33.3649 22.3217 33.1621 22.3192 32.9578C22.3225 32.9385 22.3217 32.9307 22.3236 32.9145ZM13.4549 32.9348C13.2261 32.9304 12.9893 32.8609 12.7814 32.7444C12.6178 32.6527 12.5351 32.574 12.4226 32.3593C12.4581 32.4267 12.3849 32.1709 12.3893 32.2226C12.3832 32.1537 12.3885 32.085 12.3948 32.0168C12.3821 32.149 12.4265 31.9327 12.4351 31.906C12.4431 31.8812 12.4423 31.8801 12.4448 31.871C12.4497 31.8637 12.4536 31.8587 12.4692 31.8289C12.5091 31.7516 12.5557 31.6761 12.6009 31.6014C12.6968 31.4428 12.8252 31.313 12.9616 31.1842C13.2447 30.9174 13.565 30.6891 13.8958 30.4764C13.921 30.5357 13.9629 30.5872 14.0427 30.6036C14.4059 30.6784 14.7251 30.6499 15.0917 30.6319C15.428 30.6157 15.6737 30.7411 15.8977 30.93C15.5658 31.6771 15.0983 32.3791 14.3139 32.7619C14.0252 32.9027 13.7557 32.9403 13.4549 32.9348ZM20.8031 39.2201C20.144 40.0546 19.3573 40.7547 18.1115 40.4404C16.5468 40.0454 16.3608 37.9397 16.549 36.7408C16.5973 36.4338 16.4037 36.0025 15.992 36.0516C15.3262 36.1313 14.348 36.4001 14.3854 35.5362C14.4107 34.952 14.4944 34.3835 14.5033 33.8014C14.5571 33.7826 14.6122 33.7659 14.6647 33.7447C15.8514 33.2674 16.5646 32.0502 16.9245 30.9456C16.9705 30.8038 16.9264 30.6047 16.8014 30.5067C16.3771 30.1747 15.9454 29.9226 15.382 29.9045C15.0659 29.8943 14.7451 29.973 14.4337 30.0566C14.5188 29.8298 14.3186 29.5388 14.0133 29.6153C13.3883 29.7715 12.7342 30.0062 12.2024 30.3709C11.3908 29.8481 10.8243 29.201 11.0678 28.2004C11.3107 27.2021 12.3627 26.7211 12.7833 25.8485C13.1568 25.0744 13.6648 24.3434 14.6391 24.2878C15.0875 24.2622 15.5059 24.3993 15.9044 24.5932C15.8728 24.7437 15.8486 24.8973 15.8339 25.0556C15.817 25.2398 15.9615 25.4935 16.1459 25.5677C16.8138 25.8376 17.4178 25.959 18.0829 26.0319C17.9482 26.5926 17.7583 27.1177 17.7538 27.7183C17.7538 27.722 17.7569 27.7251 17.7569 27.729C17.4341 28.0734 17.1618 28.4634 17.0523 28.8692C16.8552 29.5989 17.5644 30.1532 18.1797 30.5472C17.7973 31.3161 17.4333 32.2945 18.0455 32.9889C18.4065 33.3986 18.9151 33.5778 19.4533 33.6786C18.8654 34.1533 18.4295 34.7581 18.4334 35.4306C18.4412 36.8526 19.7591 37.4397 21.021 37.7958C20.8702 38.259 20.7665 38.7585 20.8031 39.2201ZM26.9412 40.2066C26.8721 40.1 26.817 39.9846 26.833 39.8884C26.8583 39.7413 26.8677 39.582 26.8663 39.4268C27.0671 39.3818 27.0599 39.0751 26.8258 39.0751C26.82 39.0751 26.8181 39.0806 26.812 39.0806C26.6126 38.6529 25.8958 38.7091 25.8462 39.2588C25.8174 39.5739 25.9086 39.8876 26.0653 40.1714C25.6529 40.0533 25.5506 39.7677 25.6216 39.4093C25.661 39.3541 25.6743 39.2899 25.6687 39.2287C25.9019 38.5247 26.6686 37.6163 27.1577 37.0763C27.768 38.1464 28.7981 39.9882 26.9412 40.2066ZM28.149 37.0849C27.9727 36.8147 27.7727 36.566 27.554 36.3552C27.3316 36.1407 27.0191 36.2904 26.9545 36.5214C25.8811 37.059 24.7185 38.2044 24.3899 39.2468C23.8709 39.3638 23.3451 39.4568 22.8153 39.4712C22.5862 39.4775 22.4279 39.4221 22.3042 39.3377C22.4498 39.0699 22.5699 38.7932 22.6536 38.5121C22.7784 38.0925 22.4193 37.8501 22.0663 37.8833C22.083 37.7871 22.1004 37.6936 22.1157 37.6069C22.1603 37.3579 22.05 37.116 21.7746 37.0415C20.9603 36.821 19.1544 36.2139 19.6573 35.1163C19.9227 34.5366 20.5163 34.169 21.1003 33.8223C21.1985 34.2529 21.3573 34.6672 21.6135 35.0988C21.7039 35.2514 21.9224 35.3925 22.1162 35.3705C22.6836 35.3062 23.1114 35.1017 23.5598 34.7746C23.9532 34.4875 24.5954 34.0987 24.8083 33.676C24.8275 33.6379 24.8275 33.6026 24.8352 33.5658C24.9977 33.7021 25.1644 33.8338 25.3385 33.9537C26.2574 34.5881 27.2254 34.9018 28.1834 34.9643C28.014 35.6464 27.9979 36.392 28.149 37.0849ZM33.4414 25.3049C35.7173 29.7237 30.2544 36.4307 25.6452 32.2109C24.2668 30.949 24.3897 29.8389 25.2392 28.8909C26.0558 30.8414 27.9929 32.2475 30.3306 31.4969C32.9462 30.6572 33.615 27.6125 32.9903 25.3676C32.9562 25.2445 32.8883 25.1653 32.8101 25.1066C32.8395 24.9038 32.6728 24.6815 32.3872 24.7398C31.5695 24.9062 30.7341 25.0669 29.9028 25.2489C29.4791 24.7594 29.5407 23.9683 29.2501 23.4081C28.855 22.6476 27.9463 22.8765 27.229 23.1205C26.8397 23.253 26.4296 23.4515 26.1215 23.7167C25.8074 23.9873 25.8215 24.23 25.9272 24.6031C26.0128 24.9062 26.2275 25.1656 26.4363 25.4015C26.6065 25.5943 26.9087 25.7746 26.9622 26.0309C26.9653 26.0455 26.9742 26.0552 26.9792 26.068C26.3073 26.3149 25.6601 26.6119 25.0493 26.9732C25.0435 26.9711 25.0399 26.9672 25.0341 26.9654C24.2865 26.7478 23.1707 26.3938 23.3374 25.4642C23.4727 24.7087 24.284 24.1125 24.8563 23.643C24.9994 23.5257 25.0449 23.3117 24.9961 23.1451C24.805 22.4953 24.5987 21.7377 24.6184 21.0273C24.9312 21.0446 25.2392 21.0273 25.5162 20.9662C25.7081 20.9241 25.7941 20.7655 25.7871 20.6085C26.3472 20.9173 26.9317 21.3578 27.0635 21.4417C27.2465 21.5584 27.432 21.5193 27.5662 21.4124C27.5953 21.4268 27.6191 21.4448 27.6552 21.4542C28.0447 21.5558 28.4221 21.5814 28.8239 21.5187C29.7849 21.3693 30.3614 21.1574 30.5225 22.3932C30.5608 22.685 30.7424 22.8877 31.0676 22.9068C32.0392 22.9635 33.0197 22.9426 33.9949 22.94C34.2148 23.4899 34.0947 24.0035 33.9458 24.5462C33.5942 24.5271 33.2562 24.9451 33.4414 25.3049ZM31.971 25.57C31.9718 25.5917 31.9652 25.61 31.9688 25.6325C32.2608 27.4383 32.1041 29.6723 30.0351 30.4882C28.1551 31.2301 26.7133 29.706 25.9241 28.267C27.5573 27.0195 30.3184 26.1093 31.971 25.57ZM27.6294 25.8488C27.5462 25.2952 27.0077 24.9289 26.8929 24.3831C27.3751 24.0171 27.9416 23.8026 28.5466 23.683C28.8916 24.1841 28.8913 24.8626 29.1763 25.4128C28.6528 25.5389 28.1376 25.686 27.6294 25.8488ZM33.2848 21.6146C33.2274 21.693 33.1982 21.7708 33.1808 21.8471C32.6101 21.8464 32.0395 21.849 31.4702 21.8704C31.2676 21.2504 30.9989 20.6851 30.2741 20.4667C30.1548 20.4306 30.0345 20.4188 29.9139 20.4162C29.9064 20.4079 29.9033 20.3985 29.8945 20.3904C29.4874 20.0178 29.0635 19.6466 28.7504 19.1964C28.5114 18.8529 30.1909 18.0487 30.3878 17.9359C30.647 17.7872 30.698 17.5087 30.5752 17.2626C29.92 15.9511 29.8274 14.3953 30.3087 13.0237C30.8838 11.3846 31.8845 12.2389 32.5661 13.2145C32.4904 13.2978 32.4327 13.3958 32.4327 13.5162C32.431 15.1532 32.1274 16.7665 32.1246 18.3986C32.1241 18.6274 32.3157 18.7309 32.5003 18.7178C32.456 18.8936 32.522 19.1006 32.7086 19.2338C33.3205 19.6711 34.2893 19.6701 35.0544 19.483C34.8813 20.371 33.798 20.9184 33.2848 21.6146ZM35.696 15.3419C35.2507 14.3833 34.3731 13.7686 33.4545 13.2346C33.3394 13.0261 33.2038 12.8035 33.0524 12.584C34.5059 12.7351 36.4596 12.205 36.1269 14.2501C36.0836 14.5171 36.154 14.7533 36.4094 14.9035C37.1686 15.3497 37.8144 15.8132 38.2863 16.5374C38.6019 17.0215 38.5165 17.3564 38.2375 17.5915C38.0201 17.5474 37.7695 17.6689 37.7215 17.8656C37.1606 18.0615 36.4219 18.1185 35.9672 18.1389C36.0725 17.1965 36.1 16.2103 35.696 15.3419ZM36.7421 22.843C36.7926 22.4744 36.873 22.0888 36.8633 21.7228C36.9338 21.729 37.0036 21.7361 37.0763 21.739C37.2937 21.7476 37.6805 21.6893 37.9747 21.729C37.8937 22.0864 37.9891 22.4478 38.0623 22.8315C37.6222 22.8313 37.1822 22.8355 36.7421 22.843ZM38.9901 21.2434C38.974 21.2238 38.9662 21.201 38.9449 21.1838C38.6049 20.9103 38.2112 20.8494 37.7753 20.8301C37.4761 20.8167 36.8325 20.9361 36.5783 20.7506C36.3637 20.5939 36.1111 20.6357 35.9447 20.7611C36.2647 20.4131 36.5009 20.0267 36.5411 19.459C37.1514 19.3597 37.7686 19.1664 38.298 18.8939C38.7333 19.3945 39.1451 19.7942 38.974 20.9131C38.9565 21.0244 38.9579 21.1386 38.9901 21.2434Z" fill="black"/>
</svg>
