<svg width="40" height="40" viewBox="0 0 40 40" fill="none" xmlns="http://www.w3.org/2000/svg">
<path d="M38.5972 13.8132C36.3368 8.40058 31.3456 5.73487 27.128 5.66944C24.7128 -1.23109 14.642 -2.3831 12.4991 5.29291C10.0561 1.04839 6.40392 -0.527104 2.85312 2.35761C-0.273226 4.8976 3.33796 10.4365 4.0931 13.2812C5.20533 17.4712 2.43522 21.922 1.08121 25.3069C-0.0641689 28.1698 -0.220011 30.8727 0.243292 34.0528C1.06622 39.7011 4.89216 40.6183 8.25227 39.6814C13.8533 38.1195 17.9726 31.6603 23.876 31.9745C28.6306 32.2274 32.5119 36.7209 36.7912 31.6934C40.4369 27.4107 40.8852 19.2921 38.5972 13.8132ZM20.0308 2.09467C23.6627 2.377 25.3924 5.56615 26.1577 10.0733C26.1211 10.0994 26.0833 10.1097 26.0481 10.1478C22.3585 14.1267 16.4293 16.2671 13.4732 9.63134C13.4335 9.54228 13.3786 9.48382 13.319 9.44171C13.8797 4.31781 16.3757 1.81053 20.0308 2.09467ZM31.6328 31.9866C28.2182 31.876 25.1865 29.4717 21.6771 29.7341C18.7799 29.9507 16.2422 32.3474 13.7752 34.2688C10.9956 36.4335 6.57348 39.3079 3.45791 37.0847C0.776703 35.1715 1.40408 29.409 2.41621 26.4268C3.15699 24.2439 4.27196 22.3413 4.92848 20.0945C5.8855 16.8193 5.92076 13.9283 4.874 10.7312C4.36445 9.17514 3.63613 7.82109 3.22224 6.19168C2.13473 1.90989 8.55065 3.59231 9.3759 4.1615C10.4393 4.89518 11.3239 5.91723 12.1813 7.0544C12.0827 7.98103 12.0691 8.99248 12.1823 10.1172C12.2355 10.6461 12.5367 10.7634 12.8093 10.6364C13.6029 19.1815 24.512 17.244 27.1425 11.7176C27.2116 11.5725 27.238 11.4171 27.2471 11.2605C27.3645 11.1511 27.4568 10.9872 27.4933 10.7649C27.6491 9.814 27.6753 8.92493 27.6139 8.08675C31.3344 8.64534 34.8115 10.5571 37.1103 15.06C40.2563 21.2217 37.1844 32.1668 31.6328 31.9866Z" fill="black"/>
</svg>
