<svg width="50" height="50" viewBox="0 0 50 50" fill="none" xmlns="http://www.w3.org/2000/svg">
<path d="M44.5977 23.2674C44.0377 20.8692 42.8658 18.6426 41.5433 16.7047C41.7988 15.4643 41.6628 13.9443 41.5414 12.7455C41.3968 11.3217 41.1038 10.0122 40.4263 8.87526C39.5019 7.32465 38.1694 7.4754 36.918 8.17672C36.9007 7.91794 36.8667 7.64874 36.7977 7.35904C36.0553 4.23559 33.0281 3.73922 30.869 4.0963C30.7568 3.0049 30.5394 1.94511 30.4821 0.841895C30.4672 0.555672 30.339 0.249996 30.1075 0.188513C28.1329 -0.334262 26.1938 0.177745 24.9335 2.38764C24.7569 2.69714 25.0931 3.09139 25.3214 2.90278C26.6754 1.78706 27.9424 1.11943 29.5111 1.42963C29.6173 2.58772 29.8462 3.71559 29.8818 4.8921C29.8962 5.37319 30.2043 5.64899 30.5472 5.56528C32.2826 5.14185 34.5099 5.29052 35.6151 7.41566C35.9394 8.03952 35.969 8.53659 35.8181 8.93258C35.4016 9.26743 35.0161 9.6266 34.6818 9.9611C33.942 10.2821 33.0547 10.3852 32.586 10.3925C31.7461 10.4054 31.7474 12.1575 32.586 12.1213C32.5897 12.121 32.5938 12.1206 32.5975 12.1203C32.5148 12.286 32.4944 12.501 32.6098 12.7337C33.1816 13.8873 34.0019 15.1868 34.1387 16.6116C34.2256 17.5155 32.1178 16.7673 31.8923 16.6912C31.2067 16.4588 30.535 16.0889 29.8378 15.9124C29.8232 15.8971 29.8143 15.877 29.7983 15.8634C28.9113 15.094 27.6678 14.3531 26.6191 14.0836C26.4046 14.0283 26.2597 14.1343 26.068 14.2475C24.9136 14.9297 24.1265 15.9721 22.6993 15.2319C22.4726 15.1142 22.2497 15.316 22.1228 15.5435C20.4471 17.6586 19.0859 17.8461 18.0393 16.1073C17.9174 15.9617 17.7579 15.9548 17.6247 16.0263C17.7113 15.7043 17.4767 15.3445 17.1719 15.5164C16.6378 15.8176 16.1206 16.1351 15.5896 16.4237C15.5554 16.3515 15.5245 16.2775 15.4897 16.2052C15.2211 15.6463 14.5904 16.1361 14.8219 16.7235C14.8303 16.745 14.8373 16.7669 14.8457 16.7884C14.1159 16.9941 11.898 17.1705 12.3633 15.7106C12.82 14.277 13.4154 12.9456 14.1758 11.7611C15.8104 9.21498 17.857 7.89363 20.3849 8.33199C20.6054 8.3702 20.7247 8.19965 20.7603 7.98359C20.7608 7.98185 20.7608 7.97977 20.7613 7.97769C20.7678 7.93635 20.772 7.89536 20.772 7.8516C20.7728 7.82832 20.7796 7.80922 20.7778 7.78421C20.6854 6.54344 20.7359 5.16755 21.3556 4.155C21.9654 3.15843 22.9787 3.03998 23.8707 3.16712C24.3693 3.23798 24.4794 2.12747 23.9889 2.00694C22.7598 1.70543 21.4827 1.85653 20.6122 3.16781C19.9075 4.22934 19.7911 5.6549 19.9025 7.01481C17.2671 6.05332 15.1515 7.96067 13.5859 10.6583C13.1577 9.83258 12.5775 9.1528 12.0518 8.43377C11.8378 8.14094 11.5051 8.17707 11.2874 8.43377C8.30987 11.9497 5.37496 16.3907 3.62577 21.1777C3.41363 21.7584 3.58863 22.4115 4.06601 22.6143C4.67366 22.8728 5.27085 22.9009 5.88948 22.8655C5.83403 23.0235 5.7872 23.1941 5.73698 23.3594C-1.05309 25.0667 -1.34161 35.3259 2.39766 41.5899C6.61249 48.6506 15.5122 49.3085 21.692 49.8636C30.3702 50.6434 41.3442 48.2063 47.4746 39.2626C51.9198 32.7798 50.2078 26.0313 44.5977 23.2674ZM10.216 22.5237C12.9019 24.7701 14.095 29.64 14.4753 33.6666C11.9267 31.8843 9.07839 30.935 6.38047 29.6095C6.41447 26.3307 6.89996 19.7504 10.216 22.5237ZM5.16072 31.282C8.18667 32.9847 11.4535 33.7701 14.6194 34.8907C14.6511 34.9015 14.6796 34.898 14.7091 34.899C15.0079 35.3315 15.6061 35.2832 15.7447 34.7045C18.9425 37.0568 22.8981 38.4536 26.301 39.9218C26.6288 40.0629 27.1012 39.7603 27.1554 39.2778C27.2325 38.5894 27.3175 37.9019 27.4041 37.2152C28.9137 37.6901 30.785 37.3875 32.2666 37.4761C34.4061 37.6039 36.5447 37.7568 38.6868 37.6661C39.0661 37.6501 39.4132 37.2468 39.4007 36.7182C39.3685 35.3503 39.2874 34.0032 39.1825 32.6624C39.2029 32.6617 39.2207 32.6704 39.2424 32.6666C41.1886 32.3043 42.9853 31.497 44.0235 29.8203C47.3835 34.4218 41.6552 37.2131 38.6591 38.6661C34.1759 40.8399 29.4065 42.1227 24.7007 43.0964C20.512 43.9627 16.6637 43.3784 12.5815 41.7559C9.83881 40.6655 7.09719 39.0184 5.03543 36.327C2.8821 33.5169 3.65324 30.1687 4.98206 27.236C4.84761 28.4097 4.78117 29.5171 4.7592 30.3531C4.75057 30.6911 4.91405 31.1427 5.16072 31.282ZM27.684 35.0369C27.7824 34.2769 27.8791 33.5165 27.9689 32.7551C28.0005 32.7364 28.0306 32.7312 28.063 32.7023C30.8821 30.1694 33.653 27.6125 36.7872 25.8392C36.8401 25.8573 36.8932 25.8729 36.9478 25.8722C37.5466 29.111 37.912 32.3828 37.962 35.7198C36.0629 35.6017 34.1644 35.4743 32.2666 35.3305C30.8899 35.2256 29.1494 34.7615 27.684 35.0369ZM42.9228 23.092C42.4904 23.6352 42.4954 24.8096 43.2469 25.1105C43.3147 25.1376 43.3814 25.1674 43.4486 25.1959C43.8865 28.674 41.7133 30.6901 39.0794 31.4859C38.8503 29.0846 38.5102 26.709 38.0125 24.3348C37.9528 24.0514 37.7524 23.803 37.5272 23.7203C37.5646 20.8359 37.6808 17.9705 38.7831 15.4574C40.4253 17.7152 41.9571 20.2207 42.9228 23.092ZM26.9636 15.5887C27.4358 15.7818 27.8974 16.0128 28.3489 16.2816C29.2087 16.7725 28.8111 16.9173 29.1282 16.1486C28.9414 16.6012 29.1852 17.0371 29.536 17.0924C31.1368 17.3449 32.5716 18.7128 34.2436 18.2015C36.4393 17.5301 33.9295 12.9741 33.4338 12.0949C33.4181 12.0678 33.3982 12.055 33.3817 12.0321C34.5981 11.8139 35.9502 11.1953 36.5777 9.98438C37.6564 9.29209 38.855 8.97356 39.5793 10.4134C40.2571 11.7611 40.1537 13.2951 40.1357 14.7988C39.7949 14.3687 39.4551 13.9578 39.1244 13.5702C38.8168 13.21 38.3802 13.2746 38.1535 13.7362C36.578 16.9475 36.3656 20.4923 36.3734 24.2049C35.7043 24.5998 35.0509 25.0299 34.4079 25.4832C33.8915 23.2719 32.112 21.3805 30.7879 19.9907C29.3563 18.4884 27.8755 17.0552 26.3976 15.6331C26.5349 15.5126 26.6908 15.4768 26.9636 15.5887ZM25.8509 16.2941C27.1807 17.9521 28.5836 19.4885 29.8708 21.2082C31.0351 22.7641 32.1144 24.901 33.4497 26.1852C31.62 27.5722 29.8794 29.1593 28.1747 30.8339C28.3215 29.3323 28.4264 27.824 28.4434 26.3026C28.4489 25.8062 28.1423 25.4724 27.7928 25.4387C26.9702 25.3595 26.1506 25.3581 25.334 25.4095C25.6487 25.2758 25.9155 24.8791 25.837 24.3254C25.4886 21.8595 24.882 19.4548 24.1689 17.1295C24.7844 17.0879 25.4111 16.7742 25.8509 16.2941ZM20.5494 19.6986C20.9394 19.2627 21.3593 19.0755 21.6407 18.4995C21.7093 18.3592 21.7061 18.2109 21.6768 18.0712C22.1597 17.5016 22.6219 16.9406 23.0232 16.9177C23.6967 19.5121 24.0797 22.1305 24.5197 24.8079C24.5822 25.189 24.7687 25.3755 24.9801 25.4318C23.4875 25.5551 22.0046 25.8618 20.5314 26.2609C19.9091 26.429 19.0181 26.6368 18.1424 26.9695C18.3367 26.7757 18.4691 26.4641 18.417 26.066C18.3331 25.4241 18.2208 24.7965 18.1018 24.1719C18.1089 24.1524 18.1191 24.1396 18.1248 24.1177C18.4374 22.9152 18.9305 21.8387 19.5782 20.9029C19.8759 20.4725 20.213 20.0745 20.5494 19.6986ZM17.3869 16.3539C17.3634 16.4661 17.3744 16.5925 17.4424 16.7204C17.9553 17.6843 18.5308 18.6447 19.3422 19.047C19.1369 19.3311 18.9527 19.6194 18.8036 19.8737C18.338 20.6681 17.981 21.542 17.7231 22.4716C17.2881 20.7084 16.7301 19.0081 16.0272 17.3842C16.4929 17.1167 16.9488 16.7721 17.3869 16.3539ZM5.32185 21.2079C7.1414 17.1108 9.3473 13.582 11.6963 9.99515C12.1268 10.5784 12.5645 11.1571 13.079 11.594C12.3113 13.1127 11.6994 14.788 11.2537 16.3129C11.182 16.5578 11.3018 16.8305 11.4522 16.9607C12.6754 18.0216 13.9639 18.2039 15.2056 17.7687C16.1693 20.5496 16.711 23.5223 17.1246 26.5391C17.1824 26.9605 17.3971 27.1564 17.6362 27.1804C16.6937 27.6028 15.8347 28.1947 15.4363 29.0745C15.3641 29.234 15.4578 29.4306 15.5922 29.4354C17.0029 29.4837 18.7192 28.2881 20.1204 27.8779C22.4059 27.2082 24.7703 26.8952 27.1083 27.098C26.9516 30.6967 26.3915 34.2182 25.9432 37.7689C22.5921 36.0304 19.1345 33.3741 15.6453 32.4957C15.1525 27.8775 13.3314 22.6102 10.1841 20.5826C8.42654 19.4503 7.22772 20.1644 6.41264 21.6667C6.04904 21.5136 5.68519 21.3607 5.32185 21.2079ZM48.1421 33.2046C47.5499 36.4014 45.4026 39.0677 43.5014 40.9653C37.6183 46.8374 28.7936 48.2348 21.6925 47.8732C16.9336 47.6311 12.0044 46.8732 7.59132 44.3784C1.69506 41.0452 -1.21632 30.5932 4.45995 25.785C0.0779751 31.4901 2.61268 37.9794 7.79142 41.6381C12.7245 45.1239 18.6477 46.5665 24.1663 45.5602C28.0999 44.8432 55.4582 38.0819 44.819 27.6368C44.9087 27.1182 44.9406 26.5402 44.9312 25.9202C47.2036 27.2457 48.8492 29.3864 48.1421 33.2046Z" fill="black"/>
<path d="M9.71499 18.4834C9.42517 18.028 8.94307 17.5681 8.86879 16.9529C8.82144 16.5618 8.36525 16.6695 8.36237 17.0439C8.35609 17.888 8.81333 18.5636 9.26848 19.0763C9.57976 19.4278 9.97841 18.8978 9.71499 18.4834Z" fill="black"/>
<path d="M12.4756 18.294C12.4661 18.2214 12.4557 18.1481 12.4473 18.0762C12.396 17.625 11.8148 17.625 11.7635 18.0762C11.7554 18.1481 11.7447 18.2218 11.7353 18.294C11.6419 18.4045 11.5815 18.5649 11.5896 18.78C11.5977 18.995 11.6061 19.2103 11.6142 19.4253C11.5974 19.8595 11.8512 20.0638 12.1052 20.0489C12.3592 20.0638 12.6126 19.8595 12.5962 19.4253C12.6043 19.2103 12.6126 18.995 12.621 18.78C12.6296 18.5646 12.5689 18.4041 12.4756 18.294Z" fill="black"/>
<path d="M12.5829 28.6168C12.5771 28.4876 12.5716 28.3588 12.5662 28.2295C12.5839 27.8211 12.3451 27.6304 12.106 27.646C11.867 27.6297 11.6281 27.8211 11.6459 28.2295C11.6404 28.3588 11.6347 28.4876 11.6292 28.6168C11.6242 28.7322 11.6441 28.827 11.6755 28.91C11.688 29.198 11.7003 29.4863 11.7129 29.7742C11.7419 30.4474 12.4699 30.4474 12.4992 29.7742L12.5366 28.91C12.568 28.827 12.5881 28.7325 12.5829 28.6168Z" fill="black"/>
<path d="M10.3632 26.1962C10.0221 26.165 9.67996 26.1257 9.33755 26.0917C9.25725 26.0424 9.16412 26.0135 9.05609 26.0163C8.8586 26.0212 8.66111 26.0257 8.46362 26.0302C8.04561 26.0205 7.84106 26.4505 7.84629 26.8805C7.84132 27.3106 8.04561 27.7409 8.46362 27.7305C8.66111 27.7357 8.8586 27.7399 9.05609 27.7448C9.16439 27.7472 9.25725 27.7187 9.33755 27.6694C9.67996 27.635 10.0221 27.5961 10.3632 27.5648C11.0274 27.5047 11.0274 26.2574 10.3632 26.1962Z" fill="black"/>
<path d="M24.0825 33.3441C23.5612 32.8516 22.8335 32.945 22.3239 32.4073C22.0479 32.1155 21.6914 32.5647 21.9321 32.9277C22.1374 33.2379 22.3838 33.4609 22.6585 33.6495C23.0124 33.8923 23.3791 34.2105 23.7597 34.3612C24.2413 34.5512 24.4521 33.6936 24.0825 33.3441Z" fill="black"/>
<path d="M25.0664 28.7662C24.3967 27.8554 23.3522 28.9756 23.0917 29.8569C23.0294 30.0674 23.1056 30.3303 23.2165 30.4835C23.3378 30.6506 23.3193 30.7298 23.3324 30.9323C23.3439 31.1112 23.5223 31.1056 23.5385 30.9323C23.511 30.7583 23.561 30.6638 23.6881 30.6496C23.8097 30.6027 23.9136 30.4985 23.9779 30.3533C24.0368 30.2199 24.098 30.1372 24.1984 30.0611C24.4862 29.844 24.8142 29.9962 25.0666 29.6262C25.2351 29.3775 25.2469 29.0118 25.0664 28.7662Z" fill="black"/>
<path d="M21.9394 22.402C21.7903 22.5521 21.642 22.7143 21.4458 22.6532C21.2572 22.5948 21.1366 22.3583 20.9305 22.3024C20.6318 22.2211 20.3312 22.5531 20.4231 22.9762C20.5379 23.5049 20.9167 23.8102 21.3237 23.8516C21.7582 23.8953 22.1126 23.5987 22.3925 23.1815C22.6596 22.7838 22.2944 22.0446 21.9394 22.402Z" fill="black"/>
<path d="M23.3433 20.6901C23.3556 20.6637 23.3671 20.6386 23.3763 20.6102C23.5165 20.2114 23.4927 19.5611 23.3912 19.2155C23.2413 18.7042 22.7579 18.7042 22.608 19.2155C22.5065 19.5615 22.483 20.2114 22.6229 20.6102C22.6318 20.6386 22.6436 20.6637 22.6559 20.6901C22.6747 20.7307 22.6847 20.7856 22.7082 20.8172C22.7885 20.9249 22.8782 20.9648 22.9661 20.9704C22.9774 20.9725 22.9881 20.9763 22.9996 20.977C23.0111 20.9763 23.0218 20.9725 23.0331 20.9704C23.121 20.9648 23.2107 20.9252 23.291 20.8172C23.3145 20.7856 23.3245 20.7307 23.3433 20.6901Z" fill="black"/>
<path d="M27.3395 22.4179L27.4078 22.9716C27.4706 23.4805 28.1156 23.4805 28.1781 22.9716C28.2012 22.7872 28.2239 22.6024 28.2467 22.4179C28.3712 21.4095 27.2147 21.4095 27.3395 22.4179Z" fill="black"/>
<path d="M31.3033 25.0858C30.9167 24.8555 30.3938 24.7214 29.9716 24.743C29.5746 24.7631 29.5889 25.4961 29.9716 25.5475C30.1186 25.5673 30.2646 25.635 30.4048 25.6993C30.3943 26.0268 30.5395 26.3641 30.8432 26.3314C31.0894 26.305 31.3719 26.2689 31.5105 25.9542C31.6457 25.6475 31.5484 25.2317 31.3033 25.0858Z" fill="black"/>
<path d="M32.1528 30.1484C32.09 30.2259 32.0343 30.3221 31.9812 30.4218C31.6835 30.8994 31.3651 31.5146 31.3542 32.0891C31.3421 32.7223 32.0217 32.6848 32.0761 32.0891C32.09 31.9373 32.3903 31.4944 32.5148 31.303C32.7031 31.0147 32.9017 30.8178 32.8548 30.394C32.8049 29.9535 32.3594 29.8942 32.1528 30.1484Z" fill="black"/>
<path d="M36.3593 33.443C36.019 33.0516 35.5505 32.6174 35.4804 31.9859C35.4315 31.5475 34.9099 31.6656 34.9106 32.0887C34.9122 32.9369 35.3922 33.6018 35.7851 34.2058C36.1283 34.7335 36.7566 33.9005 36.3593 33.443Z" fill="black"/>
<path d="M35.0695 22.1406C34.8882 21.3619 34.0614 20.6991 33.4576 20.7012C33.1328 20.7022 33.0407 21.406 33.3789 21.4744C33.9504 21.5904 34.1506 22.4404 34.681 22.6565C34.9078 22.7489 35.1398 22.4421 35.0695 22.1406Z" fill="black"/>
<path d="M36.5208 11.5079C36.1784 12.145 36.1276 12.8157 36.1988 13.5723C36.2485 14.1013 36.7664 14.0995 36.8174 13.5723C36.8692 13.0366 36.9709 12.6514 37.2903 12.2964C37.8038 11.7243 36.9584 10.694 36.5208 11.5079Z" fill="black"/>
<path d="M40.018 21.3992C39.9113 21.2224 39.7012 21.1831 39.5467 21.2339C39.1731 21.3558 38.9189 22.1269 38.7326 22.5281C38.4216 23.1978 39.1784 23.747 39.5119 23.1329C39.5527 23.0575 39.5948 22.9835 39.6366 22.9088C39.7779 22.8984 39.911 22.8091 39.9869 22.5844C40.1274 22.1676 40.2642 21.8073 40.018 21.3992Z" fill="black"/>
<path d="M42.5642 26.7377C42.4287 26.2157 42.0194 26.068 41.7633 25.6675C41.5203 25.2872 41.3835 24.7387 41.1993 24.3073C40.9882 23.813 40.3199 24.1572 40.4925 24.7029C40.6722 25.2701 40.7957 25.8832 41.0353 26.4133C41.2768 26.9479 41.7769 27.5943 42.2807 27.4008C42.4829 27.323 42.6372 27.0184 42.5642 26.7377Z" fill="black"/>
</svg>
