<svg width="40" height="45" viewBox="0 0 40 45" fill="none" xmlns="http://www.w3.org/2000/svg">
<path d="M39.7456 9.55437C37.6282 -2.9241 23.2475 -0.433235 17.6795 6.77665C13.6434 2.30088 7.63561 -1.66322 3.44458 0.711603C0.39504 2.4395 -0.395696 7.48094 0.169057 11.2895C1.05915 17.2918 5.37681 20.2252 9.76366 21.4511C10.7948 26.8004 11.0053 32.3572 10.9177 37.8493C10.7748 37.9835 10.6676 38.1831 10.656 38.4204C10.2065 47.7896 22.1905 45.577 25.6307 41.4429C25.6641 41.4027 25.6879 41.3601 25.716 41.3186C25.9033 41.6919 26.4844 41.6965 26.5662 41.1724C27.4637 35.4207 27.2258 29.4416 28.3827 23.7709C28.4245 23.8168 28.4662 23.8625 28.517 23.903C36.3137 30.1023 41.1956 18.1004 39.7456 9.55437ZM16.7526 42.3645C16.0336 42.2472 15.3418 42.0023 14.6977 41.6384C14.7473 41.5099 14.7016 41.3295 14.5486 41.3058C12.921 41.0553 13.6576 39.3508 14.2455 38.1507C14.511 38.3355 14.7812 38.5066 15.0567 38.6595C15.116 39.4881 15.2459 40.3017 15.4758 41.1252C15.6126 41.615 16.2168 41.419 16.1005 40.9087C15.9588 40.2869 15.8855 39.6659 15.8357 39.0421C16.1552 39.1813 16.4781 39.3067 16.8063 39.4061C16.6502 40.3609 16.6894 41.3913 16.7526 42.3645ZM17.3139 42.4476C17.4052 41.4969 17.5384 40.5587 17.6564 39.6174C17.8573 39.6566 18.0581 39.6974 18.2606 39.7228C18.2643 40.6314 18.3124 41.5483 18.3463 42.4522C18.0001 42.4761 17.6553 42.4735 17.3139 42.4476ZM19.0176 42.3746C19.0507 41.5143 19.0941 40.6431 19.0994 39.7786C19.6539 39.7939 20.2097 39.7752 20.7625 39.6867C20.7687 39.8331 20.777 39.9824 20.7829 40.1379C20.8042 40.7116 20.8255 41.2853 20.847 41.8593C20.2504 42.1052 19.6353 42.2754 19.0176 42.3746ZM21.4838 41.5608C21.4985 41.1662 21.5134 40.7721 21.5278 40.3775C21.5388 40.0883 21.5673 39.7999 21.5673 39.5175C21.9879 39.4108 22.4053 39.2786 22.8162 39.112C22.834 39.371 22.8463 39.6319 22.9036 39.8848C22.9529 40.1029 23.042 40.2965 23.1469 40.4772C22.6284 40.9061 22.067 41.2638 21.4838 41.5608ZM25.7325 39.7641C25.3797 39.1987 24.6846 38.9302 24.1269 39.5525C24.0153 39.6768 23.8926 39.7869 23.7753 39.904C23.642 39.5437 23.6241 39.093 23.6819 38.7117C24.4278 38.3228 25.1491 37.8423 25.8226 37.2504C25.8036 38.0865 25.7767 38.9245 25.7325 39.7641ZM29.5044 21.7803C29.1576 21.4988 28.8202 21.5406 28.5577 21.7499C28.1974 21.0521 27.151 20.9732 26.905 22.0219C25.8535 26.5026 25.9068 30.9898 25.8517 35.5222C25.7081 35.4778 25.5443 35.4942 25.3689 35.6201C23.1519 37.2143 20.9833 38.0437 18.8313 37.9944C18.7443 37.9487 18.6466 37.9427 18.5572 37.9796C17.6138 37.9248 16.6731 37.6969 15.7328 37.2914C15.7256 37.1483 15.7194 37.0061 15.7111 36.8625C15.6793 36.3184 15.0701 36.3181 15.0387 36.8625C15.0369 36.8945 15.0383 36.9248 15.0367 36.9565C14.26 36.5466 13.4831 36.0162 12.7045 35.3465C12.2854 34.9861 11.8196 35.7831 12.1712 36.2151C12.5852 36.7231 13.0276 37.1707 13.4903 37.5655C13.1012 38.2278 12.762 39.0273 12.7017 39.8329C12.3338 39.3194 12.0111 38.729 11.7494 38.0481C11.7296 37.9962 11.7019 37.9624 11.6769 37.9222C12.2181 32.0275 12.3081 26.3331 11.147 20.5108C10.9679 19.6123 10.0911 19.6803 9.77419 20.2795C5.96779 18.2873 2.00543 15.6384 1.74185 9.85914C1.55698 5.80185 2.72036 2.16121 6.28673 2.27699C11.3354 2.44054 16.7714 7.93135 19.7586 12.6587C20.3343 13.5699 21.5435 12.3783 21.0354 11.4206C20.3942 10.2127 19.4684 8.87344 18.3548 7.54922C23.6228 3.26425 33.6213 -0.179346 37.2678 8.05362C40.1267 14.5091 36.2269 27.2352 29.5044 21.7803Z" fill="black"/>
</svg>
