<svg width="50" height="50" viewBox="0 0 50 50" fill="none" xmlns="http://www.w3.org/2000/svg">
<path d="M46.3582 10.3564C41.9064 3.68386 34.208 1.17758 26.6498 0.665649C26.7188 0.65746 26.7854 0.642668 26.8543 0.634743C27.2112 0.594328 27.221 0.0892679 26.8543 0.0615319C13.4653 -0.952022 2.55901 10.7127 0.361843 23.4681C-2.01363 37.2582 7.59684 48.0068 20.6837 49.7941C34.1041 51.627 46.1501 40.9629 49.3132 28.1977C50.8267 22.0887 49.8375 15.5707 46.3582 10.3564ZM47.5299 27.6966C44.9349 39.8405 33.8213 48.9393 21.6281 48.2831C8.4233 47.5723 -0.249777 36.1144 2.07256 23.1004C4.21012 11.124 13.6866 2.90064 25.0042 0.914216C25.0132 1.02675 25.0643 1.1361 25.1939 1.17044C32.646 3.15291 39.8655 4.66835 44.7538 11.3126C48.1985 15.995 48.7176 22.1383 47.5299 27.6966Z" fill="black"/>
<path d="M28.0253 5.60477C28.4695 5.47348 28.3949 4.72805 27.9105 4.76186C22.6049 5.13088 15.9445 6.05594 11.8044 9.82249C7.2875 13.9314 4.68035 20.853 5.54283 27.0151C7.29943 39.5679 19.771 47.4772 31.5385 42.9726C48.2463 36.5769 47.1348 7.03014 28.0253 5.60477ZM12.556 36.9103C12.5197 36.8593 12.4881 36.8046 12.4578 36.7497C12.4412 36.7198 12.4331 36.7058 12.4282 36.6979C12.4287 36.6966 12.4274 36.691 12.421 36.6723C12.4015 36.6189 12.3883 36.5635 12.3759 36.508C12.373 36.4718 12.3725 36.4356 12.373 36.3994C12.3733 36.3849 12.372 36.3857 12.3712 36.3828C12.3741 36.3735 12.3761 36.3672 12.3821 36.3413C12.3888 36.3109 12.3906 36.2996 12.3917 36.2911C12.3938 36.2879 12.3945 36.2893 12.4 36.2774C12.4067 36.2623 12.4451 36.2045 12.4565 36.1833C12.5 36.1326 12.5477 36.0848 12.5982 36.0418C12.7091 35.9472 13.0969 35.8172 13.3941 35.7905C14.0109 35.7345 14.6249 35.758 15.2383 35.837C15.5343 35.8751 15.7032 35.6241 15.7198 35.3629C15.9935 34.8285 15.901 34.2046 15.887 33.5796C15.8779 33.1831 15.8554 32.7869 15.8297 32.3906C16.1073 32.8429 16.5154 33.1482 17.1304 33.0972C17.5228 33.0648 17.8747 32.8574 18.1225 32.5573C17.9846 33.1173 18.0391 33.8073 18.1038 34.3535C17.8084 34.5744 17.7086 35.0583 18.1264 35.2773C18.8881 35.6767 20.0227 36.1564 20.5029 36.9311C20.5397 36.9908 20.5889 37.1449 20.5876 37.1306C20.5996 37.2574 20.5983 37.1966 20.5666 37.2576C20.512 37.3623 20.3422 37.4692 20.1556 37.5564C19.5513 37.839 18.0367 37.9236 17.6672 37.2909C17.5705 37.1256 17.4189 37.0867 17.2831 37.1229C17.4699 36.7037 16.9008 36.2599 16.4799 36.5925C15.7512 37.1684 14.9133 37.6333 13.9689 37.5973C13.6743 37.5863 13.3516 37.4914 13.1103 37.3654C12.8773 37.2439 12.6529 37.0469 12.556 36.9103ZM15.4119 27.0555C15.613 26.9462 15.7216 26.6696 15.5151 26.4358C11.7611 22.1864 10.4907 10.8617 18.5281 10.9977C28.4739 11.1657 24.9566 23.1553 20.011 27.2758C19.5728 27.6412 19.7899 28.1721 20.1854 28.3908C20.8198 29.127 21.8495 29.7105 21.8956 30.745C21.9848 32.7385 19.9185 30.9769 19.1838 30.5894C19.02 30.503 18.8658 30.5202 18.7385 30.5862C18.7359 30.5218 18.7442 30.4502 18.7313 30.3931C18.6981 30.2494 18.5519 30.1369 18.4076 30.1422C18.3749 30.1432 18.3423 30.1445 18.3094 30.1456C18.1565 30.1509 17.981 30.2285 17.9115 30.3783C17.6835 30.8662 17.6881 31.4204 17.451 31.9001C17.1273 32.5555 16.5258 31.6159 16.3957 31.4088C16.1581 31.0302 16.2594 30.3648 16.2788 29.9467C16.2949 29.6041 15.9409 29.36 15.6322 29.4445C15.0587 29.6009 14.5233 29.6765 13.9876 29.7127C14.2035 29.4414 14.4105 29.1656 14.6015 28.8933C14.9193 28.4416 15.2269 27.9473 15.4254 27.4296C15.4897 27.2584 15.4394 27.158 15.4119 27.0555ZM27.6806 12.9596C26.7127 11.8377 26.3716 10.3328 25.5381 9.12909C26.3693 8.70011 27.2618 8.37018 28.1894 8.29014C28.4431 9.03585 28.7222 9.77204 28.9834 10.5151C29.2732 11.339 29.3963 12.1676 29.5849 13.0013C29.1529 13.1249 28.7199 13.243 28.2904 13.3796C28.0815 13.4461 27.8615 13.5132 27.6381 13.584C27.798 13.4361 27.8659 13.1743 27.6806 12.9596ZM28.653 14.7178C29.82 14.2241 31.0202 13.7835 32.2341 13.4158C32.3388 13.9958 32.4982 14.5577 32.6176 15.1357C30.7087 16.1458 28.5895 17.1062 26.4011 16.7544C26.2394 16.7285 26.1215 16.8278 26.0738 16.9491C26.0456 16.5692 25.995 16.196 25.9227 15.8309C26.8676 15.6185 27.7762 15.0886 28.653 14.7178ZM31.9366 26.7143C30.7268 25.337 29.0933 24.0931 27.8299 23.0325C27.7534 22.9686 27.6731 22.9274 27.5917 22.9028C27.615 22.8526 27.6423 22.8056 27.6648 22.7549C29.2327 24.1271 31.1808 24.8805 33.3606 24.1187C33.5467 24.0537 33.7123 23.8913 33.7929 23.7003C34.9216 23.4617 36.0386 23.3408 37.1732 23.2261C37.3357 23.3904 37.5977 23.4258 37.7389 23.1675C38.1554 23.1255 38.575 23.0824 38.9997 23.0325C39.0207 23.6865 39.029 24.3406 39.0474 24.9952C39.0635 25.5662 37.0521 25.6878 36.6383 25.7694C35.0703 26.0808 33.5016 26.3888 31.9366 26.7143ZM35.0102 27.2259C36.6608 28.1032 37.6176 29.7119 38.8222 31.0873C38.4265 31.7395 37.9556 32.3257 37.4435 32.8846C35.9471 30.9753 34.326 29.154 32.7413 27.3202C33.4192 27.1982 34.0974 27.0788 34.7759 26.9594C34.8187 27.0648 34.8887 27.1612 35.0102 27.2259ZM27.1252 27.9375C27.0716 27.9753 27.0234 28.0239 26.9915 28.0984C26.5906 29.0396 26.2731 30.003 25.9862 30.9766C25.9772 30.9745 25.9678 30.9713 25.9585 30.9695C25.1966 30.7851 24.9146 31.8885 25.6389 32.1516C25.6428 32.1529 25.6465 32.1545 25.6506 32.1561C25.5265 32.6086 25.4057 33.0629 25.2826 33.518C25.0405 34.4119 24.7664 35.2934 24.4673 36.1685C24.4035 36.3548 23.4063 36.1384 22.7141 35.9863C23.2238 32.8563 23.9928 29.7858 25.1043 26.8191C25.1437 26.714 25.1328 26.6255 25.0968 26.5526C25.8198 25.7644 26.4703 24.9228 27.0107 24.0059C28.0805 24.8869 29.5935 25.9313 30.755 27.1047C30.6742 27.3321 30.8572 27.6599 31.172 27.6008C31.1842 27.5981 31.1964 27.5963 31.2083 27.5942C32.4733 29.0504 33.0696 30.6882 31.5862 32.4535C29.5269 30.4525 27.7731 28.1423 26.5292 25.5206C26.4141 25.2781 26.0077 25.4508 26.101 25.7044C26.3877 26.4847 26.7349 27.2257 27.1252 27.9375ZM24.5761 40.9019C23.8899 40.4372 23.1406 40.0566 22.4834 39.5605C23.5822 38.3454 24.9229 37.4462 26.439 36.8184C26.9283 36.6158 26.7505 35.8299 26.2148 35.9894C25.9924 36.0555 25.7698 36.1273 25.5477 36.2029C25.6962 35.7615 25.8525 35.3227 25.9873 34.8768C25.9958 34.9083 26.0033 34.9394 26.0233 34.9703C26.5657 35.7987 27.2582 36.4525 28.0116 37.0355C27.9732 37.0741 27.9317 37.1058 27.8993 37.1589C27.0249 38.585 25.542 39.5407 24.5761 40.9019ZM26.5748 34.5361C26.4359 34.3557 26.213 34.4125 26.08 34.553C26.2796 33.8799 26.4729 33.205 26.6582 32.5272C29.121 33.4663 32.0019 34.9125 30.8649 37.8599C29.3299 36.896 27.7045 36 26.5748 34.5361ZM22.5438 28.911C22.5713 28.8933 22.6005 28.8885 22.6275 28.8663C23.1028 28.4748 23.5602 28.0688 24.0036 27.6523C23.6787 28.5369 23.376 29.4297 23.0958 30.3308C23.0336 29.8273 22.834 29.3489 22.5438 28.911ZM33.4083 22.2559C33.3181 22.2852 33.2248 22.3085 33.1365 22.3407C32.9105 22.0351 32.6902 21.7289 32.4567 21.4257C32.4678 21.4206 32.4779 21.4222 32.4891 21.4164C33.0642 21.1245 33.5962 20.7658 34.1013 20.3664C33.9487 20.6969 33.789 21.0241 33.6234 21.3483C33.577 21.4389 33.3645 21.8715 33.4042 21.8486C33.3912 21.8679 33.3741 21.885 33.3656 21.9054C33.313 22.0314 33.3417 22.1611 33.4083 22.2559ZM37.1926 21.7062C36.156 21.7099 35.0908 21.8158 34.0915 22.0599C34.4074 21.6584 34.622 21.0162 34.8018 20.6493C35.032 20.181 35.2826 19.6733 35.4658 19.1518C35.6778 18.9463 35.8885 18.7382 36.0974 18.5282C36.561 18.5335 37.0249 18.5387 37.4886 18.5443C37.4494 19.6159 37.3336 20.6559 37.1926 21.7062ZM31.7795 20.1789C31.6979 20.2272 31.6409 20.2869 31.5895 20.3482C31.418 20.1443 31.2425 19.9446 31.0642 19.7475C32.5298 17.7389 34.2244 16.0834 36.6061 16.2834C35.0198 17.6195 33.5747 19.1172 31.7795 20.1789ZM31.936 22.8951C31.9011 22.916 31.8611 22.9308 31.8269 22.9525C31.7523 22.999 31.6945 23.0565 31.6502 23.1202C30.307 23.1596 29.1288 22.5153 28.1041 21.5955C28.1764 21.3689 28.2578 21.148 28.3169 20.9124C28.4314 20.4552 27.7514 20.1255 27.5459 20.5812C27.4977 20.6881 27.4412 20.7867 27.3906 20.8915C26.9705 20.439 26.5792 19.9543 26.2161 19.4728C26.1461 19.3798 26.0588 19.3291 25.9676 19.2974C26.066 18.5868 26.1218 17.8802 26.0878 17.1945C26.12 17.246 26.171 17.2885 26.2513 17.3075C26.419 17.3471 26.5854 17.3622 26.7526 17.3881C26.6559 17.6654 26.709 17.9859 27.0392 18.1671C29.0213 19.2546 30.549 21.0807 31.936 22.8951ZM26.8391 21.9405C25.5195 24.2251 23.7077 26.0335 21.6562 27.7307C23.6724 25.7736 25.11 23.1606 25.7377 20.5275C26.0702 21.0215 26.4387 21.4986 26.8391 21.9405ZM33.0123 40.54C26.5201 44.5969 18.7424 43.111 13.3358 38.5599C13.5022 38.6001 13.6688 38.6394 13.8368 38.6561C14.9957 38.7741 16.141 38.2102 16.9957 37.4428C16.9895 37.4859 16.9887 37.5316 16.997 37.5794C17.2657 39.0629 19.7384 38.7979 20.6939 38.371C21.3278 38.0876 21.7254 37.4204 21.4851 36.7248C21.0816 35.5578 19.7285 34.8322 18.7186 34.3179C18.7652 33.9682 18.8176 33.6192 18.893 33.2745C18.9803 32.8754 19.232 32.5954 19.3641 32.2195C19.4077 32.0958 19.3893 31.9875 19.3393 31.8977C19.7931 32.2335 20.2334 32.5777 20.796 32.7375C21.1847 32.8479 21.5924 32.7895 21.9812 32.7227C22.2126 32.683 22.3595 32.5819 22.4803 32.4567C22.1431 33.7154 21.8371 34.9822 21.5906 36.2599C21.5198 36.6279 21.7435 36.9103 22.1027 36.9454C22.5238 36.9858 22.9266 37.0873 23.3283 37.1913C22.4266 37.7228 21.6264 38.407 21.0386 39.3135C20.8979 39.5307 20.9297 39.9113 21.1358 40.0801C22.1239 40.8919 23.3638 41.3684 24.3118 42.2242C24.6046 42.4887 25.0597 42.4588 25.2686 42.0985C26.2249 40.4523 28.0981 39.5167 28.9777 37.801C28.9876 37.7822 28.9863 37.7643 28.9938 37.7453C29.6044 38.1581 30.2321 38.552 30.8421 38.9675C31.0487 39.1083 31.3659 39.0153 31.4817 38.7969C31.7256 38.3357 31.914 37.8536 32.0299 37.3659C32.0962 37.3839 32.1677 37.3913 32.2501 37.3715C34.2019 36.9018 36.51 36.3883 38.1779 35.2015C38.5931 34.9062 38.3518 34.157 37.8167 34.3287C36.8168 34.6494 35.8888 35.202 34.9076 35.5871C34.0096 35.9398 33.0828 36.2129 32.1553 36.4721C32.1727 35.9926 32.1073 35.5171 31.9381 35.0602C33.13 34.5429 34.3763 34.1673 35.5578 33.6218C36.1458 33.3503 35.6325 32.4168 35.0455 32.7282C33.9153 33.3281 32.7153 33.7753 31.5846 34.3744C31.5056 34.2529 31.432 34.1298 31.3348 34.0128C30.246 32.7039 28.6315 31.8143 27.0016 31.2743C27.2201 30.4798 27.443 29.6865 27.6863 28.9004C28.7152 30.5495 29.9659 32.052 31.2542 33.5339C31.4395 33.7473 31.7671 33.7119 31.9575 33.5339C33.3041 32.2744 33.7318 31.0501 33.5908 29.8812C34.714 31.2479 35.9028 32.5666 36.949 33.9903C37.1545 34.2703 37.5267 34.3712 37.7944 34.1013C38.6395 33.2502 39.4235 32.3698 40.0133 31.3132C40.1426 31.0818 40.1004 30.8073 39.9249 30.6155C38.8085 29.3944 37.8682 27.6195 36.453 26.6598C37.5173 26.4707 38.5817 26.2805 39.6437 26.0777C39.843 26.0396 39.9599 25.8304 39.9698 25.6413C40.0263 24.5648 40.0117 23.4882 40.0721 22.4123C40.0908 22.0808 39.8073 21.8919 39.5258 21.8552C39.1075 21.8002 38.6636 21.7617 38.2095 21.7363C38.4431 20.5529 38.3907 19.2858 38.3762 18.1074C38.3731 17.8683 38.1808 17.662 37.9421 17.6649C37.6104 17.6686 37.2789 17.6726 36.9472 17.6765C37.4043 17.2217 37.8664 16.7776 38.3495 16.37C38.6965 16.0771 38.4796 15.5036 38.0953 15.3887C34.6321 14.3543 32.2654 16.3315 30.4435 19.094C29.835 18.4838 29.1882 17.919 28.4783 17.4414C30.1973 17.2882 31.8692 16.5956 33.4469 15.8634C33.5934 15.7952 33.7141 15.5794 33.6986 15.4165C33.6094 14.4975 33.2541 13.6527 33.1798 12.7258C33.152 12.3805 32.8714 12.132 32.5251 12.2176C31.8202 12.3922 31.1184 12.5699 30.4194 12.7588C30.4127 11.0952 29.3128 9.25536 28.7953 7.78244C28.7411 7.62844 28.6113 7.49821 28.4389 7.50587C27.1213 7.56531 25.8242 7.95071 24.6059 8.45154C24.241 8.60158 24.1006 9.01339 24.3781 9.33064C25.4889 10.6004 25.9217 12.3351 27.0848 13.5676C27.1605 13.648 27.2432 13.6796 27.3256 13.6899C26.7033 13.8965 26.0699 14.1403 25.5444 14.5027C24.5912 12.0147 22.3733 10.13 18.5283 9.7163C9.53598 8.74871 9.98796 22.1447 14.6713 26.7211C14.3121 26.8487 14.0464 27.2898 13.8127 27.5632C13.1718 28.3113 12.5472 29.3138 11.6899 29.8183C11.0539 30.1924 11.3079 31.2902 12.0719 31.2561C13.0214 31.2136 13.9114 31.0567 14.7959 30.8036C14.7659 30.8659 14.7454 30.9386 14.7397 31.0229C14.6853 31.8742 14.6104 32.7269 14.5909 33.5801C14.5826 33.9634 14.5445 34.3456 14.5785 34.7083C13.6204 34.5913 12.6244 34.6441 11.8415 35.2699C11.426 35.6025 11.2788 36.1078 11.332 36.6036C9.43025 34.4597 7.98853 31.8745 7.25563 29.001C5.58559 22.4522 8.2153 14.4504 13.4511 10.3423C17.423 7.22561 22.734 7.00742 27.4259 5.76828C27.1138 6.11802 27.2921 6.86927 27.911 6.94561C44.5688 8.99834 46.1152 32.3526 33.0123 40.54Z" fill="black"/>
</svg>
