<svg width="40" height="40" viewBox="0 0 40 40" fill="none" xmlns="http://www.w3.org/2000/svg">
<path d="M33.3851 24.8298C29.6079 21.2937 24.8292 17.3086 19.8991 15.2672C24.9854 9.70004 14.8645 1.98605 10.1676 0.0357662C9.85146 -0.095424 9.56555 0.155172 9.48589 0.448015C8.89447 -0.222834 7.56144 0.226326 7.91345 1.22404C8.84797 3.8743 10.4551 6.15968 12.0525 8.45129C9.80897 7.10336 7.54364 5.80636 5.15349 4.69813C4.19895 4.25565 3.365 5.32207 4.04542 6.13345C5.65502 8.05305 7.08884 10.0981 8.52734 12.142C6.33411 10.9506 4.19962 9.66535 2.08026 8.3241C1.59853 8.01925 1.00378 8.76437 1.46325 9.12325C4.40521 11.42 7.54231 13.445 10.8203 15.2294C11.5256 15.6132 12.4846 14.8069 11.9817 14.0687C10.6062 12.049 9.24847 10.0211 7.81221 8.04905C10.0962 9.25666 12.3204 10.5761 14.4985 11.9701C15.2568 12.4555 16.0945 11.5167 15.6867 10.7827C13.8554 7.48671 11.324 4.63788 9.84724 1.15022C13.331 3.99304 22.7131 9.75874 18.0205 14.712C17.7695 14.9768 17.7257 15.2725 17.8062 15.5269C17.7488 15.9287 17.9182 16.3865 18.3881 16.584C22.3905 18.2657 26.105 21.0914 29.4671 23.7785C32.5002 26.2029 38.9856 31.111 38.0573 35.6662C37.5008 38.3974 34.1337 38.3133 32.1807 37.4699C29.5182 36.3203 27.3412 34.0605 25.399 31.9761C21.7225 28.0311 18.516 23.3927 15.7501 18.766C15.6916 18.6681 15.6061 18.6114 15.5135 18.5798C15.2801 18.3506 14.8803 18.2401 14.5701 18.3737C12.9303 19.0804 11.8031 19.8377 9.93958 19.3708C8.4479 18.997 7.20899 17.7851 6.17368 16.7263C4.07546 14.5805 2.42981 11.9645 1.09678 9.28913C0.804413 8.70233 -0.193522 9.11702 0.0332109 9.73718C1.36335 13.376 3.35743 17.2241 6.50388 19.6167C9.08004 21.5752 12.8166 22.375 15.1767 19.827C18.0884 26.6578 31.6828 47.1704 39.1247 37.4152C42.2971 33.2565 36.0234 27.2998 33.3851 24.8298Z" fill="black"/>
</svg>
