<svg width="30" height="50" viewBox="0 0 30 50" fill="none" xmlns="http://www.w3.org/2000/svg">
<path d="M29.2641 20.5028C30.5552 15.5323 30.2146 10.3886 27.7068 6.08381C27.6677 6.01731 27.6135 5.96115 27.5538 5.91347C27.5433 5.74817 27.4431 5.58313 27.2815 5.56193C26.884 5.51001 26.5444 5.59823 26.1678 5.74975C25.5926 5.98155 25.0045 6.02923 24.4176 6.20063C24.3625 6.21652 24.3243 6.25785 24.2804 6.29043C23.9846 5.01967 23.4544 3.85407 22.5837 3.01722C21.8137 2.27706 20.8691 2.01904 19.9135 1.9846C19.3335 1.96368 19.0148 2.75999 18.7481 3.45299C18.6192 3.42597 18.492 3.38438 18.3623 3.36584C18.1963 3.34226 18.0096 3.49935 17.932 3.67234C17.7839 4.00295 17.6614 4.3415 17.5398 4.68005C17.3473 4.07659 17.1459 3.47763 16.9313 2.88715C17.0932 2.77801 17.1835 2.47151 17.0258 2.27309C16.56 1.68685 16.0542 1.272 15.4934 0.830661C14.6692 0.182164 14.8591 -0.203544 13.9463 0.112228C12.3423 0.667212 10.8978 1.79996 9.30696 2.40872C8.97497 2.53588 8.85378 2.96821 9.00121 3.34173C9.37161 4.28004 9.68142 5.2512 10.0315 6.20037C9.83354 6.28275 9.63298 6.38315 9.42858 6.51349C8.51261 7.09735 7.87338 8.01314 7.48484 9.07781C6.94994 8.19804 6.07984 7.52385 5.39111 6.95112C4.7875 6.44938 2.90948 4.73833 2.16036 5.26736C0.0836964 6.73389 -0.501133 9.08019 0.428918 11.6835C0.342506 11.8257 0.258014 11.9701 0.18099 12.12C-0.139482 12.7436 0.203607 13.4239 0.686874 13.6636C2.73666 14.6814 4.32088 16.4775 5.36038 18.8357C5.26181 18.9941 5.20036 19.1867 5.20527 19.391C5.43058 28.5931 5.39196 42.9265 13.0109 47.0615C13.0703 47.1855 13.1185 47.3169 13.1816 47.4377C15.3249 51.543 21.0309 49.5071 24.179 49.4113C24.9301 49.3885 25.1998 48.469 24.99 47.8086C25.1515 47.8199 25.3056 47.7206 25.3474 47.4504C25.4709 46.6557 26.0669 45.3698 26.2132 44.2437C26.5542 41.616 26.9581 39.0003 27.3541 36.3852C27.7915 33.4966 28.2152 30.6046 28.6387 27.7128C28.8939 25.9689 29.4969 23.7946 29.1419 22.0414C29.1376 22.0199 29.128 22.0051 29.1227 21.985C29.202 21.5023 28.9833 20.9473 28.445 20.8941C27.6195 20.8125 26.7725 20.8387 25.9337 20.8827C26.338 19.1425 26.7426 17.4521 27.381 15.7978C27.9959 14.2041 28.541 13.8459 27.6921 12.3351C27.2662 11.577 26.6331 10.9467 25.9224 10.538C26.341 9.58246 26.8392 8.69051 27.2722 7.74982C28.815 11.7544 29.2231 15.7392 28.4011 20.2064C28.2724 20.9073 29.0872 21.1844 29.2641 20.5028ZM20.2275 3.10888C21.0161 3.14014 21.7505 3.5632 22.3298 4.20825C23.444 5.44882 23.7049 7.53047 23.7779 9.28126C23.7824 9.38696 23.8116 9.46881 23.8498 9.53981C23.7709 9.73346 23.6911 9.9271 23.6219 10.1226C23.5611 10.1366 23.4995 10.1446 23.4393 10.1634C23.2537 10.2214 23.0924 10.4209 23.0459 10.6516C23.0403 10.7128 23.0232 10.7679 23.0045 10.8217C22.8602 10.716 22.7188 10.6063 22.5705 10.5065C22.4866 10.45 22.3904 10.4235 22.2927 10.4122C22.5754 8.80018 22.4041 7.12675 22.3635 5.42922C22.3586 5.22073 22.2726 4.97516 22.1103 4.88165C21.2969 4.41249 20.4458 3.97116 19.5708 3.67366C19.7419 3.3518 19.9448 3.09749 20.2275 3.10888ZM23.0621 23.1386C22.9716 23.4798 22.8801 23.821 22.802 24.1668C21.8587 24.1037 20.9195 24.0073 19.9815 23.8989C19.9952 23.2054 19.9521 22.523 19.8695 21.8501C20.0647 18.3345 21.0535 15.4446 22.4851 12.3161C23.0806 12.759 23.6386 13.2589 24.1688 13.8221C23.1602 16.5061 22.6155 20.2919 23.0621 23.1386ZM17.9896 6.69468C18.0453 6.59932 18.0679 6.48329 18.0508 6.35189C18.178 5.69306 18.3416 5.13464 18.5514 4.86363C18.6994 4.98046 18.8944 5.00165 19.0261 4.80933C19.041 4.78734 19.0551 4.75741 19.0696 4.73277C19.7528 4.9137 21.3419 5.45518 21.3505 6.08831C21.3754 7.99194 21.5088 9.68392 21.0334 11.5412C21.0059 11.6485 21.0146 11.7449 21.0364 11.8347C19.9028 13.8777 19.3118 16.1742 19.1153 18.5743C18.8091 17.6656 18.4302 16.7875 18.0081 15.9384C18.1816 15.8923 18.3435 15.6854 18.29 15.433C17.9335 13.7534 17.6973 12.0694 17.6648 10.33C17.6586 10.0098 17.7408 8.1848 17.9896 6.69468ZM19.0178 23.7834C18.2968 23.6947 17.5759 23.603 16.8538 23.514C16.7999 20.5651 15.4177 17.4812 13.8241 15.3975C13.7599 15.3135 13.6886 15.2565 13.615 15.215C13.8066 14.4004 14.0628 13.608 14.3662 12.8445C16.4472 16.2084 18.4647 19.4699 19.0178 23.7834ZM13.6107 21.5905C13.5382 21.5871 13.4964 21.5966 13.4786 21.6165C13.4223 21.4846 13.3393 21.3717 13.2352 21.2991C13.2324 21.1259 13.1812 20.9592 13.0991 20.8135C13.1562 19.6991 13.1646 18.596 13.2599 17.4828C13.7057 18.2929 14.1578 19.0983 14.5849 19.9266C15.148 21.0188 15.4847 22.1998 15.8504 23.3922C14.9963 23.2971 13.7799 23.536 13.5917 22.1381C13.6387 22.1352 13.7048 22.1044 13.8076 22.0085C14.0063 21.8231 13.8409 21.4522 13.6107 21.5905ZM17.3704 14.7312C16.6701 13.4968 15.8841 12.3391 15.0816 11.275C15.1896 11.0601 15.2944 10.8424 15.4083 10.6339C15.6082 10.268 15.4501 9.80286 15.1853 9.57848C14.9284 9.36099 14.6634 9.16788 14.3948 9.00045C14.1631 8.3954 13.8768 7.85446 13.545 7.40173C13.4904 6.50051 13.1341 5.23848 12.9437 4.51369C13.9515 4.08242 15.062 3.7987 16.1075 3.6983C16.4275 4.57197 16.6959 5.47849 17.0444 6.33414C16.4164 9.08125 16.5765 11.9921 17.3704 14.7312ZM10.1259 3.43074C11.0004 3.08716 11.8325 2.63072 12.6745 2.16209C13.1018 1.9242 14.132 1.10987 14.6204 1.56049C15.0117 1.92182 15.4789 2.13216 15.9315 2.38064C14.5534 2.38568 13.0532 2.52873 11.8212 3.26968C11.6345 3.382 11.4628 3.72241 11.4907 3.98493C11.5716 4.74098 11.836 5.47266 12.0828 6.16672C11.7329 6.01811 11.3589 5.95373 10.9669 5.97678C10.668 5.13755 10.4058 4.27978 10.1259 3.43074ZM9.6061 8.16043C10.7615 6.85284 11.9746 7.2608 12.8132 8.37898C11.5938 8.20016 10.4734 8.8129 9.86768 10.7324C8.9882 13.5195 9.20476 17.1652 9.90929 19.9799C10.0347 20.4808 10.5929 20.2662 10.5287 19.7679C10.2413 17.5361 10.2325 15.1834 10.5935 12.9669C10.7578 11.9579 11.0433 10.8953 11.6441 10.1605C12.2849 9.37689 13.2695 9.91598 14.0082 10.4704C12.5413 13.3291 11.4568 16.9904 11.8114 20.4191C11.1895 20.4623 10.5385 20.6337 9.97522 20.9282C9.71065 18.7655 9.09061 16.6979 8.21326 14.807C8.2649 14.7063 8.28943 14.5842 8.26298 14.4507C7.80851 12.159 8.16824 9.78776 9.6061 8.16043ZM3.32618 7.17152C4.16832 7.6624 4.96865 8.27831 5.70326 8.98535C6.21277 9.4757 6.59469 10.1229 7.12639 10.5526C7.02504 11.2485 7.00072 11.9669 7.07113 12.6763C6.23923 11.3213 5.27269 10.0935 4.21057 9.03754C3.90973 8.73846 3.56472 8.6362 3.20968 8.87727C2.51668 9.34775 1.82986 9.91677 1.23415 10.5947C1.15222 8.79409 1.58855 6.15877 3.32618 7.17152ZM6.03077 18.4688C5.26864 15.9604 3.83292 14.0268 2.11662 12.4326C2.53247 11.8768 3.03643 11.4164 3.55576 11.0146C5.87694 13.3897 7.30818 16.4269 8.38203 19.8217C7.70738 19.2855 6.98408 18.8461 6.15196 18.4972C6.11206 18.4802 6.07152 18.4752 6.03077 18.4688ZM6.75983 20.719C7.69586 21.1934 8.39078 21.795 9.28605 22.7079C9.53569 27.2108 10.0424 31.66 10.6595 36.1112C11.0085 38.6297 11.2686 41.4097 11.9162 43.9581C7.39437 38.1685 7.10932 28.8334 6.75983 20.719ZM27.4518 22.7535C26.9476 24.3434 26.8749 26.4124 26.6374 27.9719C26.1938 30.8859 25.7436 33.7975 25.3233 36.7168C24.9601 39.2388 24.6055 41.7623 24.2955 44.2948C24.1402 45.5611 24.4302 46.2411 24.5373 47.2324C24.4329 47.1802 24.3149 47.1479 24.1792 47.1481C20.8892 47.1508 15.6526 49.4316 14.0946 44.6066C11.8844 37.7613 11.7835 29.5812 10.5402 22.3439C11.0939 22.2289 11.6437 22.2623 12.2087 22.23C12.239 22.2674 12.2697 22.3029 12.3051 22.3264C12.3295 23.905 13.2083 25.0537 14.4251 25.1239C17.4321 25.2971 20.3846 26.1581 23.4037 26.1279C23.8575 26.1231 24.1317 25.6921 24.1752 25.1697C24.2499 24.2809 24.5085 23.4446 24.7069 22.5884C24.7816 22.625 24.8603 22.656 24.9548 22.6613C25.7767 22.7066 26.6188 22.7641 27.4518 22.7535ZM26.9589 13.4851C27.1202 13.7638 25.8209 16.5533 25.6487 17.0921C25.2554 18.3245 25.0178 19.635 24.9064 20.9521C24.904 20.9526 24.9021 20.9537 24.9 20.9539C24.8044 20.5664 24.4824 20.4027 24.1639 20.4474C24.4312 18.2317 24.651 15.9766 25.5087 14.0168C25.6436 13.7092 25.6229 13.3002 25.4084 13.0514C24.9915 12.5682 24.5505 12.1346 24.0954 11.7248C24.1285 11.6445 24.1598 11.5627 24.191 11.4805C25.3077 11.4389 26.3457 12.4247 26.9589 13.4851ZM25.0613 10.1759C24.9328 10.1396 24.8033 10.1117 24.674 10.0908C24.7615 9.83068 24.8511 9.57213 24.9499 9.32126C25.1814 8.73131 25.2808 8.12122 25.2407 7.50451C25.7404 7.34027 26.1746 6.95085 26.6402 6.62925C26.152 7.84254 25.5044 8.93396 25.0613 10.1759Z" fill="black"/>
</svg>
