<svg width="50" height="30" viewBox="0 0 50 30" fill="none" xmlns="http://www.w3.org/2000/svg">
<path d="M49.9078 14.9112C48.9378 13.1869 48.0668 11.4358 46.7573 9.89246C46.7904 9.81976 46.8094 9.7361 46.8081 9.64031C46.7604 6.43552 42.5282 3.88157 39.6689 2.59568C35.367 0.660779 30.3421 0.0490367 25.5687 0.00171584C17.7765 -0.075552 4.53413 2.44114 3.04478 10.7349C3.0028 10.9685 3.20312 11.1722 3.4247 11.2248C1.56736 12.8001 0.163269 14.7075 0.950573 17.0583C1.07626 17.4338 1.26518 17.7786 1.49453 18.1014C0.750767 19.2899 0.338715 20.4875 0.133985 21.826C0.0349887 21.877 -0.0290219 21.9744 0.0132199 22.1097C0.470623 23.5734 1.38543 24.4481 2.49149 24.6911C1.64303 25.7349 5.4536 27.7619 6.16705 27.9887C11.5647 29.7039 17.7706 29.8833 23.4408 29.9867C26.4797 30.042 49.0702 30.2025 47.2364 23.8949C48.5034 22.9132 49.0238 21.1953 48.5387 19.7731C48.8556 18.8761 48.7623 17.8634 48.1528 16.7556C48.2337 16.708 48.2979 16.6374 48.3298 16.5503C48.761 16.2949 49.1962 16.0435 49.6434 15.8019C50.0034 15.6069 50.0894 15.234 49.9078 14.9112ZM35.953 6.21469C35.3281 4.69951 34.3105 3.34069 32.9362 2.26603C34.2584 2.52344 35.5611 2.85263 36.8362 3.25588C36.7027 3.71789 36.7255 4.20001 36.5982 4.67711C36.4568 5.2093 36.2305 5.72274 35.953 6.21469ZM24.7498 1.57679C25.3184 2.66014 26.2296 3.4662 26.6605 4.65493C27.071 5.78652 26.9259 6.90736 26.3317 7.88875C25.1137 5.4747 23.1197 3.48974 20.755 1.84106C22.0847 1.69749 23.4224 1.6088 24.7498 1.57679ZM10.6068 4.6179C11.9739 7.18968 14.0253 9.46383 15.5924 11.9396C15.8326 12.3191 16.5176 12.3321 16.7539 11.9396C18.3757 9.2462 17.7543 5.0143 14.5898 3.29383C14.2627 3.11598 13.7856 3.41087 13.9198 3.74806C14.3741 4.88879 15.3296 5.81212 15.8614 6.94599C16.3916 8.07644 16.4085 9.24094 16.0306 10.3561C14.5102 8.29795 12.8319 6.33494 11.356 4.25008C13.9115 3.065 16.7993 2.34924 19.7658 1.95627C19.7236 2.082 19.7484 2.22397 19.9031 2.35084C22.3384 4.34746 24.4945 6.54594 25.4415 9.41216C25.5918 9.86686 26.2806 10.0584 26.6668 9.69746C28.0024 8.44815 28.6703 6.84152 28.343 5.11785C28.1289 3.99198 27.595 2.55293 26.66 1.58182C28.1071 1.61817 29.5506 1.74001 30.9798 1.93936C30.9353 2.11104 30.9661 2.29643 31.134 2.44274C33.0572 4.11977 34.3817 5.85121 34.87 8.23486C35.0109 8.92295 36.012 8.86695 36.3863 8.40974C36.9507 7.71936 38.6041 5.36703 38.538 3.87288C39.8848 4.43845 41.1539 5.15717 42.2856 6.00438C43.6534 7.02806 44.2466 8.3151 45.1682 9.54933C32.3505 10.709 20.3004 15.5476 7.89274 11.8264C7.81085 11.7389 7.69008 11.6742 7.55947 11.6614C7.50064 11.6557 7.44285 11.6662 7.38403 11.6648C6.32798 11.3283 5.26986 10.9365 4.2076 10.466C5.73478 7.86132 7.9723 5.97306 10.6068 4.6179ZM31.7746 15.1206C32.4264 14.7391 33.7307 18.6987 34.2708 19.713C34.2547 19.7144 34.241 19.7174 34.2247 19.7185C33.6431 19.7667 33.0577 19.7882 32.4715 19.7983C32.7973 18.7298 32.026 17.3424 31.4777 16.4616C30.9555 15.6224 30.2583 14.9048 29.4293 14.3269C30.765 14.1177 32.0981 13.8848 33.4216 13.6372C34.6854 15.0059 37.7043 18.5618 35.2426 19.5066C35.2665 17.9205 32.8913 13.2881 31.3274 14.6097C31.028 14.8627 31.4219 15.327 31.7746 15.1206ZM10.025 14.4565C7.92384 15.5248 6.83721 17.8181 6.79419 19.9311C6.2067 19.737 5.63138 19.5167 5.08586 19.2558C5.44686 18.0698 6.09578 17.0278 7.04816 16.1304C7.7953 15.4263 9.07422 14.9912 9.60962 14.1623C9.66223 14.0807 9.64901 13.9824 9.59563 13.9074C13.8304 15.1961 18.3837 15.4153 23.0106 15.0843C25.7139 15.7209 27.8153 17.0573 28.7229 19.3596C22.3177 17.9841 15.0692 19.0834 8.23715 20.2466C8.20891 18.1187 9.60729 16.9389 10.7134 15.0637C10.9419 14.676 10.4767 14.227 10.025 14.4565ZM4.70724 14.4049C5.24706 13.6086 6.07194 13.29 6.87116 12.8974C7.66624 13.2429 8.47402 13.5485 9.29527 13.8093C8.11121 13.9083 6.95202 15.0712 6.23417 15.8188C5.33543 16.7554 4.84356 17.8332 4.64116 19.027C4.2685 18.8251 3.91657 18.5977 3.58719 18.3439C3.74009 18.3051 3.86837 18.2015 3.85334 18.0392C3.73387 16.7389 3.94041 15.5355 4.70724 14.4049ZM25.7898 14.8253C26.6183 14.7308 27.4473 14.6181 28.2758 14.4984C29.1938 15.1798 29.9448 16.0131 30.5279 16.9517C31.0713 17.8261 31.1091 18.9273 31.5536 19.8077C31.2499 19.809 30.9464 19.8093 30.6437 19.8106C30.1824 19.8132 29.9715 18.4383 29.8095 18.1523C28.8908 16.5318 27.4764 15.4804 25.7898 14.8253ZM34.878 13.3599C34.9933 13.3375 35.1063 13.3142 35.2214 13.2918C38.4691 14.2531 41.3019 15.9102 42.4675 18.7945C40.9175 17.7121 39.1921 16.8642 37.1738 16.3777C37.1246 16.3658 37.0829 16.3702 37.0385 16.3686C36.5954 15.271 35.8472 14.2581 34.878 13.3599ZM37.1917 12.9009C37.9686 12.745 38.7394 12.5893 39.5046 12.4352C39.4969 12.5123 39.5306 12.5893 39.6246 12.6288C40.7636 13.1087 41.7256 13.7613 42.559 14.5973C43.3981 15.4393 43.6723 16.6363 44.5236 17.4274C44.5379 17.4407 44.5547 17.4405 44.57 17.4501C44.2761 17.6693 43.9833 17.8897 43.6975 18.1194C42.5121 15.5024 40.1396 13.8235 37.1917 12.9009ZM40.0706 12.3223C40.5941 12.2174 41.1067 12.1184 41.6237 12.0169C42.5748 12.6455 43.3756 13.4054 44.0499 14.2723C44.653 15.0477 45.058 15.92 45.609 16.7199C45.4185 16.8511 45.2215 16.9748 45.0342 17.1097C45.0502 15.9916 43.9602 14.8442 43.1499 14.0759C42.3056 13.2749 41.2176 12.7175 40.0706 12.3223ZM43.8843 19.6867C44.8616 18.8601 45.8863 18.1082 46.9568 17.4078C47.5676 19.1493 47.0708 20.263 45.3304 21.2204C44.8222 20.712 44.2995 20.2251 43.754 19.7709C43.7993 19.7466 43.8441 19.7208 43.8843 19.6867ZM46.2825 16.2632C45.7126 14.5032 44.2145 12.891 42.5004 11.8443C42.8174 11.7832 43.1227 11.7316 43.437 11.6724C43.4396 11.7487 43.4736 11.8237 43.5552 11.8822C44.4469 12.523 45.2236 13.2408 45.8899 14.0693C46.3325 14.6197 46.6567 15.2249 47.0045 15.8188C46.7663 15.9694 46.517 16.1093 46.2825 16.2632ZM4.15162 11.505C4.59944 11.7743 5.05425 12.0226 5.51321 12.2578C4.79458 12.7187 4.17831 13.3627 3.77689 13.9252C2.93723 15.1012 2.87089 16.5693 3.08288 17.91C2.89447 17.7294 2.7141 17.5397 2.5511 17.3312C1.03532 15.3931 2.72291 13.0262 4.15162 11.505ZM1.74617 18.4258C2.61329 19.4465 3.94326 20.1938 5.30666 20.7445C3.99665 20.9655 2.71229 21.1715 1.45851 21.3505C1.52408 20.3735 1.64977 19.4017 1.74617 18.4258ZM0.917402 22.6117C5.24913 22.3586 9.53525 21.5871 13.8167 20.9831C15.877 20.6926 17.8771 20.5332 19.8648 20.4571C19.3864 20.6631 19.0086 20.9123 18.5975 21.2181C17.5151 22.024 17.0004 22.0976 15.7399 21.2211C15.3182 20.9283 14.8245 21.046 14.6211 21.482C14.1572 22.4752 13.4715 23.5956 12.0835 22.9997C11.644 22.8108 11.2477 22.5198 10.8271 22.2958C10.7292 22.2437 10.6276 22.2866 10.5786 22.36C10.5164 22.176 10.1611 22.1111 10.0186 22.3045C9.77833 22.6177 9.5508 22.9379 9.33596 23.2653C8.4494 24.5653 6.89319 24.2293 6.13362 23.0385C5.98357 22.8035 5.64123 22.7948 5.42717 22.9583C4.76633 23.4633 4.24025 23.8206 3.40811 24.0528C2.20124 24.3893 1.40331 23.4717 0.917402 22.6117ZM24.7876 28.1757C19.9109 28.17 15.0275 27.8732 10.2098 27.2011C8.28821 26.9332 4.29675 26.6655 3.76522 24.6998C4.39911 24.5798 5.05891 24.2865 5.70887 23.7988C6.30958 24.4044 7.15908 25.2434 8.10836 24.9853C9.39142 24.6362 10.074 23.5531 10.5649 22.52C10.8082 23.3622 11.68 24.0599 12.6801 24.1555C14.0403 24.2853 14.9176 23.4854 15.5116 22.5301C16.203 22.9523 16.9216 23.2468 17.833 23.1027C18.8284 22.9457 19.9501 21.7474 20.6521 21.1905C20.9846 20.9271 20.8221 20.5856 20.5194 20.4382C21.4632 20.4109 22.4068 20.4064 23.3522 20.4109C23.3519 20.4596 23.3512 20.5079 23.3701 20.5634C23.8008 21.8404 24.6011 23.4274 26.3581 23.543C27.0674 23.5897 27.8047 23.56 28.4518 23.252C29.6322 22.6899 29.9694 23.1258 31.1006 23.2271C31.7708 23.2868 32.4399 23.1647 33.1023 23.079C33.8124 22.9873 34.8443 24.2858 35.6951 24.4341C36.7921 24.625 37.6178 23.5961 38.1008 22.7368C39.6899 24.1358 41.2521 24.7528 42.5458 23.0342C43.289 23.8201 44.2834 24.5521 45.3838 24.5761C43.9641 28.138 27.0995 28.1784 24.7876 28.1757ZM46.8047 22.6721C46.7718 22.723 46.736 22.7617 46.7021 22.8069C46.2138 22.2683 45.0186 22.7121 45.334 23.4242C45.3358 23.4276 45.3358 23.4306 45.3374 23.4342C44.4241 23.3117 43.4839 22.419 43.004 21.7631C42.7705 21.4442 42.1501 21.3747 41.9365 21.7631C41.5802 22.4115 41.2052 23.5344 39.9999 23.023C39.3999 22.7681 38.8881 22.3056 38.3955 21.8994C38.2835 21.6449 37.8378 21.5124 37.5996 21.7416C36.9261 22.3904 35.7586 23.8912 34.3809 22.1678C34.2058 21.9488 33.9886 21.8848 33.6942 21.9213C31.771 22.1593 31.2263 21.8788 29.5027 21.4607C29.3352 21.4198 29.1269 21.4349 28.9792 21.521C27.0542 22.6437 25.4189 22.4222 24.4453 20.4196C25.9689 20.4434 27.5054 20.4958 29.0777 20.5673C29.0802 20.581 29.0857 20.5925 29.088 20.6064C29.1378 20.878 29.4848 21.0684 29.7753 21.068C32.1183 21.0629 34.4608 21.0622 36.7628 20.6368C36.994 20.5941 37.1972 20.4023 37.2534 20.2041C37.5216 19.2581 37.5423 18.3471 37.3723 17.4787C40.2837 18.5147 42.6552 20.4027 44.6799 22.4896C44.894 22.7102 45.2855 22.7178 45.5553 22.5893C46.2141 22.2754 46.786 21.9174 47.2577 21.5197C47.1869 21.9021 47.0561 22.2821 46.8047 22.6721ZM47.9121 15.2614C47.145 13.7762 45.7067 12.4738 44.2818 11.5178C44.6734 11.4465 45.0746 11.3676 45.4597 11.3018C45.702 11.2604 45.8756 11.1477 45.9935 11.0005C46.8495 12.304 47.5923 13.6457 48.3288 15.0056C48.1852 15.0866 48.0533 15.1782 47.9121 15.2614Z" fill="black"/>
</svg>
