<svg width="50" height="40" viewBox="0 0 50 40" fill="none" xmlns="http://www.w3.org/2000/svg">
<path d="M32.4844 14.852C30.1623 13.5136 28.0296 12.2343 26.1778 10.3738C23.0974 7.27827 20.5004 3.91411 16.7135 1.46542C11.4485 -1.939 -1.17485 0.696068 2.18292 8.2499C2.1952 8.27724 2.2154 8.29662 2.23069 8.32097C1.98283 8.65098 1.76173 9.00856 1.57038 9.38131C-0.992232 12.1993 0.0646949 17.1546 1.34245 20.2091C3.29853 24.8848 7.24208 28.7537 11.4256 31.8763C18.8939 37.4509 31.5981 42.9069 41.0367 38.2306C41.2699 38.1153 41.3924 37.9561 41.4413 37.7866C41.4694 37.7747 41.495 37.7752 41.5234 37.7605C43.173 36.9012 44.1191 35.9124 44.397 34.9102C44.5381 34.9244 44.6937 34.9077 44.8643 34.8451C59.7259 29.3933 38.1741 18.1317 32.4844 14.852ZM40.6832 36.4519C40.5247 36.5625 40.4376 36.6997 40.3827 36.842C40.3134 36.8547 40.2454 36.8582 40.1739 36.8878C30.94 40.6816 20.08 35.8888 12.8008 30.6236C9.12774 27.9669 6.00609 24.6642 3.85129 20.8669C2.72612 18.8841 2.1013 16.6576 1.94598 14.438C1.85563 13.1473 2.16736 11.9105 2.36035 10.6628C2.53068 10.3164 2.72557 9.9782 2.96442 9.65441C5.70555 5.51469 8.91291 10.1338 9.33874 11.7597C9.79541 13.5029 9.61799 15.2434 10.3176 16.9428C11.6328 20.1368 15.3069 23.2534 18.1086 25.346C21.5054 27.8832 25.0543 29.1483 29.3458 29.8436C31.7903 30.2395 46.9964 32.047 40.6832 36.4519ZM41.4022 30.8314C38.6559 29.5009 35.4527 28.944 32.42 28.497C27.0611 27.707 22.8438 26.6208 18.5405 23.4182C15.1349 20.8835 11.9811 17.418 11.3999 13.3903C11.0107 10.6936 10.4912 9.08137 8.0992 7.36649C7.50713 6.94206 6.93936 6.68089 6.39807 6.54347C6.66585 5.15412 7.75007 4.36563 9.35812 4.59748C11.0745 4.84499 12.2887 6.0825 13.0028 7.44154C12.5431 8.32321 12.165 9.38454 12.7072 10.3067C13.279 11.2793 14.414 12.0676 15.5064 12.5049C15.5127 12.5074 15.5187 12.5072 15.5253 12.5094C14.773 13.2837 13.8048 14.4365 14.441 15.4432C15.1453 16.5572 16.6526 16.3981 17.8624 16.0823C19.0807 18.2286 21.1609 20.383 23.6673 21.3241C24.2905 22.2264 25.2082 23.0636 26.1057 23.7209C26.8163 24.241 27.6158 24.6925 28.513 24.8831C29.5735 25.1085 30.6094 24.821 31.2776 24.1309C33.7892 25.5662 36.8833 26.1097 39.6219 27.0835C41.2084 27.6476 42.8389 28.2808 44.044 29.41C45.1484 30.4445 44.608 31.6002 43.7779 32.552C43.2636 31.9357 42.4761 31.3515 41.4022 30.8314ZM20.4984 14.2712C21.9034 15.5826 23.5497 17.0862 25.2344 18.1314C25.2554 18.2865 25.3548 18.4304 25.5502 18.4731C27.1179 18.8163 28.751 19.5088 29.8055 20.6547C30.1533 21.0326 30.3454 21.4272 30.4642 21.8964C30.5524 22.2453 30.5379 22.5594 30.3924 22.9386C30.3905 22.9431 30.3913 22.9413 30.3897 22.9448C30.3662 22.9908 30.34 23.0353 30.313 23.0792C30.2242 23.2246 30.2548 23.1724 30.2237 23.2067C30.0596 23.3859 30.1011 23.3578 29.8118 23.4853C29.9767 23.4127 29.6939 23.5136 29.6436 23.5253C29.4326 23.574 29.6824 23.5367 29.4578 23.5482C29.1095 23.5658 29.068 23.5484 28.7682 23.4783C26.9956 23.0626 25.9054 21.4658 24.7087 20.3078C24.4111 20.02 24.0088 20.0625 23.735 20.2603C21.5734 19.0074 19.6026 17.6046 18.8434 15.1927C18.7373 14.855 18.3865 14.7128 18.0278 14.771C17.7974 14.8085 15.7043 15.2985 15.8657 14.5521C15.9939 13.9584 16.387 13.4142 16.7342 12.9115C17.0241 12.4915 16.5445 12.0325 16.1031 12.0944C16.0873 12.0343 16.0605 11.9736 16.0065 11.9152C15.4341 11.2955 14.6485 10.8666 14.1288 10.2071C13.6159 9.55625 13.8004 8.90444 14.182 8.28395C15.703 8.12168 16.6788 8.63756 17.757 9.55874C17.7579 9.56421 17.7559 9.56843 17.7568 9.5739C18.098 11.4625 19.0441 12.914 20.4984 14.2712ZM46.0861 32.179C48.5955 26.8492 36.3851 24.2206 31.9396 22.8583C32.1326 21.8554 31.7253 20.7734 31.068 19.9777C29.7916 18.4328 27.8609 17.8613 25.8265 17.6729C25.2276 16.2968 23.8019 15.2081 22.6325 14.2439C20.9442 12.8523 19.4213 11.336 18.6515 9.34925C18.6057 9.23072 18.5271 9.15468 18.4375 9.10722C18.0491 8.33812 17.5291 7.65326 16.7012 7.21466C16.1613 6.92864 15.5561 6.84912 14.9427 6.83446C14.7975 6.83098 14.6021 6.82949 14.3933 6.83818C13.629 4.64942 11.546 3.15396 9.04339 2.89502C6.62354 2.64454 5.19128 4.47174 5.16044 6.44879C4.55036 6.51439 3.9905 6.74848 3.48633 7.09439C4.20669 2.82023 8.69645 0.734088 13.338 1.92265C17.0438 2.87167 19.8873 6.31758 22.234 8.8868C24.9489 11.8591 27.3485 14.0247 30.8881 16.1074C35.1215 18.5986 39.4505 20.9819 43.3499 23.9055C46.7521 26.4568 49.8274 29.8369 46.0861 32.179Z" fill="black"/>
</svg>
