<svg width="40" height="40" viewBox="0 0 40 40" fill="none" xmlns="http://www.w3.org/2000/svg">
<path d="M38.8341 7.62988C37.2825 4.94493 34.3154 2.35347 30.5483 2.81576C28.6708 3.04618 27.2782 3.92975 26.3872 5.13825C26.4397 4.80102 26.508 4.45989 26.598 4.11344C26.8779 3.03409 25.3717 2.50415 24.6553 3.13577C24.5839 3.07734 24.5041 3.02199 24.4062 2.97402C17.1886 -0.556769 8.49445 -0.981743 0.902697 1.90287C0.690559 1.98344 0.597793 2.12715 0.576838 2.28275C0.170928 2.3752 -0.169293 2.80776 0.0911115 3.18907C8.05557 14.8485 -8.8189 32.9104 10.674 39.1194C18.5238 41.6198 28.8444 38.7077 31.8268 31.5C33.0113 28.6373 33.1005 25.7885 32.4467 22.9656C35.5332 23.3369 37.8332 20.0558 38.8181 17.9506C40.2242 14.9442 40.5491 10.5977 38.8341 7.62988ZM21.5723 4.02118C20.8655 4.2307 20.1484 4.4232 19.3641 4.50745C17.0365 4.75715 14.5294 4.26903 12.2694 3.87768C9.57326 3.41089 6.91366 2.78296 4.20437 2.41087C10.1461 1.43792 15.9901 1.86413 21.5723 4.02118ZM7.62682 35.4438C0.538931 31.8021 3.41892 23.0991 4.35035 17.4387C5.13744 12.6562 5.22739 7.95009 2.32644 3.87625C7.95221 5.14399 19.6299 9.2775 23.9386 5.32378C22.8456 12.4284 29.3044 17.9514 30.2165 24.9448C31.6867 36.2171 17.3258 40.4273 7.62682 35.4438ZM28.8507 10.3454C28.9136 10.1486 29.1158 9.82691 29.169 9.77012C29.3437 9.58275 29.4398 9.55077 29.627 9.50628C29.7263 9.4825 30.031 9.48353 30.1188 9.49644C30.4522 9.54544 30.7451 9.64773 30.9667 9.74245C31.677 10.0463 32.2501 10.4727 32.7911 10.9735C33.781 11.8899 34.6062 13.2679 34.3748 14.3891C34.0362 16.0289 31.7754 16.6142 30.0126 16.885C29.4805 15.8774 28.935 14.8838 28.4255 13.888C28.6605 13.7927 28.8474 13.582 28.8022 13.2974C28.648 12.3323 28.5465 11.2964 28.8507 10.3454ZM36.8166 16.8278C35.9433 19.3516 34.3995 20.2376 31.9555 21.229C31.7467 20.6132 31.5164 19.9984 31.2445 19.3852C31.1039 19.0693 30.9535 18.7583 30.8028 18.4471C33.0935 18.024 35.5649 17.0578 36.1474 14.9102C36.6329 13.1213 35.5539 11.3148 34.2323 10.0079C33.0471 8.83571 31.2549 7.7621 29.3845 7.98576C27.5353 8.20696 27.1802 9.87611 27.2428 11.3068C27.0514 10.8177 26.8744 10.3257 26.7324 9.8265C26.738 9.80702 26.751 9.79472 26.7555 9.77381C27.252 7.37792 28.0883 4.79446 31.4081 4.72107C34.5513 4.65137 36.6558 7.64956 37.3292 9.94069C37.9856 12.1736 37.566 14.6623 36.8166 16.8278Z" fill="black"/>
<path d="M22.7916 14.3323C22.3932 13.901 21.8548 14.0551 21.5555 14.3998C17.7464 12.2255 12.8899 11.1549 8.40014 11.632C8.09501 11.6644 7.86403 11.7935 7.7084 11.9666C7.4925 11.9912 7.30414 12.1066 7.26812 12.3364C6.4231 17.7438 4.08346 23.4359 5.98917 28.8597C7.64554 33.5742 14.6221 35.9102 19.8414 35.2987C31.0292 33.9891 27.7682 19.7231 22.7916 14.3323ZM20.0256 15.5849C17.1056 16.1011 13.4936 14.8938 10.9957 13.3099C14.141 13.4432 17.3627 14.1603 20.0256 15.5849ZM20.1405 33.5338C13.1246 35.0642 7.34393 30.4541 7.1139 24.641C6.96415 20.8539 8.14515 17.1023 8.3992 13.32H8.39991C8.54777 13.3108 8.7001 13.314 8.84914 13.3075C11.5102 16.5285 18.0217 18.521 22.1929 16.7985C24.8211 22.1362 28.5127 31.7077 20.1405 33.5338Z" fill="black"/>
</svg>
