<svg width="40" height="40" viewBox="0 0 40 40" fill="none" xmlns="http://www.w3.org/2000/svg">
<path d="M39.276 30.8978C38.5979 30.6437 37.8998 30.4189 37.202 30.1948C38.2914 27.2804 36.8731 24.2619 34.2868 23.3564C33.6198 23.1228 32.9288 23.048 32.249 23.1067C32.1225 21.6542 31.378 20.3326 30.3573 19.5083C30.8671 17.0691 28.7585 14.3787 26.9392 13.7435C25.2166 13.1418 23.5995 13.8479 22.4505 15.2111C22.34 14.7593 22.1999 14.3391 22.0463 14.0013C21.3743 12.5217 20.0286 11.6008 18.7186 11.138C16.1325 10.2241 12.895 11.7123 13.3118 15.4178C13.316 15.4545 13.3291 15.4826 13.3379 15.5149C13.2254 15.5328 13.1128 15.5428 13.0006 15.5741C11.5709 11.3408 10.3911 6.91245 8.36442 3.01298C7.51952 1.38734 4.7048 -1.68929 3.41289 1.17111C2.33935 3.54841 4.985 7.55943 5.99014 9.31544C7.45748 11.8784 9.21467 14.7985 11.3817 16.6452C10.7465 17.4803 10.5631 18.626 10.6567 19.7671C9.6929 18.9178 8.49405 18.4626 7.31635 18.7021C5.05299 19.1625 4.12674 21.6021 4.53964 24.0709C3.735 24.1389 2.94247 24.476 2.26149 25.0048C1.21958 25.814 0.346328 27.196 0.406517 28.7362C0.445342 29.732 0.903026 30.5037 1.5347 31.0421C1.31757 31.1287 1.09427 31.2045 0.879402 31.2943C0.605161 31.4088 0.470814 31.646 0.436098 31.898C0.145834 32.0122 -0.0867054 32.3402 0.0314132 32.7543C0.514364 34.4509 1.42788 37.2277 2.77731 38.1691C3.50698 38.6777 4.89852 38.1799 5.67255 38.1063C7.75308 37.9089 9.83402 37.7227 11.9168 37.5633C19.8084 36.9601 27.6551 37.0696 35.2564 39.9376C36.0824 40.2492 36.5775 39.3317 36.4506 38.5485C37.9695 37.177 39.1311 34.2802 39.8717 32.6418C40.1839 31.9498 39.9037 31.1329 39.276 30.8978ZM8.7535 10.8572C7.27034 8.48965 5.62407 5.99616 4.78225 3.18444C4.34695 1.73052 5.14133 1.12904 6.21302 2.18108C7.356 3.30283 8.02034 5.24523 8.6212 6.80482C9.56369 9.25135 10.1551 11.9268 11.0405 14.4162C10.235 13.2636 9.48768 12.0288 8.7535 10.8572ZM31.2683 24.8544C31.5296 25.0405 31.8928 25.0048 32.0822 24.715C32.5058 24.6792 32.936 24.6844 33.369 24.7622C35.8694 25.2117 36.2373 27.3388 35.8885 29.7924C33.2916 29.0388 30.5898 28.4706 27.8285 28.1123C27.8431 27.9868 27.8472 27.8625 27.8517 27.7385C27.9053 27.7055 27.9551 27.6617 27.991 27.592C28.7461 26.1302 29.9345 25.2071 31.2683 24.8544ZM27.6944 26.3257C27.3304 24.9158 26.3832 23.7052 25.2558 23.0375C25.2891 22.9374 25.3084 22.8247 25.2971 22.6909C25.2667 22.3218 25.2057 21.9729 25.1237 21.6403C25.8727 20.756 26.8862 20.2566 28.0261 20.2578C28.3187 20.258 28.567 20.3104 28.7973 20.3842C28.9446 20.7834 29.2872 20.9459 29.595 20.8417C30.2238 21.4414 30.5185 22.4306 30.7657 23.4626C29.5027 23.9665 28.3867 24.9569 27.6944 26.3257ZM23.6594 21.9835C23.5917 22.153 23.5167 22.3166 23.4608 22.4954C21.5444 22.4052 19.8472 23.6008 19.0241 25.5451C18.4427 24.2094 17.4027 23.1439 16.2163 22.4668C16.2451 22.4206 16.2671 22.3653 16.2792 22.2997C16.6902 20.068 18.272 19.0487 20.0865 18.9929C21.8996 18.9369 23.0138 20.2363 23.6594 21.9835ZM23.2763 23.9481C24.1295 23.9493 24.9337 24.3982 25.5502 25.0765C26.2776 25.8766 26.362 26.9223 26.5674 27.9618C24.2363 27.7123 21.8766 27.5947 19.5183 27.6323C19.5089 27.4291 19.4881 27.2295 19.4587 27.0331C20.0693 25.0753 21.4719 23.9457 23.2763 23.9481ZM26.2591 15.4736C27.0343 15.648 27.7178 16.2013 28.1681 16.964C28.4916 17.5126 28.5557 18.0923 28.5871 18.6808C28.5746 18.6789 28.5627 18.6732 28.5502 18.6713C27.0091 18.4475 25.6225 19.1182 24.6299 20.3202C24.1206 19.3359 23.3669 18.5942 22.5099 18.1018C22.6079 17.7812 22.6566 17.428 22.6681 17.0623C23.5319 15.818 24.7952 15.1441 26.2591 15.4736ZM14.0992 15.4176C14.1812 12.6978 16.4982 12.2441 18.3269 12.8304C19.3145 13.1472 20.1913 13.8815 20.7219 14.9232C21.1681 15.7994 20.999 16.6455 20.9322 17.5038C19.6818 17.2514 18.3852 17.4708 17.3683 18.2193C17.4306 17.9896 17.4068 17.7205 17.2204 17.4664C16.4057 16.3551 15.2704 15.5878 14.0875 15.4819C14.0904 15.4591 14.0984 15.4423 14.0992 15.4176ZM12.8815 17.4818C14.0142 16.5838 15.4236 17.7403 16.2989 18.5641C16.4528 18.709 16.6161 18.7613 16.7695 18.7552C16.621 18.9178 16.4834 19.0967 16.3577 19.2911C16.2077 18.9616 15.8936 18.8971 15.6481 19.0228C15.5512 18.8973 15.4567 18.7689 15.3523 18.6522C14.9004 18.1471 14.2697 18.91 14.6769 19.4565C14.9889 19.875 15.2239 20.4679 15.6286 20.7717C15.6572 20.793 15.6878 20.7971 15.7174 20.8128C15.6633 21.0209 15.6112 21.2313 15.5756 21.4585C15.5376 21.2533 15.4154 21.0662 15.1724 20.9706C14.5419 20.7216 14.1646 19.782 14.0865 19.0546C14.0249 18.4822 13.3661 18.4607 13.325 19.0546C13.2484 20.1607 13.6015 21.0376 14.2167 21.7548C14.028 21.7222 13.8388 21.6794 13.6512 21.6704C13.1354 21.6449 12.6383 21.7142 12.1689 21.8543C12.1011 21.697 12.015 21.551 11.9349 21.4011C11.7586 20.0394 11.8238 18.3203 12.8815 17.4818ZM7.72412 20.1864C9.23172 20.0132 10.1611 21.1574 10.8874 22.4793C9.35703 23.5602 8.47268 25.6114 9.0376 27.986C9.1323 28.3843 9.68776 28.3197 9.6588 27.8862C9.52096 25.8296 10.241 24.3666 11.4793 23.623C11.817 24.1991 12.5464 23.8422 12.5464 23.1925C12.8934 23.1089 13.2611 23.0617 13.6512 23.0622C14.8155 23.0639 15.9546 23.6296 16.8291 24.5242C17.6894 25.4038 17.9493 26.502 18.1763 27.6666C15.0436 27.7904 11.9287 28.1678 8.91475 28.817C8.72309 26.9453 7.6742 25.0395 6.19864 24.3525C5.93139 24.2279 5.65653 24.1538 5.38003 24.1069C5.33237 22.2215 5.95665 20.3894 7.72412 20.1864ZM3.00759 26.222C3.82045 25.5813 4.81244 25.3497 5.74466 25.7191C6.96652 26.2031 7.38496 27.7255 7.81635 29.052C6.1364 29.4537 4.49383 29.9438 2.89872 30.5167C2.28512 30.0603 1.72801 29.4847 1.68877 28.609C1.64378 27.6079 2.36153 26.7312 3.00759 26.222ZM34.6578 37.2455C29.3427 35.3281 23.8147 34.8486 18.2691 34.9054C15.3073 34.9355 12.3494 35.2009 9.39894 35.4856C7.74774 35.6451 6.09798 35.831 4.44823 36.0095C2.85003 36.1825 2.03676 34.2922 1.38187 32.7565C13.1268 30.0977 25.8123 28.7225 37.4744 32.7431C36.5851 34.3029 35.5303 35.6915 34.6578 37.2455Z" fill="black"/>
</svg>
