<svg width="30" height="45" viewBox="0 0 30 45" fill="none" xmlns="http://www.w3.org/2000/svg">
<path d="M29.9532 13.6436C28.573 9.18382 23.4902 9.14592 19.6242 9.86008C19.6066 9.8472 19.5932 9.8319 19.5737 9.82C19.3211 9.66745 19.038 9.62689 18.7463 9.64535C18.8368 8.80901 18.8936 7.95008 19.1075 7.14119C19.2852 6.46955 19.4374 5.80786 19.5447 5.135C21.9164 5.42358 24.1976 5.25913 26.6124 5.23848C26.8936 5.23605 27.2433 5.03031 27.2867 4.72716C27.8227 0.991208 22.8035 -0.243258 19.9724 0.0385167C14.1868 0.613969 13.2183 6.15328 14.6904 10.8349C14.6728 10.8528 14.6626 10.8759 14.647 10.8954C14.3583 10.8835 14.0693 10.8815 13.7796 10.9014C13.0907 10.9493 13.1161 11.8694 13.7796 11.9486C14.1081 11.9877 14.4346 12.0407 14.7601 12.1004C14.8306 12.1541 14.9157 12.1932 15.0103 12.2209C14.9223 12.3477 14.8308 12.4728 14.7496 12.6028C14.3341 13.2674 15.3207 13.7785 15.7709 13.1974C15.9711 12.939 16.1923 12.707 16.4251 12.4896C16.6751 12.5556 16.9277 12.6132 17.1752 12.6854C18.1199 12.9598 19.2094 13.5999 20.196 13.5839C20.9363 13.572 21.0553 12.7038 20.5423 12.3101C19.9751 11.8748 19.0897 11.6911 18.2964 11.5318C18.3255 11.4949 18.3372 11.4443 18.3615 11.4038C18.79 11.3345 19.2243 11.3066 19.5737 11.0639C19.5932 11.0503 19.6076 11.0331 19.6254 11.0185C19.652 11.0212 19.6742 11.0326 19.7025 11.0314C22.3185 10.9306 26.4608 10.9656 27.9461 13.5664C23.655 14.683 19.047 14.8771 14.6372 14.9269C12.0227 14.9566 9.41884 14.7649 6.84501 14.3056C5.17146 14.0068 3.90686 13.0383 2.40353 12.5406C2.33891 12.4845 2.27697 12.4252 2.2204 12.3569C3.82151 11.6413 5.47067 11.268 7.24541 11.0778C9.14451 10.874 11.129 11.1494 12.9571 10.5465C13.5475 10.352 13.5487 9.54867 12.9571 9.35434C9.20815 8.12303 3.86077 9.28268 0.464677 11.0955C-0.00570947 11.3467 -0.117149 11.954 0.122068 12.397C0.578067 13.2416 0.959692 13.4782 1.49616 13.5938C1.69173 14.4005 2.3828 15.0158 3.33625 15.4832C4.22655 20.964 4.51478 26.5361 5.22536 32.0411C5.61576 35.0644 5.78475 41.8452 8.93211 43.582C9.0716 43.659 9.21596 43.6847 9.35519 43.6796C9.42664 43.7212 9.4898 43.7683 9.58076 43.7958C13.5477 44.9875 17.9197 45.4621 21.9695 44.4417C22.3207 44.3532 22.5433 44.1492 22.6584 43.9007C23.1139 43.9702 23.5682 43.7717 23.6702 43.1673C24.5348 38.0388 25.5129 33.1004 26.8273 28.0564C27.8739 24.0411 28.7666 19.6433 28.2777 15.4696C28.4618 15.4028 28.6552 15.351 28.8363 15.2794C29.1448 15.1577 29.3314 14.9352 29.4194 14.6869C29.8205 14.5558 30.1192 14.1814 29.9532 13.6436ZM25.9514 3.82353C23.7009 3.76402 21.3546 3.5233 19.1538 3.15675C19.0958 3.10331 19.0355 3.05084 18.9804 2.99594C18.6673 2.68404 18.381 2.35077 18.1145 2.00195C18.5396 1.7724 19.0187 1.58512 19.5708 1.45881C21.1822 1.09056 25.7068 1.51832 25.9514 3.82353ZM17.2596 8.29453C17.0355 9.85303 17.1428 10.4205 15.715 10.5589C15.3473 8.69023 15.2325 6.62161 15.7797 4.9091C16.0742 5.06796 16.369 5.22682 16.6636 5.38568C16.9606 5.54576 17.2749 5.74835 17.6022 5.86397C17.5032 6.67456 17.3764 7.48175 17.2596 8.29453ZM17.7195 4.61542C17.5554 4.54182 17.3905 4.47234 17.2418 4.40069C16.8965 4.23502 16.5458 4.07956 16.1969 3.92167C16.4661 3.42225 16.8185 2.97578 17.2576 2.59295C17.4556 2.88906 17.6685 3.17521 17.8941 3.45504C17.9082 3.47253 17.9229 3.49172 17.9372 3.50945C17.8324 3.65568 17.7634 3.83495 17.7563 4.05017C17.7497 4.23988 17.7322 4.42741 17.7195 4.61542ZM23.7935 30.0646C22.7443 33.9375 21.2948 38.2156 21.5713 42.296C21.5101 42.3019 21.4487 42.3077 21.3836 42.3242C17.6063 43.2759 13.8454 42.6587 10.0814 41.9868C10.0155 41.9749 9.96019 41.9885 9.89874 41.988C9.42835 40.4958 8.73362 39.0782 8.36907 37.5224C7.70214 34.6767 7.3866 31.745 7.05179 28.8476C6.56677 24.6513 6.24855 20.285 5.19463 16.1582C7.65142 16.8236 10.6081 16.9688 11.751 17.0502C16.5414 17.391 22.0715 17.3456 26.8512 15.9554C26.2391 20.7791 25.0696 25.3528 23.7935 30.0646Z" fill="black"/>
</svg>
