<svg width="40" height="40" viewBox="0 0 40 40" fill="none" xmlns="http://www.w3.org/2000/svg">
<path d="M36.6363 2.0117C36.5931 1.84585 36.4972 1.73764 36.3844 1.65525C36.3669 1.38528 36.3397 1.11444 36.3003 0.842958C36.2388 0.420032 35.8996 -0.0394643 35.3196 0.00269918C24.4062 0.791759 17.0645 9.05258 6.72079 11.2995C6.11821 11.4301 6.39163 12.14 6.9696 12.0727C16.4115 10.9723 23.1265 4.51032 32.0391 2.16659C37.5923 0.706357 31.1081 10.8011 29.9479 12.3848C27.6443 15.5296 24.2274 18.3625 22.2846 21.687C21.1558 20.9375 19.4025 21.1669 18.2134 21.7365C17.7294 21.9686 18.0794 22.5281 18.568 22.4574C19.6215 22.3046 21.1206 21.8709 21.841 22.8153C22.3527 23.4858 22.1641 24.4853 21.9185 25.2257C21.5422 25.0523 20.9921 25.2001 20.9544 25.6915C20.925 26.0789 20.9112 26.4687 20.8982 26.8589C20.679 27.0553 20.4327 27.2203 20.1522 27.3206C18.801 27.8057 17.8019 26.2768 17.3083 25.4688C17.1916 25.2776 16.9513 25.2404 16.7271 25.2662C13.7006 25.6153 10.0992 24.7791 9.21772 22.0149C9.13712 21.7621 8.67288 21.8105 8.68117 22.077C8.68418 22.1654 8.69272 22.2358 8.69724 22.318C8.6528 22.2734 8.60208 22.2319 8.52852 22.2132C7.16443 21.8694 5.83977 21.9611 4.67177 21.1417C3.46335 20.2937 3.53792 18.7493 3.69986 17.5593C3.72622 17.3661 3.51507 17.1456 3.29915 17.1082C2.37771 16.9486 1.13866 16.79 1.04601 15.7701C0.980479 15.0454 1.52154 14.2613 1.88183 13.6482C1.98879 13.4666 1.88861 13.3034 1.73245 13.2313C2.61924 12.7445 3.50252 12.3411 4.68206 12.5126C6.30526 12.7486 6.83201 14.1606 6.73485 15.393C6.49381 15.4802 6.32183 15.7768 6.54177 16.0124C7.53125 17.071 9.21671 17.1592 9.04046 18.9148C9.02715 19.0447 9.13386 19.1781 9.25864 19.2413C10.3699 19.8032 11.7398 20.5155 13.0376 20.6906C14.0431 20.8263 14.3389 19.6518 15.6957 19.8165C16.5122 19.9157 17.5918 20.9773 18.2767 21.4222C18.5798 21.6192 18.9739 21.1789 18.683 20.9709C17.9137 20.4206 16.9566 19.3347 15.9189 19.1221C14.7032 18.873 13.5297 19.9426 12.6577 19.6997C11.8005 19.4607 10.974 19.0832 10.1618 18.7511C9.69902 18.5617 9.78339 18.0384 9.59859 17.7038C9.06481 16.738 7.9041 16.3187 7.14887 15.4928C7.12878 15.4707 7.10543 15.4614 7.08359 15.4455C7.45919 14.038 7.18276 12.5861 5.49429 11.913C3.72572 11.2085 1.23055 11.984 0.174532 13.3214C-0.0534436 13.6101 0.388698 13.9586 0.71886 13.7878C0.836111 13.7274 0.950099 13.6643 1.06434 13.6015C0.429874 14.4454 -0.353979 15.5948 0.173778 16.5661C0.218469 16.6487 0.272199 16.718 0.324674 16.7894C0.160722 16.8522 0.0422157 16.9952 0.0972009 17.2074C1.57075 22.9134 2.38072 28.6872 3.47992 34.4484C3.5688 34.9124 4.0476 34.9945 4.43526 34.8442C7.18753 39.8111 18.1447 41.5062 23.2304 38.5266C23.4694 38.521 23.7102 38.4416 23.886 38.2377C28.9145 32.4086 34.7944 27.1289 38.4995 20.535C42.1064 14.1139 38.2886 8.36764 36.6363 2.0117ZM37.5474 10.9353C37.7282 11.5473 37.8454 12.1426 37.9165 12.7273C37.911 12.7357 37.9027 12.7389 37.8974 12.7479C33.9031 19.4865 28.805 25.306 22.7067 30.664C22.6411 29.9033 22.5791 29.1426 22.5096 28.3828C27.7543 22.5144 32.0853 16.0672 37.3084 10.1673C37.3872 10.4238 37.4713 10.678 37.5474 10.9353ZM22.9181 25.8008C23.3228 24.9216 23.5427 23.898 23.2482 22.9814C26.7382 19.9228 29.7101 15.9384 32.3828 12.3422C33.9103 10.2865 35.2272 8.04001 35.9096 5.68079C36.289 6.95237 36.6988 8.21813 37.0977 9.48863C36.9119 9.43055 36.6925 9.43894 36.5265 9.55747C30.2236 14.0638 26.8805 21.3437 22.4084 27.2453C22.3923 27.073 22.3788 26.8994 22.3622 26.7273C22.5844 26.4304 22.7727 26.1163 22.9181 25.8008ZM4.89648 34.4223C4.93515 34.3257 4.95624 34.2208 4.93791 34.1033C4.06066 28.5089 3.55499 22.7643 1.1364 17.4689C1.20594 17.5072 1.27173 17.5466 1.3468 17.5836C2.41913 18.1115 2.51103 17.7258 2.51454 18.8894C2.52232 21.5545 5.51789 23.4611 8.52827 22.8448C8.61765 22.8265 8.68092 22.7839 8.72636 22.7321C8.88103 24.0667 9.4354 24.4973 11.0538 25.2952C12.7704 26.1417 14.6515 26.3261 16.5722 26.1559C17.281 27.2427 18.4628 28.5478 20.0834 28.2381C20.3704 28.183 20.6333 28.0862 20.8826 27.9683C20.8909 31.1626 21.3755 34.4043 22.0157 37.5278C16.2405 38.4911 8.62669 39.1363 4.89648 34.4223ZM23.1591 36.7301C23.0617 35.0272 22.9309 33.3218 22.7893 31.6167C25.8273 30.3677 28.3039 27.4271 30.2379 25.2341C33.0665 22.0269 35.6568 18.6558 37.9233 15.1332C37.6217 17.7634 36.344 20.1928 34.706 22.6776C31.4252 27.6549 26.9661 32.0379 23.1591 36.7301Z" fill="black"/>
</svg>
