<svg width="40" height="40" viewBox="0 0 40 40" fill="none" xmlns="http://www.w3.org/2000/svg">
<path d="M39.8727 24.3953C38.1915 16.3074 28.8787 11.3102 23.9713 5.04018C22.4316 3.07326 20.1585 -0.243118 17.1294 0.0141267C13.8581 0.292173 14.5154 3.7416 15.8606 5.5316C15.801 5.69246 15.8177 5.8772 15.9628 6.01602C16.367 6.4024 16.7736 6.78466 17.1803 7.16734C10.8912 7.07404 6.96819 14.0835 4.81392 18.6509C1.88504 24.8604 -0.245234 32.2834 0.0227448 39.1186C0.0440765 39.6617 0.685581 40.0918 1.21598 39.9276C1.26287 39.9447 1.30998 39.9616 1.36775 39.9667C7.38794 40.4998 10.6401 34.4775 15.6822 32.5538C21.4039 30.3708 27.1746 29.5699 33.1817 29.0228C33.2923 29.0716 33.4036 29.1163 33.5143 29.1668C33.9129 29.3485 34.2765 29.2236 34.5022 28.9897C34.8171 29.0111 35.1317 29.0327 35.4466 29.0541C35.6901 29.0708 35.9306 29.1007 36.1614 29.0951C36.7847 29.4774 37.4369 29.6807 38.0597 29.4943C40.0247 28.9063 40.1909 25.9268 39.8727 24.3953ZM10.4261 19.4652C9.46177 21.1337 7.6217 22.1553 5.84806 21.287C6.69444 19.1767 7.78457 16.7836 9.20712 14.6223C11.0748 15.8096 11.5685 17.489 10.4261 19.4652ZM18.2017 30.1305C15.801 30.8464 13.5497 31.6593 11.57 33.1365C8.75716 35.2356 5.93983 38.2923 2.25479 38.9676C5.82628 35.0972 9.71042 31.5073 14.5194 28.9571C19.2257 26.4611 24.0604 26.2259 28.8311 27.4767C25.1101 28.0293 21.327 29.1985 18.2017 30.1305ZM7.64303 27.7852C8.98759 26.5431 10.7083 27.2184 11.6532 28.4943C11.7125 28.5742 11.7814 28.6352 11.854 28.6859C10.2162 29.6498 8.63761 30.7636 7.1264 31.9782C7.12062 31.9629 7.12085 31.9483 7.11351 31.933C6.42135 30.4889 6.36557 28.9654 7.64303 27.7852ZM32.9906 27.1653C25.9258 23.7406 19.1905 24.7796 13.1877 27.9409C13.165 27.8686 13.1333 27.7957 13.0801 27.7214C11.6263 25.6815 8.99203 24.7444 6.75799 26.4007C4.73504 27.9006 4.2073 30.8483 6.26514 32.5402C6.29869 32.5678 6.3338 32.5814 6.36824 32.6008C4.78237 33.93 3.27337 35.3608 1.85527 36.8382C2.11191 31.8859 3.68912 26.8885 5.45431 22.291C5.46809 22.2552 5.48275 22.2181 5.49653 22.1823C10.4099 25.179 16.0548 15.9217 10.0853 13.382C12.1016 10.7257 14.7034 8.62739 18.086 8.21279C18.1464 8.20538 18.1949 8.18602 18.2446 8.1681C21.6277 11.3376 24.9794 14.4872 27.5965 18.2911C29.4608 21.0009 31.2214 23.7661 33.3432 26.3153C33.535 26.5459 33.7947 26.8652 34.0945 27.2108C33.7305 27.185 33.3625 27.1696 32.9906 27.1653ZM38.2833 27.2314C37.7635 29.9093 34.3245 25.3895 33.8023 24.73C32.2957 22.8261 30.9792 20.7914 29.6517 18.7786C26.2982 13.6942 22.3383 9.51096 17.3125 5.80924C17.3607 5.642 17.3418 5.45334 17.1943 5.28239C15.6211 2.84752 15.8624 1.57963 17.9178 1.47995C18.797 1.62288 19.5667 2.4562 20.1665 3.00426C21.1986 3.94776 22.0328 5.0756 22.8754 6.16328C24.2477 7.93475 26.0087 9.46689 27.6317 11.0361C31.8191 15.0836 39.5016 20.9568 38.2833 27.2314Z" fill="black"/>
<path d="M24.6798 18.8728C24.2932 16.1098 20.6639 13.4585 17.7448 14.9245C17.4508 15.0722 17.3711 15.3801 17.4504 15.6433C15.7014 16.0639 14.4413 17.3509 14.614 19.2843C14.8073 21.4483 16.5978 23.6 18.9701 23.961C22.0087 24.4236 25.0722 21.6794 24.6798 18.8728ZM18.7819 22.2886C17.4588 21.9179 16.5058 20.4953 16.332 19.2843C16.0807 17.5324 17.3382 16.5876 19.0754 16.2404C19.1676 16.2221 19.2303 16.1788 19.2783 16.1271C21.0857 16.3298 22.7415 17.2529 23.0113 19.1551C23.2924 21.1396 20.7461 22.8394 18.7819 22.2886Z" fill="black"/>
</svg>
