<svg width="50" height="30" viewBox="0 0 50 30" fill="none" xmlns="http://www.w3.org/2000/svg">
<path d="M49.646 8.85474C48.3874 8.27049 46.962 7.97008 45.5959 8.0998C46.0242 7.07591 46.15 5.8233 45.3068 5.11933C44.0896 4.10348 42.5294 4.55605 41.1928 5.16127C40.7014 4.29685 40.1684 3.39 39.9866 2.45511C39.874 1.87452 39.0226 1.87599 38.7277 2.30222C38.2101 3.05033 37.5071 3.60702 36.8033 4.17834C35.9535 3.14396 34.6649 1.91525 33.2637 2.48827C33.1153 2.54899 32.9843 2.62166 32.8611 2.69968C31.1844 0.479506 28.8981 0.583626 26.8343 2.59459C24.5231 -0.51927 21.1536 -1.06474 18.723 2.24955C15.7852 0.318082 12.5357 0.782113 13.1983 4.55898C11.4743 4.63359 10.094 6.2032 9.25787 7.48947C8.30802 6.54141 6.86947 5.49728 5.55802 5.9006C4.12814 6.34024 3.7232 7.64333 3.70455 8.91375C2.68669 8.81572 1.59872 8.81889 0.688793 8.46435C0.353709 8.33389 0.00418089 8.65552 0.00129223 8.95057C-0.00921199 10.0127 0.0272901 11.1205 0.770989 11.9788C1.17094 12.4404 1.88549 12.5724 2.56931 12.6479C2.38654 12.8201 2.2253 13.013 2.10161 13.2349C1.4921 14.329 1.93879 15.5826 2.61553 16.5475C3.06064 17.1819 4.15676 16.596 3.71322 15.9518C2.96532 14.8657 2.77519 13.1893 4.57509 12.9952C5.24683 12.9227 5.85871 13.1483 6.30907 13.6094C6.98318 14.2995 6.84741 15.378 6.73948 16.2244C5.41123 16.2797 4.14862 16.5002 3.01942 16.9932C2.96768 17.0156 2.95035 17.0537 2.92672 17.0888C2.79541 16.8954 2.65886 16.7094 2.53097 16.5116C2.23606 16.0549 1.56301 16.3734 1.65255 16.8554C3.40019 26.2504 15.5788 29.9868 24.4577 30C34.5 30.0151 45.2125 25.2129 48.6857 16.0139C49.0213 15.1251 47.9725 14.6562 47.2511 14.98C47.0347 14.8357 46.7414 14.7584 46.3742 14.8057C45.9134 14.8652 45.4546 14.932 44.9953 14.9969C46.125 12.9552 47.4717 11.3012 49.6453 10.0203C50.0783 9.76476 50.1563 9.09151 49.646 8.85474ZM18.4341 3.53094C18.7395 3.79136 19.2169 3.74747 19.437 3.41097C21.287 0.583138 24.5331 1.2659 26.1833 3.90353C26.4525 4.33342 27.0223 4.25027 27.3086 3.90353C29.5911 2.51607 31.1707 2.41658 32.0667 3.56898C31.5344 4.61262 31.7574 6.05324 32.0541 7.12102C32.0995 7.28367 32.2041 7.37145 32.3249 7.41046C32.0328 7.6487 31.7482 7.9179 31.4866 8.25099C31.103 7.64114 30.7214 7.0191 30.5265 6.35463C30.4081 5.9501 29.7393 5.70796 29.4233 6.08396C28.4995 7.18394 27.3758 7.94496 26.5972 9.08687C25.614 8.27805 24.2227 7.30098 23.0037 7.80524C21.3963 8.47044 21.8385 10.2017 22.2545 11.4597C22.374 11.8213 22.9157 11.6665 22.8524 11.3066C22.2721 10.0149 22.8154 9.22928 24.4829 8.94959C25.1775 9.31267 25.7978 9.76159 26.3435 10.2966C26.5948 10.5146 27.0693 10.5063 27.2364 10.1898C27.776 9.16832 28.776 8.45264 29.6505 7.65821C30.0142 8.37583 30.4942 9.05225 30.8989 9.74208C31.1255 10.1288 31.8018 10.1437 32.0242 9.74208C32.6694 8.57627 33.4992 7.51361 35.0384 7.43997C37.0862 7.3417 36.8924 9.82694 36.641 11.0281C32.3587 9.45703 25.562 11.9779 27.3217 17.5321C27.1313 17.5479 26.9399 17.5557 26.7492 17.5699C25.4932 15.2775 23.8141 12.2512 21.531 11.7635C21.911 10.4914 21.7067 9.00787 20.9648 7.94009C19.9882 6.5341 18.1316 6.6804 16.6402 7.19442C16.1352 5.95327 15.3992 4.87207 13.9648 4.60628C14.0079 2.28637 16.7264 2.07399 18.4341 3.53094ZM13.5953 16.8883C11.7434 16.576 9.82195 16.2724 7.98318 16.2195C8.13182 15.29 7.99579 14.2878 7.56958 13.4743C7.57667 13.4663 7.57877 13.4541 7.5856 13.4458C9.24763 12.7165 10.9427 12.3351 12.7742 12.7511C13.8451 12.9944 14.6169 13.5838 15.3023 14.2812C14.4427 14.7701 13.7925 15.535 13.5712 16.5826C13.5473 16.6977 13.5638 16.7972 13.5953 16.8883ZM7.7387 12.9157C8.31564 10.8672 10.8109 10.813 12.7471 11.2415C14.5184 11.6333 15.8984 12.5102 17.0546 13.694C16.8296 13.7277 16.6095 13.7767 16.3939 13.8362C14.3382 11.4161 10.6384 11.5158 7.7387 12.9157ZM14.7673 16.8891C15.0089 16.0981 15.479 15.5679 16.1833 15.2529C16.2773 15.3609 16.3713 15.4689 16.4661 15.5762C16.8227 15.9793 17.3776 15.4663 17.1843 15.062C17.172 15.0364 17.1562 15.0147 17.1436 14.9893C17.8687 14.8874 18.5756 15.0198 19.2826 15.1539C19.9202 15.9893 20.4992 16.8647 21.1048 17.7225C20.1347 17.6979 19.1615 17.6547 18.1815 17.567C17.0919 17.4692 15.9036 17.2775 14.6696 17.0693C14.7082 17.0169 14.745 16.962 14.7673 16.8891ZM20.417 15.318C20.4307 15.319 20.4441 15.3214 20.4577 15.3224C21.0494 15.3575 21.2106 14.5921 20.7474 14.33C20.3288 14.0929 19.869 13.921 19.3934 13.8023C19.2836 13.6626 19.1878 13.516 19.0685 13.3812C19.386 13.1422 19.6893 12.9835 19.9866 12.8613C19.9601 13.3275 20.6205 13.3692 20.8661 13.0652C20.9672 12.9403 21.0478 12.8016 21.1308 12.6645C22.0047 12.7379 22.8015 13.3214 23.5546 14.3344C24.3277 15.3738 24.8947 16.5277 25.5131 17.6523C24.249 17.7228 22.9777 17.7486 21.7001 17.7313C21.2697 16.9225 20.8695 16.1059 20.417 15.318ZM4.47477 11.8296C4.24998 11.8496 4.02992 11.8964 3.81564 11.9579C3.81275 11.9571 3.81117 11.9552 3.80828 11.9545C3.23764 11.8006 2.65439 11.6901 2.08795 11.5233C1.22766 11.27 1.12603 10.3683 1.10371 9.57675C2.09163 9.70233 3.08691 9.56602 4.08113 9.88131C4.41569 9.98738 4.6733 9.71428 4.70876 9.43752C4.83113 8.47678 4.94431 6.70088 6.45036 6.96862C7.51995 7.15882 8.35766 8.13443 9.0751 8.81548C9.55908 9.27488 10.2038 8.63626 9.85188 8.14979C11.5777 5.73917 14.7923 4.22321 15.6544 8.13394C15.718 8.42265 16.1279 8.65942 16.4341 8.54482C18.0003 7.95838 19.7067 7.62846 20.3154 9.50653C20.5599 10.2605 20.3684 11.0235 20.1872 11.7799C19.5328 11.9296 18.8359 12.2892 18.0919 12.9232C15.2387 9.90692 7.45928 8.03543 7.07457 12.7696C6.48292 12.1222 5.62 11.7277 4.47477 11.8296ZM46.0967 16.831C42.1479 24.3857 33.2789 27.8468 24.4588 28.0617C15.1415 28.2889 8.06275 24.4192 3.19063 17.4721C3.20849 17.4716 3.22267 17.4833 3.24132 17.4794C5.34216 17.0276 8.54306 17.9954 10.5919 18.2943C13.4291 18.7079 16.2621 19.1405 19.115 19.4504C28.2642 20.4445 37.1219 18.0047 46.0967 16.831ZM32.332 13.5728C34.2264 13.3746 35.6324 14.8691 36.1789 16.3829C34.1789 16.7028 32.1799 17.002 30.1741 17.2388C30.1768 17.2105 30.1799 17.1824 30.1741 17.15C29.8763 15.5838 30.3658 13.7784 32.332 13.5728ZM43.344 15.0981C43.3251 15.1471 43.3291 15.1919 43.3238 15.2385C41.2868 15.5467 39.2605 15.8849 37.2377 16.2139C37.2332 16.1807 37.2382 16.1507 37.2256 16.1154C36.5074 14.0456 34.5166 12.1329 31.9714 12.5958C29.4654 13.0515 28.7939 15.2646 29.6058 17.2948C29.6064 17.2965 29.6079 17.2975 29.6085 17.2992C29.1216 17.3536 28.6353 17.4109 28.1473 17.4567C27.4047 14.5172 29.2395 12.3736 32.348 11.7577C35.5137 11.1303 37.8167 12.7455 38.7766 15.4153C38.9725 15.9598 39.9102 15.8913 39.8879 15.2756C39.827 13.588 39.0097 12.3814 37.8194 11.6094C37.8293 11.5855 37.8467 11.5702 37.8538 11.5436C39.0063 7.45923 35.707 5.41291 32.9622 6.97009C32.9627 6.94204 32.9703 6.91668 32.9659 6.88694C32.8432 6.1242 32.7566 5.36536 32.9331 4.63262C33.3411 4.67431 33.7844 4.26417 33.5494 3.80453C33.515 3.73699 33.4774 3.67993 33.4422 3.61531C34.3509 2.83551 35.9788 5.12567 36.1481 5.35829C36.3913 5.69235 36.8299 5.73966 37.156 5.47899C37.8023 4.96278 38.4423 4.48802 39.0197 3.94498C39.3729 4.78112 39.8821 5.59311 40.292 6.3578C40.4669 6.68406 40.9283 6.74624 41.2471 6.59042C41.8572 6.29221 43.9399 5.13225 44.4134 6.31074C44.6518 6.90449 44.3435 7.70771 44.1757 8.41387C43.6949 8.58773 43.2293 8.81719 42.7994 9.14003C40.7986 10.6423 39.8569 13.0327 40.6334 15.3429C40.7217 15.6057 41.1849 15.5697 41.1663 15.2761C40.9312 11.5894 43.9914 8.58749 47.7553 9.59992C45.7506 11.0105 44.2099 12.852 43.344 15.0981Z" fill="black"/>
</svg>
