<svg width="40" height="40" viewBox="0 0 40 40" fill="none" xmlns="http://www.w3.org/2000/svg">
<path d="M39.5712 26.1728C36.7247 24.5999 33.9024 24.0516 30.7683 24.7994C28.9543 17.0416 27.1212 9.55298 20.6277 4.58605C16.1164 1.13535 8.40432 -2.45906 3.47385 2.27061C-2.09854 7.6161 -0.265678 16.1702 4.05066 21.7785C9.69914 29.1176 17.0783 29.4702 25.3193 30.4966C24.0261 33.4883 24.147 36.8032 26.0561 39.5473C26.3744 40.0048 26.8011 40.1102 27.2908 39.8877C30.5539 38.4066 32.0982 35.2756 32.1301 31.7276C35.27 31.7614 38.3815 30.5444 39.8892 27.4476C40.1014 27.0119 40.0159 26.4186 39.5712 26.1728ZM5.03862 3.0164C8.0589 0.640773 11.9985 1.45569 15.4573 3.23011C15.398 3.34176 15.3538 3.46955 15.3462 3.62961C15.0298 10.285 9.68068 15.5139 3.44669 16.0117C3.17756 16.0333 3.02248 16.2187 2.97189 16.4295C0.876541 11.8041 0.671692 6.4514 5.03862 3.0164ZM31.1956 29.7737C30.7264 29.7306 30.2533 30.2419 30.2869 30.7295C30.4956 33.7703 29.589 36.347 27.1463 37.8351C25.8144 35.4437 25.8295 32.7262 26.4211 30.0058C26.4789 29.7391 26.2915 29.5317 26.0839 29.4931C26.0151 29.3989 25.9286 29.3176 25.808 29.2774C19.439 27.1425 13.0758 27.7996 7.67968 22.9421C5.98843 21.4198 4.40769 19.3455 3.27087 17.0587C3.32436 17.0781 3.37951 17.0957 3.44669 17.0968C10.1932 17.212 17.3434 11.6039 16.9435 4.06509C18.4218 4.96789 19.7616 5.99848 20.8354 6.95427C26.2054 11.7337 27.5867 18.7275 29.1807 25.5491C29.2993 26.0563 29.6984 26.2363 30.0781 26.1806C30.2537 26.5029 30.59 26.7256 31.0314 26.6126C33.4869 25.9855 35.6473 26.2999 37.8466 27.3545C36.315 29.4898 33.7116 30.006 31.1956 29.7737Z" fill="black"/>
<path d="M10.4037 5.41378C10.4443 5.08625 10.3581 4.74279 10.1155 4.51316C9.89614 4.25693 9.6604 4.02491 9.42072 3.7894C9.23308 3.60491 8.99692 3.50373 8.75724 3.48432C8.75372 3.48105 8.75019 3.47821 8.74667 3.47494C7.98823 2.80002 7.01872 3.81993 7.66043 4.6174C7.66333 4.62111 7.66623 4.62481 7.66934 4.62852C7.6878 4.88061 7.784 5.12899 7.95941 5.32634C8.18333 5.57821 8.40394 5.82637 8.64756 6.05665C8.86588 6.312 9.19244 6.4025 9.50386 6.35976C9.72467 6.33643 9.93968 6.24157 10.1157 6.05665C10.2915 5.87172 10.3815 5.64602 10.4037 5.41378Z" fill="black"/>
</svg>
