<svg width="40" height="27" viewBox="0 0 40 27" fill="none" xmlns="http://www.w3.org/2000/svg">
<path d="M39.9572 18.8689C39.7639 17.6531 38.8885 16.6323 37.7838 16.0535C36.7289 15.501 35.3925 15.3799 34.3387 15.9956C33.9313 16.2335 33.6183 16.5793 33.378 16.9741C33.1315 14.7267 31.1422 13.2138 29.2577 11.9497C25.9669 9.74227 23.9114 7.16394 21.2777 4.30011C17.245 -0.0852373 10.5165 -1.61053 5.44239 2.0702C1.55559 4.89004 -0.200996 10.0409 0.0182145 14.5764C0.177396 17.8689 2.91681 23.1239 7.12197 22.0822C7.76718 28.3482 19.3322 27.0083 23.2136 23.9685C24.4601 25.484 27.4045 27.5994 29.1915 25.9666C29.42 25.7574 29.4328 25.4368 29.297 25.1796C29.077 24.7623 28.8203 24.4198 28.5117 24.1253C28.9687 23.9091 29.4099 23.6652 29.8547 23.4168C31.1503 23.5241 32.4945 23.271 33.7893 23.2091C33.4397 23.934 33.312 24.7374 33.6639 25.5111C34.0913 26.4502 35.082 26.9185 36.1015 26.9928C37.0882 27.0642 38.063 26.6015 38.5935 25.8041C39.2474 24.8216 38.9314 23.5828 38.4447 22.5698C39.4706 21.5856 40.186 20.3054 39.9572 18.8689ZM7.11638 21.1213C5.62372 20.4331 4.2329 20.0687 3.13974 18.6579C1.99442 17.1794 1.74706 15.2039 1.72077 13.4218C1.66136 9.38449 3.68953 4.95216 7.19628 2.65297C12.7031 -0.957687 18.3458 3.15051 21.7228 7.25613C23.1821 9.03029 24.4523 10.7617 26.3846 12.0871C28.8534 13.78 31.2948 14.9005 32.0899 17.9495C32.1958 18.3559 32.5682 18.4652 32.8895 18.37C32.8806 18.4355 32.876 18.5008 32.8702 18.5661C31.791 18.5699 30.6003 18.8072 29.5152 19.1228C29.549 18.4915 29.3569 17.9057 28.7201 17.5286C28.1768 17.2067 27.4575 17.2921 26.882 17.4665C26.1588 17.6857 25.1919 18.153 24.7067 18.7811C22.2736 16.3577 18.7114 14.9588 15.2876 14.6246C11.3538 14.2403 7.3772 17.2124 7.11638 21.1213ZM26.9242 23.3234C26.3643 23.4753 26.2283 24.2538 26.7599 24.5331C27.1778 24.7527 27.4771 24.9906 27.7386 25.2939C27.4368 25.3183 27.0861 25.183 26.6005 25.0683C25.4637 24.7999 24.5715 24.0887 23.8277 23.2519C23.8099 23.2318 23.7878 23.2238 23.7683 23.2087C23.758 22.741 23.2266 22.2845 22.742 22.6164C20.0625 24.4519 9.31967 27.3038 8.78292 21.8889C8.37555 17.7793 13.0767 15.9295 16.5044 16.4461C19.8766 16.9542 23.2318 18.8427 25.6293 21.1331C25.9395 21.4296 26.4647 21.0479 26.236 20.6829C26.0389 20.3686 25.8195 20.0703 25.5905 19.7796C26.3552 19.3824 27.1668 18.4927 28.0201 18.7135C28.2699 18.778 28.3157 19.1198 28.2782 19.5274C28.2401 19.5413 28.1985 19.5548 28.161 19.5686C27.6905 19.7428 27.6382 20.4522 28.0555 20.6134C28.0027 20.7958 27.9511 20.9599 27.9147 21.068C27.2529 21.106 27.0381 21.9679 27.7452 22.2222C28.1294 22.3599 28.6094 22.3175 29.0286 22.3816C28.3645 22.7542 27.7112 23.1095 26.9242 23.3234ZM36.1015 25.6604C34.2584 25.6128 34.6134 23.6393 35.1011 22.5121C35.2153 22.248 34.8941 22.0127 34.643 22.0673C34.5322 21.8246 34.3025 21.6348 33.9365 21.6332C32.9135 21.6285 31.8419 21.7837 30.7972 21.9727C30.1724 21.2498 29.6309 21.2004 28.8673 21.1436C28.9663 20.9527 29.0648 20.7447 29.1553 20.528C29.8048 20.4321 30.4529 20.3257 31.1043 20.2417C31.7767 20.1553 32.4536 20.144 33.1267 20.0916C33.4207 20.3584 34.0003 20.3174 34.0924 19.8708C34.3093 19.6819 34.3279 19.3691 34.1988 19.0943C34.2865 18.3672 34.4182 17.6019 35.0663 17.1931C35.6912 16.7991 36.5128 16.9986 37.1288 17.3313C37.8434 17.7172 38.348 18.374 38.5074 19.1451C38.7349 20.2459 37.8161 21.2543 37.0375 21.9207C36.792 22.1308 36.7695 22.5067 36.9235 22.7697C37.5989 23.9207 37.9405 25.7076 36.1015 25.6604Z" fill="black"/>
</svg>
