<svg width="40" height="40" viewBox="0 0 40 40" fill="none" xmlns="http://www.w3.org/2000/svg">
<path d="M31.0382 17.4892C31.1679 17.2934 31.2053 17.0091 31.0282 16.7638C24.4061 7.60282 11.3455 -2.66148 0.378954 0.627899C0.159329 0.693886 0.0298616 0.918289 0.0181112 1.16622C-0.456176 11.2098 8.49269 19.8038 14.1937 26.2906C16.2791 31.6166 20.7522 36.4154 24.8909 38.3712C28.269 39.9678 35.1996 41.1211 38.298 38.2048C39.0498 37.4974 39.3346 36.7339 39.2994 35.9618C39.4399 35.9181 39.5639 35.8041 39.6138 35.5799C41.3518 27.7709 36.9997 20.731 31.0382 17.4892ZM27.0931 14.0404C28.0126 14.9773 28.8909 15.9183 29.719 16.8463C28.6309 16.3747 27.5043 16.0231 26.3603 15.8184C25.9608 15.7468 25.6365 16.3858 26.0623 16.6211C28.3008 17.8574 30.0909 19.667 31.2969 21.8785C31.22 21.8047 31.1164 21.7635 30.9916 21.7965C30.0911 22.032 29.3607 22.6157 28.7832 23.3787C28.0555 22.4267 27.3093 21.4986 26.5412 20.599C27.0574 20.0144 27.5883 19.4231 28.081 18.7696C28.298 18.4819 28.0237 18.0195 27.7133 18.2286C27.0668 18.6636 26.4462 19.2075 25.8798 19.8305C25.0327 18.8683 24.1587 17.9423 23.2674 17.0408C24.3213 15.9557 25.5147 15.0418 26.8758 14.3781C27.0279 14.3039 27.0873 14.1758 27.0931 14.0404ZM32.57 28.8493C31.5405 27.1872 30.4522 25.5975 29.3154 24.0696C29.8852 23.4294 30.5836 23.0235 31.263 22.5252C31.4012 22.4236 31.4429 22.2661 31.4206 22.1218C32.5237 24.246 33.1018 26.7227 33.0236 29.4165C33.0221 29.4157 33.0204 29.415 33.0191 29.4143C32.8706 29.3468 32.7166 29.2925 32.5662 29.2292C32.6384 29.1304 32.6587 28.9924 32.57 28.8493ZM27.1803 27.6528C24.167 27.0026 21.119 26.4786 18.4899 25.0868C18.7369 24.4304 19.0037 23.7812 19.2913 23.1441C20.5599 24.0885 21.8526 24.9779 23.1665 25.7773C23.1527 25.9488 23.1354 26.1198 23.1321 26.2923C23.124 26.7474 23.7323 26.7426 23.7511 26.2923C23.7532 26.2399 23.762 26.1936 23.7652 26.1419C24.282 26.4432 24.8013 26.7324 25.3241 27C25.5675 27.1249 25.8785 26.7661 25.6339 26.5436C25.075 26.0347 24.4963 25.5507 23.9102 25.0757C24.2377 23.524 25.0276 22.3724 25.9512 21.2793C26.7622 22.1888 27.5494 23.1269 28.3158 24.0898C27.7135 25.1468 27.3409 26.409 27.1779 27.5732C27.1736 27.6018 27.179 27.6263 27.1803 27.6528ZM15.6536 22.7184C15.745 21.9813 15.8886 21.2868 16.0668 20.6206C16.9403 21.3338 17.8255 22.0408 18.7251 22.7244C18.4384 23.3942 18.1741 24.0762 17.9304 24.7644C17.0762 24.2574 16.2665 23.6577 15.5294 22.9049C15.592 22.8722 15.6418 22.8132 15.6536 22.7184ZM4.90007 9.27432C4.48902 7.83086 4.57533 6.48906 5.231 5.27534C6.44171 5.91823 7.63662 6.5992 8.81978 7.30418C7.92888 8.62489 7.30654 10.1525 7.10422 11.7333C6.35369 11.014 5.62111 10.2726 4.90071 9.51643C4.91951 9.44511 4.92635 9.36651 4.90007 9.27432ZM9.63653 7.7872C10.8212 8.51135 11.9853 9.27602 13.1354 10.0654C12.0065 11.4283 11.1226 13.044 10.5039 14.8092C9.55278 13.9914 8.61703 13.1513 7.69751 12.2888C7.88487 10.5717 8.56575 9.11299 9.63653 7.7872ZM14.0493 10.693C15.5681 11.768 17.0487 12.9072 18.4918 14.1023C17.3176 15.5462 16.399 17.2599 15.814 19.1068C15.5359 18.897 15.2562 18.6881 14.9819 18.4736C13.6695 17.446 12.3675 16.3895 11.0842 15.3026C11.8353 13.5154 12.8211 11.9863 14.0493 10.693ZM19.2949 14.7801C20.2069 15.5581 21.1062 16.3543 21.9821 17.183C20.9075 18.4947 20.004 19.9974 19.2394 21.5946C18.2869 20.9183 17.3352 20.2424 16.3992 19.5491C17.0561 17.6929 18.0496 16.1185 19.2949 14.7801ZM22.5933 17.7815C23.5124 18.6733 24.4127 19.5893 25.2861 20.5398C24.373 21.7273 23.6701 23.133 23.3398 24.6176C22.1955 23.7174 21.0173 22.861 19.8318 22.0163C20.6086 20.478 21.5196 19.0364 22.5933 17.7815ZM27.7513 27.7527C27.9487 26.6654 28.2762 25.6397 28.8317 24.7312C29.8737 26.0752 30.8677 27.4738 31.8155 28.9225C30.5007 28.4356 29.1289 28.0851 27.7428 27.776C27.7451 27.7673 27.7498 27.7622 27.7513 27.7527ZM24.1014 11.1528C24.9496 11.9252 25.7657 12.7151 26.5598 13.5093C26.5214 13.5159 26.4836 13.5183 26.4436 13.5377C24.9994 14.2481 23.7474 15.2379 22.6529 16.4147C21.8103 15.5848 20.9462 14.7857 20.0672 14.0076C21.2457 12.9096 22.5963 11.9786 24.0632 11.1855C24.0792 11.177 24.0873 11.1629 24.1014 11.1528ZM19.193 7.12588C20.6176 8.15813 21.9968 9.28014 23.3206 10.4475C21.7868 11.0569 20.4037 12.0402 19.2227 13.2745C17.8229 12.0766 16.3821 10.9388 14.9003 9.86577C16.1138 8.78403 17.5234 7.88715 19.1409 7.16275C19.162 7.15378 19.1744 7.13728 19.193 7.12588ZM13.6735 3.74479C15.1987 4.50121 16.697 5.39834 18.1545 6.39469C16.5515 7.00628 15.1366 7.96793 13.9344 9.18116C12.7978 8.38738 11.6418 7.62514 10.4629 6.90123C11.4929 5.94903 12.6942 5.24211 13.6193 4.17492C13.7237 4.05459 13.7284 3.88259 13.6735 3.74479ZM8.81358 1.87315C10.3193 2.27198 11.8131 2.84403 13.2838 3.54756C11.9095 4.09001 10.6035 5.08636 9.54082 6.34981C8.34527 5.63997 7.13285 4.95948 5.89863 4.31781C6.70984 3.42408 7.75455 3.0432 8.71509 2.3894C8.87746 2.27853 8.89989 2.03351 8.81358 1.87315ZM4.33092 1.22639C5.6664 1.24798 7.00231 1.43575 8.33096 1.75477C6.97155 1.92604 5.83946 2.75111 5.05816 3.89351C3.73785 3.2283 2.40108 2.59294 1.04189 2.00246C1.01091 1.98887 0.985059 1.99275 0.956004 1.98645C0.981855 0.951525 3.70644 1.2162 4.33092 1.22639ZM14.003 20.984C13.8667 20.3091 13.7607 19.6398 13.6932 18.9828C13.6564 18.626 13.1384 18.4637 13.0854 18.8894C13.0589 19.1019 13.0407 19.3154 13.0258 19.5294C12.8021 19.5068 12.5532 19.7123 12.6545 19.9991C12.7636 20.3077 12.8826 20.6 13.0057 20.8853C13.0499 22.1143 13.2747 23.3547 13.6259 24.5815C10.8814 21.1201 8.02246 17.7866 5.53395 14.0693C3.9203 11.6591 2.53739 9.06423 1.60356 6.2222C1.28117 5.24065 1.10171 4.2181 1.01497 3.18221C2.18637 3.72636 3.34731 4.3018 4.4997 4.8998C4.00618 6.00702 3.8013 7.28017 3.96111 8.5179C3.50605 8.01863 3.0574 7.51209 2.61836 6.99536C2.49402 6.84883 2.31306 7.06401 2.4248 7.21515C2.97536 7.95944 3.54942 8.67462 4.13394 9.3767C4.14569 9.41915 4.15296 9.46233 4.16578 9.50455C4.22175 9.68892 4.3493 9.77674 4.48346 9.79542C5.30642 10.7624 6.15842 11.6935 7.03607 12.5931C7.02774 12.8953 7.03201 13.1981 7.05765 13.5011C7.09269 13.9181 7.65222 13.9344 7.64089 13.5011C7.63833 13.4011 7.64559 13.3068 7.64623 13.2088C8.48863 14.0486 9.35089 14.864 10.2302 15.6585C9.91769 16.7257 9.69422 17.8375 9.58483 18.9833C9.56283 19.2131 9.88927 19.256 9.93542 19.0374C10.1538 18.0025 10.4347 17.0413 10.7646 16.1355C11.4074 16.7065 12.0554 17.2715 12.7124 17.8254C13.6293 18.5986 14.5659 19.3875 15.5175 20.1725C15.3352 20.9311 15.2086 21.7067 15.1436 22.491C14.7407 22.0359 14.3578 21.5396 14.003 20.984ZM27.5516 37.8613C21.7413 36.5981 16.8513 30.2321 14.7304 23.7322C20.1305 30.236 31.0162 27.5604 36.8878 33.7163C41.9265 38.9993 29.676 38.3234 27.5516 37.8613ZM38.7659 34.2772C37.725 32.4283 35.4019 30.728 33.8427 29.8425C33.9171 29.7566 33.9713 29.6433 33.9752 29.4905C34.1057 24.588 31.9759 20.3324 28.6747 17.4751C34.9566 20.0498 39.4848 26.3995 38.7659 34.2772Z" fill="black"/>
</svg>
