<svg width="11" height="11" viewBox="0 0 11 11" fill="none" xmlns="http://www.w3.org/2000/svg">
<path d="M6.63991 5.31413L10.3508 1.60319C10.527 1.42738 10.626 1.18881 10.6263 0.939955C10.6265 0.691103 10.5278 0.452356 10.352 0.276236C10.1762 0.100115 9.93763 0.00104857 9.68878 0.000828803C9.43993 0.000609033 9.20118 0.0992543 9.02506 0.275064L5.31413 3.986L1.60319 0.275064C1.42707 0.0989435 1.1882 0 0.939126 0C0.690055 0 0.451184 0.0989435 0.275064 0.275064C0.0989435 0.451184 0 0.690055 0 0.939126C0 1.1882 0.0989435 1.42707 0.275064 1.60319L3.986 5.31413L0.275064 9.02506C0.0989435 9.20118 0 9.44005 0 9.68913C0 9.9382 0.0989435 10.1771 0.275064 10.3532C0.451184 10.5293 0.690055 10.6283 0.939126 10.6283C1.1882 10.6283 1.42707 10.5293 1.60319 10.3532L5.31413 6.64225L9.02506 10.3532C9.20118 10.5293 9.44005 10.6283 9.68913 10.6283C9.9382 10.6283 10.1771 10.5293 10.3532 10.3532C10.5293 10.1771 10.6283 9.9382 10.6283 9.68913C10.6283 9.44005 10.5293 9.20118 10.3532 9.02506L6.63991 5.31413Z" fill="black"/>
</svg>
