<svg width="25" height="25" viewBox="0 0 25 25" fill="none" xmlns="http://www.w3.org/2000/svg">
<path d="M5.07813 7.8125C4.53732 7.8125 4.00865 7.65213 3.55899 7.35168C3.10932 7.05122 2.75885 6.62417 2.55189 6.12453C2.34493 5.62488 2.29079 5.07509 2.39629 4.54468C2.5018 4.01426 2.76222 3.52704 3.14463 3.14463C3.52704 2.76222 4.01426 2.5018 4.54468 2.39629C5.07509 2.29079 5.62488 2.34493 6.12453 2.55189C6.62417 2.75885 7.05122 3.10932 7.35168 3.55899C7.65213 4.00865 7.8125 4.53732 7.8125 5.07813C7.81173 5.80309 7.52339 6.49814 7.01077 7.01077C6.49814 7.52339 5.80309 7.81173 5.07813 7.8125Z" fill="black"/>
<path d="M12.5 7.8125C11.9592 7.8125 11.4305 7.65213 10.9809 7.35168C10.5312 7.05122 10.1807 6.62417 9.97377 6.12453C9.76681 5.62488 9.71266 5.07509 9.81817 4.54468C9.92367 4.01426 10.1841 3.52704 10.5665 3.14463C10.9489 2.76222 11.4361 2.5018 11.9666 2.39629C12.497 2.29079 13.0468 2.34493 13.5464 2.55189C14.046 2.75885 14.4731 3.10932 14.7736 3.55899C15.074 4.00865 15.2344 4.53732 15.2344 5.07813C15.2336 5.80309 14.9453 6.49814 14.4326 7.01077C13.92 7.52339 13.225 7.81173 12.5 7.8125Z" fill="black"/>
<path d="M19.9219 7.8125C19.3811 7.8125 18.8524 7.65213 18.4027 7.35168C17.9531 7.05122 17.6026 6.62417 17.3956 6.12453C17.1887 5.62488 17.1345 5.07509 17.24 4.54468C17.3455 4.01426 17.606 3.52704 17.9884 3.14463C18.3708 2.76222 18.858 2.5018 19.3884 2.39629C19.9188 2.29079 20.4686 2.34493 20.9683 2.55189C21.4679 2.75885 21.895 3.10932 22.1954 3.55899C22.4959 4.00865 22.6563 4.53732 22.6563 5.07813C22.6555 5.80309 22.3671 6.49814 21.8545 7.01077C21.3419 7.52339 20.6468 7.81173 19.9219 7.8125Z" fill="black"/>
<path d="M5.07813 15.2344C4.53732 15.2344 4.00865 15.074 3.55899 14.7736C3.10932 14.4731 2.75885 14.046 2.55189 13.5464C2.34493 13.0468 2.29079 12.497 2.39629 11.9666C2.5018 11.4361 2.76222 10.9489 3.14463 10.5665C3.52704 10.1841 4.01426 9.92367 4.54468 9.81817C5.07509 9.71266 5.62488 9.76681 6.12453 9.97377C6.62417 10.1807 7.05122 10.5312 7.35168 10.9809C7.65213 11.4305 7.8125 11.9592 7.8125 12.5C7.81173 13.225 7.52339 13.92 7.01077 14.4326C6.49814 14.9453 5.80309 15.2336 5.07813 15.2344Z" fill="black"/>
<path d="M12.5 15.2344C11.9592 15.2344 11.4305 15.074 10.9809 14.7736C10.5312 14.4731 10.1807 14.046 9.97377 13.5464C9.76681 13.0468 9.71266 12.497 9.81817 11.9666C9.92367 11.4361 10.1841 10.9489 10.5665 10.5665C10.9489 10.1841 11.4361 9.92367 11.9666 9.81817C12.497 9.71266 13.0468 9.76681 13.5464 9.97377C14.046 10.1807 14.4731 10.5312 14.7736 10.9809C15.074 11.4305 15.2344 11.9592 15.2344 12.5C15.2336 13.225 14.9453 13.92 14.4326 14.4326C13.92 14.9453 13.225 15.2336 12.5 15.2344Z" fill="black"/>
<path d="M19.9219 15.2344C19.3811 15.2344 18.8524 15.074 18.4027 14.7736C17.9531 14.4731 17.6026 14.046 17.3956 13.5464C17.1887 13.0468 17.1345 12.497 17.24 11.9666C17.3455 11.4361 17.606 10.9489 17.9884 10.5665C18.3708 10.1841 18.858 9.92367 19.3884 9.81817C19.9188 9.71266 20.4686 9.76681 20.9683 9.97377C21.4679 10.1807 21.895 10.5312 22.1954 10.9809C22.4959 11.4305 22.6563 11.9592 22.6563 12.5C22.6555 13.225 22.3671 13.92 21.8545 14.4326C21.3419 14.9453 20.6468 15.2336 19.9219 15.2344Z" fill="black"/>
<path d="M5.07813 22.6563C4.53732 22.6563 4.00865 22.4959 3.55899 22.1954C3.10932 21.895 2.75885 21.4679 2.55189 20.9683C2.34493 20.4686 2.29079 19.9188 2.39629 19.3884C2.5018 18.858 2.76222 18.3708 3.14463 17.9884C3.52704 17.606 4.01426 17.3455 4.54468 17.24C5.07509 17.1345 5.62488 17.1887 6.12453 17.3956C6.62417 17.6026 7.05122 17.9531 7.35168 18.4027C7.65213 18.8524 7.8125 19.3811 7.8125 19.9219C7.81173 20.6468 7.52339 21.3419 7.01077 21.8545C6.49814 22.3671 5.80309 22.6555 5.07813 22.6563Z" fill="black"/>
<path d="M12.5 22.6563C11.9592 22.6563 11.4305 22.4959 10.9809 22.1954C10.5312 21.895 10.1807 21.4679 9.97377 20.9683C9.76681 20.4686 9.71266 19.9188 9.81817 19.3884C9.92367 18.858 10.1841 18.3708 10.5665 17.9884C10.9489 17.606 11.4361 17.3455 11.9666 17.24C12.497 17.1345 13.0468 17.1887 13.5464 17.3956C14.046 17.6026 14.4731 17.9531 14.7736 18.4027C15.074 18.8524 15.2344 19.3811 15.2344 19.9219C15.2336 20.6468 14.9453 21.3419 14.4326 21.8545C13.92 22.3671 13.225 22.6555 12.5 22.6563Z" fill="black"/>
<path d="M19.9219 22.6563C19.3811 22.6563 18.8524 22.4959 18.4027 22.1954C17.9531 21.895 17.6026 21.4679 17.3956 20.9683C17.1887 20.4686 17.1345 19.9188 17.24 19.3884C17.3455 18.858 17.606 18.3708 17.9884 17.9884C18.3708 17.606 18.858 17.3455 19.3884 17.24C19.9188 17.1345 20.4686 17.1887 20.9683 17.3956C21.4679 17.6026 21.895 17.9531 22.1954 18.4027C22.4959 18.8524 22.6563 19.3811 22.6563 19.9219C22.6555 20.6468 22.3671 21.3419 21.8545 21.8545C21.3419 22.3671 20.6468 22.6555 19.9219 22.6563Z" fill="black"/>
</svg>
