<svg width="43" height="43" viewBox="0 0 43 43" fill="none" xmlns="http://www.w3.org/2000/svg">
<g clip-path="url(#clip0_114_6)">
<path d="M5.72714 19.959C6.7334 23.4975 8.49852 27.0273 10.6989 29.8987C12.9641 32.8548 15.9076 35.489 18.9876 37.3188C20.0939 37.9696 20.8931 37.6148 21.2716 37.0664L21.6 36.5143C21.6643 36.4061 21.7061 36.2861 21.723 36.1614C21.7399 36.0367 21.7315 35.9099 21.6983 35.7885C21.6652 35.6671 21.6079 35.5537 21.53 35.4549C21.4521 35.3561 21.355 35.274 21.2447 35.2135C20.6384 34.8808 19.9016 34.4762 19.7346 34.3776C17.3164 32.9819 14.9574 30.8321 12.9156 28.1676C10.8674 25.4947 9.49313 22.8111 8.71399 19.9631C8.64018 19.6933 8.48226 19.0422 8.3143 18.3375C8.28515 18.2151 8.23166 18.0998 8.15702 17.9985C8.08237 17.8972 7.9881 17.812 7.87982 17.7479C7.77153 17.6838 7.65146 17.6422 7.52674 17.6255C7.40202 17.6088 7.27522 17.6173 7.15389 17.6507L6.59715 17.8027L6.54318 17.8189C5.94537 18.0224 5.37314 18.7052 5.72714 19.959Z" fill="black"/>
<path d="M10.287 18.8743C11.0564 21.6442 12.5621 24.6235 14.4196 27.0476C16.2956 29.4924 18.609 31.5677 21.2424 33.1682C21.2711 33.1854 21.3568 33.2327 21.4827 33.3007C21.5916 33.3596 21.7111 33.3963 21.8343 33.4088C21.9574 33.4212 22.0819 33.4092 22.2003 33.3733C22.3188 33.3374 22.429 33.2784 22.5246 33.1997C22.6201 33.121 22.6992 33.0242 22.7571 32.9148C23.0196 32.4183 23.3785 31.7432 23.7809 30.9861C25.9599 26.8869 30.0085 19.2617 31.7063 15.8901C31.8653 15.5764 31.9322 15.224 31.8991 14.8739C31.866 14.5237 31.7342 14.1902 31.5192 13.9119C31.306 13.6314 31.0175 13.4173 30.6874 13.2944C30.3572 13.1715 29.9989 13.145 29.6543 13.2179L29.6461 13.2198L10.9132 17.4392C10.7902 17.4664 10.674 17.5181 10.5716 17.5913C10.4692 17.6645 10.3826 17.7577 10.3171 17.8652C10.2515 17.9727 10.2084 18.0923 10.1903 18.2169C10.1722 18.3415 10.1795 18.4685 10.2117 18.5902C10.2481 18.7292 10.274 18.8266 10.2851 18.8661L10.287 18.8743ZM21.8164 25.9178C22.0675 26.2047 22.2252 26.5613 22.2684 26.9401C22.3116 27.3189 22.2384 27.7019 22.0584 28.0379C21.8784 28.374 21.6002 28.6472 21.261 28.8212C20.9217 28.9951 20.5375 29.0615 20.1596 29.0115C19.7816 28.9615 19.4279 28.7975 19.1455 28.5413C18.8632 28.2851 18.6657 27.9489 18.5793 27.5776C18.4929 27.2063 18.5218 26.8174 18.662 26.4629C18.8023 26.1084 19.0473 25.8051 19.3643 25.5934C19.7428 25.3406 20.2003 25.2342 20.6515 25.2939C21.1026 25.3536 21.5167 25.5754 21.8164 25.9178ZM25.4887 18.3794C25.7398 18.6663 25.8974 19.0229 25.9407 19.4017C25.9839 19.7805 25.9106 20.1635 25.7306 20.4996C25.5506 20.8356 25.2725 21.1089 24.9332 21.2828C24.594 21.4567 24.2097 21.5231 23.8318 21.4731C23.4538 21.4231 23.1001 21.2591 22.8178 21.0029C22.5354 20.7467 22.3379 20.4105 22.2515 20.0392C22.1651 19.6679 22.194 19.279 22.3342 18.9245C22.4745 18.57 22.7195 18.2667 23.0365 18.055C23.415 17.8023 23.8725 17.6958 24.3237 17.7555C24.7749 17.8152 25.1889 18.037 25.4887 18.3794ZM17.9988 19.3945C18.2499 19.6814 18.4075 20.038 18.4507 20.4167C18.494 20.7955 18.4207 21.1785 18.2407 21.5146C18.0607 21.8507 17.7826 22.1239 17.4433 22.2978C17.1041 22.4718 16.7198 22.5382 16.3419 22.4881C15.9639 22.4381 15.6102 22.2741 15.3279 22.0179C15.0455 21.7617 14.848 21.4255 14.7616 21.0542C14.6752 20.6829 14.7041 20.2941 14.8443 19.9395C14.9846 19.585 15.2296 19.2817 15.5466 19.07C15.9251 18.8173 16.3826 18.7108 16.8338 18.7705C17.285 18.8302 17.699 19.052 17.9988 19.3945Z" fill="black"/>
</g>
<defs>
<clipPath id="clip0_114_6">
<rect width="30" height="30" fill="white" transform="translate(18.3186 42.9249) rotate(-127.462)"/>
</clipPath>
</defs>
</svg>
