<svg width="30" height="30" viewBox="0 0 30 30" fill="none" xmlns="http://www.w3.org/2000/svg">
<path d="M24.375 3.75H5.625C4.63077 3.75109 3.67757 4.14652 2.97455 4.84955C2.27152 5.55257 1.87609 6.50577 1.875 7.5V22.5C1.87609 23.4942 2.27152 24.4474 2.97455 25.1505C3.67757 25.8535 4.63077 26.2489 5.625 26.25H24.375C25.3692 26.2489 26.3224 25.8535 27.0255 25.1505C27.7285 24.4474 28.1239 23.4942 28.125 22.5V7.5C28.1239 6.50577 27.7285 5.55257 27.0255 4.84955C26.3224 4.14652 25.3692 3.75109 24.375 3.75ZM19.6875 7.5C20.2438 7.5 20.7875 7.66495 21.25 7.97399C21.7126 8.28303 22.073 8.72229 22.2859 9.2362C22.4988 9.75012 22.5545 10.3156 22.446 10.8612C22.3374 11.4068 22.0696 11.9079 21.6762 12.3012C21.2829 12.6946 20.7818 12.9624 20.2362 13.071C19.6906 13.1795 19.1251 13.1238 18.6112 12.9109C18.0973 12.698 17.658 12.3376 17.349 11.875C17.0399 11.4125 16.875 10.8688 16.875 10.3125C16.8758 9.56682 17.1723 8.8519 17.6996 8.32462C18.2269 7.79734 18.9418 7.50078 19.6875 7.5ZM5.625 24.375C5.12772 24.375 4.65081 24.1775 4.29917 23.8258C3.94754 23.4742 3.75 22.9973 3.75 22.5V18.5373L9.30703 13.5979C9.84319 13.1223 10.5405 12.8691 11.2568 12.8898C11.9732 12.9105 12.6547 13.2035 13.1625 13.7092L16.9682 17.5066L10.0998 24.375H5.625ZM26.25 22.5C26.25 22.9973 26.0525 23.4742 25.7008 23.8258C25.3492 24.1775 24.8723 24.375 24.375 24.375H12.7518L19.8662 17.2605C20.3699 16.8322 21.0091 16.5962 21.6704 16.5945C22.3316 16.5928 22.972 16.8254 23.4779 17.2512L26.25 19.5609V22.5Z" fill="black" fill-opacity="0.65"/>
</svg>
