<svg width="25" height="25" viewBox="0 0 25 25" fill="none" xmlns="http://www.w3.org/2000/svg">
<g clip-path="url(#clip0_117_131)">
<path d="M15.7227 20.3125C15.7227 22.0386 14.7144 23.4375 12.9883 23.4375H6.54303C4.81696 23.4375 3.80865 22.0386 3.80865 20.3125" stroke="white" stroke-width="2" stroke-miterlimit="10" stroke-linecap="round"/>
<path d="M16.4063 16.4062C17.2691 16.4062 17.9688 17.2808 17.9688 18.3594C17.9688 19.438 17.2691 20.3125 16.4063 20.3125H3.12506C2.26227 20.3125 1.56256 19.438 1.56256 18.3594C1.56256 17.2808 2.26227 16.4062 3.12506 16.4062" stroke="white" stroke-width="2" stroke-miterlimit="10" stroke-linecap="round"/>
<path d="M16.7969 16.4062H8.75543C8.65197 16.4063 8.55275 16.4474 8.47955 16.5205L7.16949 17.8306C7.15136 17.8487 7.12981 17.8631 7.1061 17.873C7.08239 17.8828 7.05698 17.8878 7.03131 17.8878C7.00564 17.8878 6.98023 17.8828 6.95652 17.873C6.93281 17.8631 6.91127 17.8487 6.89313 17.8306L5.58307 16.5205C5.50987 16.4474 5.41065 16.4063 5.30719 16.4062H2.73444C2.42364 16.4062 2.12556 16.2828 1.9058 16.063C1.68603 15.8432 1.56256 15.5452 1.56256 15.2344C1.56256 14.9236 1.68603 14.6255 1.9058 14.4057C2.12556 14.186 2.42364 14.0625 2.73444 14.0625H16.7969C17.1077 14.0625 17.4058 14.186 17.6256 14.4057C17.8453 14.6255 17.9688 14.9236 17.9688 15.2344C17.9688 15.5452 17.8453 15.8432 17.6256 16.063C17.4058 16.2828 17.1077 16.4062 16.7969 16.4062Z" stroke="white" stroke-width="2" stroke-miterlimit="10" stroke-linecap="round"/>
<path d="M3.12506 13.4766V13.4658C3.12506 10.7803 5.32233 9.375 8.00787 9.375H11.5235C14.209 9.375 16.4063 10.791 16.4063 13.4766V13.4658" stroke="white" stroke-width="2" stroke-miterlimit="10" stroke-linecap="round"/>
<path d="M11.7676 5.46875L12.1309 8.59229" stroke="white" stroke-width="2" stroke-miterlimit="10" stroke-linecap="round"/>
<path d="M12.5001 23.4375H19.3023C19.6965 23.4375 20.0761 23.2885 20.3651 23.0204C20.654 22.7522 20.831 22.3848 20.8604 21.9917L22.6075 5.46875" stroke="white" stroke-miterlimit="10" stroke-linecap="round"/>
<path d="M17.9688 5.46875L18.7501 2.34375L21.045 1.5625" stroke="white" stroke-width="2" stroke-linecap="round" stroke-linejoin="round"/>
<path d="M10.9376 5.46875H23.4376" stroke="white" stroke-width="2" stroke-miterlimit="10" stroke-linecap="round"/>
</g>
<defs>
<clipPath id="clip0_117_131">
<rect width="25" height="25" fill="white"/>
</clipPath>
</defs>
</svg>
