<svg width="42" height="42" viewBox="0 0 42 42" fill="none" xmlns="http://www.w3.org/2000/svg">
<g clip-path="url(#clip0_117_126)">
<path d="M28.3347 28.6685L29.3824 27.2716C32.8535 22.6437 31.9069 16.07 27.2682 12.5908C26.0075 11.6428 24.5492 10.9914 23.0018 10.685C21.4545 10.3787 19.8579 10.4253 18.3311 10.8214M13.6421 13.3105L12.5945 14.7074C9.11954 19.3404 10.0663 25.91 14.7069 29.3905C15.9665 30.3324 17.4205 30.9815 18.9628 31.2903C20.505 31.5991 22.0968 31.56 23.622 31.1757" stroke="white" stroke-width="2" stroke-linecap="round" stroke-linejoin="round"/>
<path d="M10.5002 13.1249L14.1096 12.6093L14.7189 16.289" stroke="white" stroke-width="2" stroke-linecap="round" stroke-linejoin="round"/>
<path d="M31.5 28.8752L27.8906 29.3908L27.2812 25.7111" stroke="white" stroke-width="2" stroke-linecap="round" stroke-linejoin="round"/>
</g>
<defs>
<clipPath id="clip0_117_126">
<rect width="30" height="30" fill="white" transform="translate(18.0004) rotate(36.8708)"/>
</clipPath>
</defs>
</svg>
