<svg width="42" height="42" viewBox="0 0 42 42" fill="none" xmlns="http://www.w3.org/2000/svg">
<g clip-path="url(#clip0_114_39)">
<path d="M28.3349 28.6685L29.3825 27.2716C32.8536 22.6437 31.9071 16.07 27.2684 12.5908C26.0076 11.6428 24.5493 10.9914 23.0019 10.685C21.4546 10.3787 19.8581 10.4253 18.3312 10.8214M13.6423 13.3105L12.5946 14.7074C9.11966 19.3404 10.0664 25.91 14.707 29.3905C15.9667 30.3324 17.4206 30.9815 18.9629 31.2903C20.5052 31.5991 22.0969 31.56 23.6221 31.1757" stroke="black" stroke-width="2" stroke-linecap="round" stroke-linejoin="round"/>
<path d="M10.5002 13.1249L14.1096 12.6093L14.7189 16.289" stroke="black" stroke-width="2" stroke-linecap="round" stroke-linejoin="round"/>
<path d="M31.5 28.8752L27.8906 29.3908L27.2812 25.7111" stroke="black" stroke-width="2" stroke-linecap="round" stroke-linejoin="round"/>
</g>
<defs>
<clipPath id="clip0_114_39">
<rect width="30" height="30" fill="white" transform="translate(18.0004) rotate(36.8708)"/>
</clipPath>
</defs>
</svg>
