<svg width="30" height="30" viewBox="0 0 30 30" fill="none" xmlns="http://www.w3.org/2000/svg">
<path d="M26.7854 16.1538C26.121 16.1548 25.4731 16.3771 24.9306 16.7903C24.3882 17.2034 23.9776 17.7872 23.7553 18.4615H21.129L19.2306 12.3273C19.1582 12.0936 19.0182 11.891 18.8312 11.7491C18.6441 11.6072 18.4198 11.5336 18.1911 11.5389C17.9624 11.5442 17.7412 11.6282 17.56 11.7787C17.3789 11.9291 17.2471 12.1381 17.1842 12.3749L14.2036 23.6077L10.6994 0.963359C10.6588 0.701912 10.5358 0.463507 10.3512 0.288231C10.1665 0.112955 9.93143 0.0114976 9.68548 0.000919566C9.43953 -0.00965843 9.19769 0.0712878 9.00064 0.230147C8.8036 0.389007 8.66335 0.61609 8.60348 0.873215L4.52071 18.4615H1.07142C0.78726 18.4615 0.51474 18.5831 0.313811 18.7995C0.112881 19.0158 0 19.3093 0 19.6153C0 19.9214 0.112881 20.2149 0.313811 20.4312C0.51474 20.6476 0.78726 20.7692 1.07142 20.7692H5.35708C5.59601 20.7692 5.82806 20.6831 6.01637 20.5248C6.20467 20.3664 6.33842 20.1448 6.39636 19.8952L9.43249 6.81554L12.8717 29.0358C12.9114 29.2945 13.0317 29.531 13.2128 29.7063C13.3939 29.8815 13.6251 29.9851 13.8682 30C13.8882 30 13.9083 30 13.9291 30C14.1617 29.9998 14.388 29.9181 14.5736 29.7671C14.7593 29.6162 14.8943 29.4043 14.9583 29.1635L18.2931 16.5951L19.3404 19.9803C19.4115 20.21 19.548 20.4098 19.7304 20.5514C19.9129 20.693 20.132 20.7692 20.3569 20.7692H23.7553C23.9518 21.3675 24.2971 21.8962 24.7537 22.2974C25.2103 22.6986 25.7605 22.9569 26.3442 23.0441C26.9279 23.1313 27.5227 23.0439 28.0634 22.7917C28.6041 22.5394 29.0701 22.1319 29.4103 21.6137C29.7505 21.0955 29.9518 20.4866 29.9924 19.8535C30.0329 19.2204 29.9111 18.5874 29.6401 18.0238C29.3692 17.4603 28.9596 16.9877 28.4561 16.6579C27.9527 16.3281 27.3747 16.1537 26.7854 16.1538Z" fill="white"/>
</svg>
