<svg width="25" height="25" viewBox="0 0 25 25" fill="none" xmlns="http://www.w3.org/2000/svg">
<path d="M14.0625 12.5C16.6401 12.5 18.9175 10.0728 19.1406 7.08887C19.2515 5.58984 18.7812 4.19189 17.8164 3.15332C16.8618 2.12744 15.5273 1.5625 14.0625 1.5625C12.5859 1.5625 11.2505 2.12402 10.3027 3.14355C9.34423 4.17432 8.87694 5.5752 8.98437 7.08789C9.2036 10.0723 11.4805 12.5 14.0625 12.5Z" fill="white"/>
<path d="M24.1885 21.4727C23.7764 19.1865 22.4898 17.2661 20.4683 15.9185C18.6729 14.7217 16.398 14.0625 14.0625 14.0625C11.7271 14.0625 9.45217 14.7217 7.65676 15.918C5.63528 17.2656 4.34866 19.186 3.93655 21.4722C3.84231 21.9961 3.97024 22.5142 4.28762 22.8936C4.43158 23.0664 4.61233 23.205 4.81668 23.2991C5.02103 23.3932 5.24382 23.4405 5.46878 23.4375H22.6563C22.8814 23.4407 23.1043 23.3936 23.3088 23.2995C23.5134 23.2055 23.6943 23.067 23.8384 22.894C24.1548 22.5146 24.2827 21.9966 24.1885 21.4727Z" fill="white"/>
<path d="M5.07812 14.0625V12.1094H7.03125C7.23845 12.1094 7.43716 12.0271 7.58368 11.8806C7.73019 11.734 7.8125 11.5353 7.8125 11.3281C7.8125 11.1209 7.73019 10.9222 7.58368 10.7757C7.43716 10.6292 7.23845 10.5469 7.03125 10.5469H5.07812V8.59375C5.07812 8.38655 4.99581 8.18784 4.8493 8.04132C4.70279 7.89481 4.50408 7.8125 4.29688 7.8125C4.08967 7.8125 3.89096 7.89481 3.74445 8.04132C3.59794 8.18784 3.51562 8.38655 3.51562 8.59375V10.5469H1.5625C1.3553 10.5469 1.15659 10.6292 1.01007 10.7757C0.86356 10.9222 0.78125 11.1209 0.78125 11.3281C0.78125 11.5353 0.86356 11.734 1.01007 11.8806C1.15659 12.0271 1.3553 12.1094 1.5625 12.1094H3.51562V14.0625C3.51562 14.2697 3.59794 14.4684 3.74445 14.6149C3.89096 14.7614 4.08967 14.8438 4.29688 14.8438C4.50408 14.8438 4.70279 14.7614 4.8493 14.6149C4.99581 14.4684 5.07812 14.2697 5.07812 14.0625Z" fill="white"/>
</svg>
