<svg width="25" height="25" viewBox="0 0 25 25" fill="none" xmlns="http://www.w3.org/2000/svg">
<path d="M16.2422 3.15332C15.292 2.12744 13.9649 1.5625 12.5 1.5625C11.0274 1.5625 9.69585 2.12402 8.75005 3.14355C7.79399 4.17432 7.32817 5.5752 7.43755 7.08789C7.65434 10.0723 9.92534 12.5 12.5 12.5C15.0748 12.5 17.3418 10.0728 17.5621 7.08887C17.6729 5.58984 17.2041 4.19189 16.2422 3.15332Z" fill="white"/>
<path d="M21.0938 23.4375H3.90629C3.68132 23.4404 3.45852 23.3932 3.25412 23.2992C3.04971 23.2051 2.86884 23.0668 2.72464 22.894C2.40726 22.5146 2.27933 21.9966 2.37406 21.4727C2.78617 19.1865 4.0723 17.2661 6.09379 15.918C7.88968 14.7212 10.1646 14.0625 12.5 14.0625C14.8355 14.0625 17.1104 14.7217 18.9063 15.918C20.9278 17.2656 22.2139 19.186 22.626 21.4722C22.7207 21.9961 22.5928 22.5142 22.2754 22.8936C22.1313 23.0664 21.9504 23.2048 21.746 23.2989C21.5416 23.393 21.3188 23.4404 21.0938 23.4375Z" fill="white"/>
</svg>
