<svg width="30" height="30" viewBox="0 0 30 30" fill="none" xmlns="http://www.w3.org/2000/svg">
<path d="M15 17.8125C16.5533 17.8125 17.8125 16.5533 17.8125 15C17.8125 13.4467 16.5533 12.1875 15 12.1875C13.4467 12.1875 12.1875 13.4467 12.1875 15C12.1875 16.5533 13.4467 17.8125 15 17.8125Z" fill="white"/>
<path d="M27.5619 17.5781L27.5344 17.5559L25.6852 16.1057C25.5681 16.013 25.4746 15.8939 25.4125 15.7581C25.3504 15.6224 25.3213 15.4738 25.3278 15.3246V14.6473C25.3219 14.499 25.3513 14.3515 25.4135 14.2169C25.4758 14.0822 25.5691 13.9642 25.6858 13.8727L27.5344 12.4219L27.5619 12.3996C27.847 12.1621 28.0384 11.8309 28.1017 11.4653C28.165 11.0997 28.0963 10.7235 27.9076 10.4039L25.4051 6.07383C25.4022 6.06974 25.3997 6.06543 25.3975 6.06094C25.2079 5.7458 24.9139 5.50702 24.5665 5.38607C24.2192 5.26512 23.8405 5.26963 23.4961 5.39883L23.4756 5.40645L21.3018 6.28125C21.1646 6.33673 21.0162 6.3588 20.8687 6.34566C20.7213 6.33252 20.5792 6.28454 20.4539 6.20566C20.2617 6.08457 20.0664 5.97012 19.868 5.8623C19.7393 5.79254 19.6289 5.69351 19.5455 5.5732C19.4622 5.4529 19.4082 5.31469 19.3881 5.16973L19.0606 2.85L19.0535 2.80781C18.9822 2.44851 18.7894 2.12471 18.5075 1.89082C18.2256 1.65692 17.8718 1.5272 17.5055 1.52344H12.4946C12.1231 1.52463 11.764 1.65687 11.4805 1.89686C11.197 2.13685 11.0073 2.4692 10.9448 2.83535L10.9395 2.86816L10.6131 5.19258C10.5931 5.33713 10.5396 5.47501 10.4569 5.59525C10.3742 5.71549 10.2646 5.81476 10.1367 5.88516C9.93636 5.99297 9.74065 6.10723 9.55081 6.22617C9.42581 6.30456 9.28399 6.35218 9.13701 6.36512C8.99003 6.37805 8.84208 6.35594 8.7053 6.30059L6.52972 5.42168L6.50921 5.41348C6.16436 5.28414 5.78509 5.2798 5.43737 5.4012C5.08965 5.5226 4.79549 5.76207 4.60608 6.07793L4.59847 6.09082L2.09241 10.4238C1.90352 10.7437 1.83458 11.1204 1.89792 11.4864C1.96125 11.8525 2.15273 12.184 2.43811 12.4219L2.46565 12.4441L4.31487 13.8943C4.43198 13.987 4.52544 14.1061 4.58757 14.2419C4.6497 14.3776 4.67874 14.5262 4.67229 14.6754V15.3527C4.67816 15.501 4.64877 15.6485 4.58653 15.7831C4.5243 15.9178 4.43099 16.0358 4.31429 16.1273L2.46565 17.5781L2.43811 17.6004C2.15301 17.8379 1.96169 18.1691 1.89835 18.5347C1.83502 18.9003 1.90381 19.2765 2.09241 19.5961L4.59495 23.9262C4.59783 23.9303 4.60038 23.9346 4.60257 23.9391C4.79219 24.2542 5.08619 24.493 5.43353 24.6139C5.78086 24.7349 6.15958 24.7304 6.50393 24.6012L6.52444 24.5936L8.69651 23.7188C8.83372 23.6633 8.98214 23.6412 9.12955 23.6543C9.27696 23.6675 9.41914 23.7155 9.54436 23.7943C9.73655 23.9158 9.93186 24.0303 10.1303 24.1377C10.259 24.2075 10.3694 24.3065 10.4528 24.4268C10.5361 24.5471 10.5901 24.6853 10.6102 24.8303L10.936 27.15L10.943 27.1922C11.0144 27.5521 11.2077 27.8763 11.4904 28.1103C11.773 28.3442 12.1277 28.4736 12.4946 28.4766H17.5055C17.8769 28.4754 18.2361 28.3431 18.5196 28.1031C18.8031 27.8631 18.9928 27.5308 19.0553 27.1646L19.0606 27.1318L19.3869 24.8074C19.4073 24.6626 19.4612 24.5245 19.5444 24.4043C19.6277 24.284 19.7379 24.1849 19.8662 24.1148C20.0666 24.007 20.2623 23.8928 20.4522 23.7738C20.5772 23.6954 20.719 23.6478 20.866 23.6349C21.013 23.622 21.1609 23.6441 21.2977 23.6994L23.4733 24.5754L23.4938 24.5836C23.8386 24.7132 24.218 24.7176 24.5657 24.5962C24.9135 24.4748 25.2077 24.2352 25.3969 23.9191C25.3992 23.9147 25.4018 23.9104 25.4045 23.9062L27.9071 19.5768C28.0963 19.2569 28.1655 18.8802 28.1022 18.5139C28.039 18.1477 27.8475 17.816 27.5619 17.5781ZM19.6823 15.2203C19.6396 16.1277 19.3342 17.0031 18.8032 17.7401C18.2722 18.4772 17.5386 19.044 16.6914 19.3718C15.8442 19.6996 14.9201 19.7742 14.0313 19.5865C13.1425 19.3987 12.3274 18.9568 11.6852 18.3145C11.0429 17.6721 10.6011 16.857 10.4135 15.9682C10.2259 15.0794 10.3006 14.1553 10.6284 13.3081C10.9563 12.461 11.5233 11.7274 12.2604 11.1965C12.9975 10.6656 13.8729 10.3603 14.7803 10.3178C15.4317 10.2891 16.082 10.3963 16.6897 10.6325C17.2975 10.8687 17.8494 11.2289 18.3105 11.69C18.7715 12.1511 19.1316 12.7031 19.3677 13.3108C19.6039 13.9186 19.711 14.5689 19.6823 15.2203Z" fill="white"/>
</svg>
