<svg width="50" height="50" viewBox="0 0 50 50" fill="none" xmlns="http://www.w3.org/2000/svg">
<path d="M50 25C50.0093 30.8821 47.9373 36.5779 44.1509 41.0786C43.5534 41.7882 42.9177 42.4648 42.2467 43.1053H7.88006C7.22223 42.5332 6.60076 41.9205 6.01927 41.271L5.84974 41.0642C4.42313 39.3622 -0.230896 33.2947 0.0089385 25C0.34388 13.5061 10.0034 0 25.0055 0C31.6344 0 37.9919 2.63392 42.6793 7.32232C47.3666 12.0107 50 18.3696 50 25Z" fill="white"/>
<path d="M39.3788 39.8999C38.3574 43.1942 31.6503 44.9458 25.0942 44.983C18.538 44.9458 11.8288 43.1942 10.8096 39.8999C10.2017 37.9353 12.0976 37.0047 12.8978 31.9506C13.6441 27.2397 12.048 26.3008 12.4016 20.9426C12.629 17.4581 12.8564 14.0314 15.2961 11.0576C18.7737 6.79755 24.2444 6.68381 24.9495 6.67554C25.5697 6.67554 31.2782 6.69208 34.9129 11.0576C38.1569 14.9537 37.7351 20.0224 37.7971 20.9426C38.1507 26.3008 36.5566 27.2397 37.3009 31.9506C38.0887 36.9985 39.9867 37.9353 39.3788 39.8999Z" fill="#2D2D2D"/>
<path d="M44.1508 41.0766C43.5541 41.7896 42.9169 42.4676 42.2424 43.1074C40.9377 44.3491 39.5036 45.4473 37.9647 46.3831C34.0604 48.7577 29.5769 50.0092 25.0074 50C19.6897 50 15.2404 48.1512 11.9819 46.1494C10.5297 45.2552 9.1573 44.2375 7.87993 43.1074C7.22326 42.5333 6.60187 41.9201 6.01915 41.271C5.96953 41.2173 5.91577 41.149 5.84961 41.0642C7.3871 39.5293 9.13347 38.219 11.0371 37.1723C12.8361 36.1792 14.7422 35.3938 16.7187 34.8313C19.463 37.2619 22.2087 39.6904 24.9557 42.1168L33.2714 34.8313C33.3293 34.8499 33.3913 34.8623 33.4513 34.8809C33.4678 34.8906 33.4861 34.8969 33.505 34.8995C35.3914 35.4564 37.2124 36.2149 38.9364 37.1619C40.8489 38.2167 42.6041 39.5344 44.1508 41.0766Z" fill="black"/>
<path d="M33.2778 34.8395L24.9622 42.1251C22.2151 39.6959 19.4694 37.2673 16.7251 34.8395L16.9319 34.7816L17.1076 34.732C17.1572 34.7175 17.2151 34.7051 17.273 34.6865C17.4797 34.6327 17.732 34.5645 18.0049 34.5024C20.3233 36.4877 22.6389 38.4737 24.9518 40.4603C27.295 38.4709 29.6383 36.485 31.9815 34.5024C32.6017 34.6472 33.0793 34.7816 33.2778 34.8395Z" fill="#7C211A"/>
<path d="M31.9854 34.5025C29.6421 36.4878 27.2989 38.4738 24.9557 40.4604C22.6401 38.471 20.3244 36.485 18.0088 34.5025C18.3065 34.4301 18.6166 34.364 18.9309 34.2957C19.2452 34.2275 19.5119 34.182 19.7869 34.1386C19.9287 33.7939 20.0428 33.4384 20.128 33.0756C20.1776 32.8688 20.2149 32.6889 20.2417 32.509C20.789 32.9698 21.3971 33.3533 22.0488 33.6484C22.1542 33.6919 22.27 33.7456 22.4106 33.8056C23.2058 34.1431 24.0608 34.3171 24.9247 34.3171C25.7886 34.3171 26.6436 34.1431 27.4388 33.8056C27.6249 33.7291 27.7862 33.6567 27.9164 33.5988C28.5591 33.2977 29.1596 32.914 29.7028 32.4573C29.7607 32.722 29.833 33.0012 29.9095 33.2845C29.986 33.5678 30.0998 33.8739 30.199 34.1406C30.2044 34.1387 30.2102 34.1387 30.2155 34.1406C30.4781 34.1861 30.72 34.2295 30.9371 34.275C31.3113 34.3454 31.6525 34.4219 31.9854 34.5025Z" fill="#843F2C"/>
<path opacity="0.2" d="M33.5156 34.9076C33.344 35.1 33.1683 35.2902 32.9884 35.4701C32.5855 35.874 32.1544 36.2485 31.6983 36.591C31.0985 37.0397 30.4441 37.4101 29.7506 37.6932C29.3152 37.8714 28.8628 38.0051 28.4005 38.0923C27.9918 38.1707 27.5762 38.2074 27.16 38.2019C26.3428 38.1862 25.5357 38.0179 24.7803 37.7056L24.6459 37.6519C24.0428 37.3953 23.4717 37.0691 22.9443 36.6799C21.9495 35.9393 21.0732 35.0516 20.3454 34.0473C20.2275 33.8902 20.1097 33.7289 19.998 33.5614C20.0208 33.489 20.0435 33.4187 20.0663 33.3422C20.1469 33.0402 20.2048 32.7611 20.2462 32.515C20.3661 32.6142 20.4922 32.7094 20.6142 32.7983C20.9484 33.0408 21.2986 33.2605 21.6624 33.4559C21.6996 33.4724 21.7348 33.4952 21.7699 33.5138L21.9002 33.582C21.9498 33.6048 21.9994 33.6255 22.0532 33.6544L22.1442 33.6937L22.2207 33.7309L22.3158 33.7702L22.4088 33.8075C22.4218 33.8147 22.4357 33.8203 22.4501 33.824C22.4853 33.8426 22.5225 33.855 22.5577 33.8695C22.5928 33.884 22.6528 33.9005 22.6983 33.9191L22.843 33.9688C22.8553 33.9719 22.8671 33.9768 22.8781 33.9832L22.9856 34.0143L23.1386 34.0639C23.1633 34.067 23.1875 34.0725 23.211 34.0804L23.3599 34.1218C23.6639 34.1999 23.9736 34.2538 24.2861 34.2831C24.3191 34.2861 24.3524 34.2861 24.3854 34.2831C24.4081 34.2852 24.4309 34.2852 24.4536 34.2831C24.4956 34.2854 24.5377 34.2854 24.5797 34.2831C24.6149 34.2831 24.6562 34.2831 24.6914 34.2934H24.9395C25.6169 34.2885 26.2894 34.1776 26.9326 33.9646H26.945L27.0173 33.9357C27.1517 33.8964 27.282 33.8426 27.4184 33.793L27.4536 33.7744L27.6252 33.702L27.6707 33.6854C28.2692 33.4127 28.8374 33.0779 29.3661 32.6866L29.6989 32.4302C29.7568 32.7073 29.8375 33.0092 29.9326 33.3256C30.0173 33.6089 30.1083 33.8736 30.2034 34.1218L30.4267 34.1611L30.6521 34.2024L30.8733 34.2417C30.9312 34.2562 30.985 34.2645 31.0387 34.279C31.0758 34.2836 31.1124 34.2912 31.1483 34.3017C31.4274 34.3596 31.7045 34.4175 31.9753 34.4858C32.4116 34.5892 32.8437 34.6926 33.2675 34.8228L33.5156 34.9076Z" fill="black"/>
<path d="M36.9143 23.3684C36.8813 24.4313 36.2031 25.5108 35.4422 25.9078C35.3395 25.9602 35.2313 26.0011 35.1197 26.0299C35.1115 26.0308 35.1031 26.0308 35.0949 26.0299C34.9593 26.0618 34.8187 26.066 34.6814 26.0423C34.532 26.0135 34.3908 25.952 34.2679 25.8624C34.2477 25.849 34.2284 25.8345 34.21 25.8189C34.125 25.7522 34.048 25.6759 33.9805 25.5914C33.4305 24.9318 33.2072 23.691 33.567 22.6963C33.7141 22.3093 33.9401 21.9571 34.2307 21.6623C34.4738 21.4 34.7888 21.2152 35.1363 21.1308C35.2965 21.0977 35.4619 21.0977 35.6221 21.1308C36.5174 21.319 36.935 22.4791 36.9143 23.3684Z" fill="#843F2C"/>
<path opacity="0.3" d="M36.9147 23.3683C36.8837 24.4353 36.2035 25.5107 35.4426 25.9119C35.3391 25.9625 35.2311 26.0033 35.1201 26.0339C35.1201 26.0339 35.1056 26.0339 35.0911 26.0339C34.9554 26.0644 34.815 26.0686 34.6776 26.0463C34.5284 26.0169 34.3873 25.9555 34.2641 25.8664L34.2042 25.823C34.1212 25.7568 34.0462 25.6812 33.9809 25.5975C33.4268 24.9358 33.2055 23.6929 33.5674 22.7024C33.7137 22.3155 33.939 21.9633 34.229 21.6684C34.4119 21.4795 34.6286 21.3266 34.8678 21.2175C34.9534 21.1826 35.042 21.1556 35.1325 21.1369C35.2928 21.1038 35.4581 21.1038 35.6184 21.1369C35.6432 21.1396 35.6676 21.1459 35.6907 21.1555C36.5446 21.3809 36.9354 22.5059 36.9147 23.3683Z" fill="black"/>
<path d="M16.0323 25.5998C15.9497 25.7031 15.8529 25.7943 15.7449 25.8707C15.6218 25.96 15.4807 26.0214 15.3314 26.0506C15.1942 26.0748 15.0535 26.0706 14.9179 26.0382H14.8931C14.7809 26.0103 14.6726 25.9686 14.5706 25.9141C13.8097 25.5191 13.1233 24.4397 13.0964 23.3767C13.0696 22.4854 13.4872 21.3253 14.3907 21.1433C14.9055 21.0399 15.3976 21.2901 15.7842 21.6789C16.0742 21.9738 16.2995 22.326 16.4458 22.7129C16.7994 23.6993 16.574 24.9401 16.0323 25.5998Z" fill="#843F2C"/>
<path d="M35.126 21.1288V21.1412C35.126 21.2218 35.126 21.3087 35.126 21.3935C35.0251 22.9075 34.7126 24.3999 34.1977 25.8273C34.1398 25.9927 34.0778 26.1602 34.0137 26.3256C33.042 28.8072 31.5223 30.9931 29.7132 32.4469L29.3803 32.7033C28.8517 33.0946 28.2834 33.4294 27.685 33.7022L27.6395 33.7187L27.4679 33.7911L27.4327 33.8097C27.2963 33.8593 27.166 33.9131 27.0316 33.9524L26.9593 33.9814H26.9468C26.3037 34.1943 25.6312 34.3052 24.9537 34.3102H24.7056C24.6705 34.3102 24.6291 34.3102 24.594 34.2998C24.552 34.3021 24.5099 34.3021 24.4679 34.2998C24.4452 34.3019 24.4223 34.3019 24.3996 34.2998C24.3666 34.3029 24.3334 34.3029 24.3004 34.2998C23.9879 34.2706 23.6782 34.2166 23.3741 34.1385L23.2253 34.0972C23.2018 34.0892 23.1775 34.0837 23.1529 34.0806L22.9999 34.031L22.8924 34C22.8814 33.9935 22.8696 33.9887 22.8573 33.9855L22.7125 33.9359C22.667 33.9172 22.6216 33.9048 22.5719 33.8862C22.5223 33.8676 22.4996 33.8593 22.4644 33.8407C22.45 33.837 22.4361 33.8315 22.4231 33.8242L22.33 33.787L22.2349 33.7477L22.1584 33.7104L22.0675 33.6712C22.0137 33.6422 21.9641 33.6215 21.9145 33.5988L21.7842 33.5305C21.7491 33.5119 21.7139 33.4892 21.6767 33.4726C21.3129 33.2772 20.9627 33.0575 20.6285 32.815C20.5065 32.7261 20.3803 32.631 20.2604 32.5317C20.1033 32.4055 19.9503 32.2753 19.7973 32.1408C19.6443 32.0064 19.4954 31.8658 19.3507 31.7169C19.206 31.568 19.0551 31.4191 18.9186 31.2681C18.7821 31.1172 18.6353 30.9517 18.5051 30.7904C16.4686 28.2402 15.2249 25.1484 14.9282 21.8981C14.9055 21.6913 14.8931 21.4845 14.8828 21.2632C14.8475 20.5188 14.8703 19.7727 14.951 19.0318C14.9861 18.7299 15.0275 18.4342 15.0812 18.1364C15.1495 17.7766 15.2301 17.4126 15.3335 17.0424C15.5708 16.1539 15.8899 15.2892 16.2866 14.4595C17.155 12.6376 18.41 10.9232 19.9751 9.70311C21.4058 8.59259 23.093 7.88948 24.9889 7.88534C28.0426 7.87086 30.5712 9.66795 32.339 12.0834C33.0582 13.0662 33.6539 14.1337 34.1129 15.2619C34.2287 15.5452 34.3321 15.8285 34.4313 16.116C34.6557 16.7758 34.8319 17.451 34.9586 18.1364C35.0082 18.4238 35.0516 18.7175 35.0847 19.0091C35.1534 19.7135 35.1672 20.4222 35.126 21.1288Z" fill="#843F2C"/>
<path opacity="0.2" d="M35.1408 21.137C35.1222 21.4307 35.0995 21.6685 35.0726 21.9208C35.0312 22.3158 35.0085 22.5102 35.0002 22.5226C34.7521 22.9362 32.7879 22.5867 29.9161 21.0523C27.6811 19.8549 27.4351 19.3813 25.2683 18.064C22.0388 16.1015 20.4241 15.1068 18.6377 15.3942C15.8259 15.845 14.3641 18.9098 13.8286 18.7258C14.4303 18.856 15.3793 15.6837 17.9637 14.8276C20.5481 13.9714 23.6453 15.8223 26.821 17.7228C27.8217 18.3225 29.1305 19.2221 31.2993 20.2044C34.291 21.5672 34.8968 21.2839 35.1222 21.1391C35.1346 21.1412 35.1346 21.137 35.1408 21.137Z" fill="black"/>
<path d="M35.1405 21.1369C34.9151 21.2817 34.3135 21.565 31.3176 20.2022C29.1487 19.2116 27.84 18.3121 26.8393 17.7206C23.6636 15.8263 20.5767 13.9817 17.982 14.8254C15.3872 15.6692 14.4403 18.8539 13.8469 18.7236L13.8097 18.7091C13.3651 18.5023 13.6525 16.5812 14.31 14.9247C15.3004 12.4431 17.7793 8.9089 22.1667 7.76116C23.1033 7.51714 26.7152 6.63203 30.2301 8.6566C33.7077 10.6584 34.7332 14.0437 35.2066 15.6216C35.3555 16.1779 36.5567 20.1877 35.1405 21.1369Z" fill="#2D2D2D"/>
</svg>
