<svg width="48" height="48" viewBox="0 0 48 48" fill="none" xmlns="http://www.w3.org/2000/svg">
<path d="M47.3972 23.6914C47.405 29.2652 45.4401 34.6619 41.8504 38.9258C41.2845 39.5984 40.682 40.2393 40.0457 40.8457H7.46951C6.84762 40.3045 6.26052 39.7246 5.7117 39.1094L5.55154 38.9141C4.18435 37.293 -0.219943 31.5449 0.00857246 23.6797C0.330838 12.7988 9.48904 0 23.7058 0C29.9892 0 36.0152 2.49605 40.4582 6.93905C44.9012 11.3821 47.3972 17.4081 47.3972 23.6914Z" fill="white"/>
<path d="M41.8447 38.9297C39.6185 41.5758 36.841 43.7035 33.7065 45.1639C30.572 46.6244 27.1563 47.3824 23.6982 47.3848C15.9951 47.3848 10.2217 43.2832 7.46777 40.8496C6.84665 40.3069 6.2596 39.7263 5.70996 39.1113C5.66113 39.0547 5.61035 38.9961 5.5498 38.916C8.20215 36.2578 11.7666 34.1797 15.8682 33.0078C17.0107 35.8613 20.0928 37.9043 23.71 37.9043C27.0732 37.9043 29.9697 36.1465 31.2842 33.6074C31.3838 33.4121 31.4795 33.2168 31.5576 33.0078L31.7803 33.0723C35.7764 34.2656 39.2549 36.3086 41.8447 38.9297Z" fill="black"/>
<path d="M31.5479 33.0078C31.4658 33.2031 31.374 33.4082 31.2744 33.6074C29.96 36.1465 27.0635 37.9043 23.7002 37.9043C20.083 37.9043 17.001 35.8613 15.8584 33.0078C15.9443 32.9824 16.0322 32.9609 16.1182 32.9336C16.1572 32.9336 16.1943 32.9121 16.2373 32.9004L16.376 32.8652L16.4189 32.8535C16.4189 32.8535 16.7607 32.7617 17.0791 32.6895C17.6832 33.9322 18.6247 34.9799 19.7961 35.7129C20.9674 36.4459 22.3213 36.8346 23.7031 36.8346C25.0849 36.8346 26.4388 36.4459 27.6102 35.7129C28.7815 34.9799 29.723 33.9322 30.3271 32.6895C30.7452 32.7472 31.1549 32.854 31.5479 33.0078Z" fill="#7C211A"/>
<path d="M30.3213 32.6973C29.7177 33.9406 28.7764 34.989 27.605 35.7225C26.4336 36.4559 25.0794 36.8449 23.6973 36.8449C22.3152 36.8449 20.961 36.4559 19.7896 35.7225C18.6181 34.989 17.6768 33.9406 17.0732 32.6973C17.3369 32.6328 17.5986 32.5723 17.8662 32.5195C17.9307 32.5078 17.999 32.4941 18.0615 32.4766C18.0947 32.4766 18.1299 32.4629 18.1592 32.459L18.3271 32.4258L18.5615 32.3867L18.7373 32.3516H18.7549C18.8232 32.1836 18.8877 32.002 18.9502 31.8047C18.9717 31.7402 18.9932 31.666 19.0146 31.5977C19.0858 31.3404 19.1438 31.0796 19.1885 30.8164C19.6039 31.1583 20.0528 31.4573 20.5283 31.709C20.5635 31.7266 20.5967 31.7422 20.6318 31.7637L20.7568 31.8242C20.7998 31.8457 20.8525 31.8672 20.8994 31.8945C20.9287 31.906 20.9574 31.919 20.9854 31.9336L21.0596 31.9668L21.1494 32.0059L21.2354 32.041C21.2487 32.0461 21.2618 32.0519 21.2744 32.0586C21.3096 32.0703 21.3389 32.084 21.3779 32.0957L21.5068 32.1484H21.5322C21.5752 32.166 21.6182 32.1836 21.6689 32.1992C21.6791 32.2033 21.6895 32.2066 21.7002 32.209L21.7998 32.2422C21.8506 32.2559 21.8975 32.2734 21.9502 32.2871L22.0186 32.3027L22.1572 32.3418C22.4467 32.4117 22.7403 32.4639 23.0361 32.498H23.1279H23.1924C23.2295 32.498 23.2744 32.498 23.3115 32.5078H23.4209C23.4639 32.5078 23.5029 32.5078 23.5459 32.5078H23.6533C24.2958 32.5062 24.9337 32.4 25.542 32.1934C25.5438 32.1942 25.5458 32.1947 25.5479 32.1947C25.5499 32.1947 25.5519 32.1942 25.5537 32.1934C25.5777 32.1883 25.6013 32.1811 25.624 32.1719C25.7783 32.1191 25.917 32.0645 26.0361 32.0156L26.2002 31.9473L26.2432 31.9297C26.9396 31.6326 27.587 31.2316 28.1631 30.7402C28.2236 31.0078 28.2959 31.293 28.3857 31.5898C28.4678 31.8574 28.5537 32.1074 28.6455 32.3438C28.7139 32.3574 28.7881 32.3652 28.8564 32.3828C28.9248 32.4004 28.999 32.4082 29.0674 32.4219C29.1357 32.4355 29.21 32.4473 29.2783 32.4609C29.3467 32.4746 29.3857 32.4824 29.4346 32.4902C29.4834 32.498 29.5068 32.5039 29.542 32.5117C29.8018 32.5762 30.0635 32.6328 30.3213 32.6973Z" fill="#843F2C"/>
<path d="M18.7431 9.32227C17.3313 10.5171 16.1981 12.0063 15.4228 13.6855C14.8918 14.7916 14.5077 15.9623 14.2802 17.168C14.1097 18.1136 14.0442 19.0752 14.0849 20.0352C13.9444 20.0067 13.7996 20.0067 13.6591 20.0352C13.5283 19.5527 13.413 18.877 13.2529 17.9961C13.0576 16.8594 12.9521 16.2891 12.9814 15.6523C13.0825 14.3705 13.5264 13.1393 14.2666 12.0879C15.5009 10.3828 17.5537 9.48047 18.7431 9.32227Z" fill="#2D2D2D"/>
<path d="M34.1416 17.9863C33.9873 18.8672 33.8662 19.5488 33.7373 20.0254C33.5986 20.5527 33.4482 20.8574 33.2334 20.9609C33.2686 20.6523 33.2939 20.3457 33.3076 20.0352C33.353 19.0757 33.2921 18.1141 33.126 17.168C33.0091 16.518 32.8419 15.878 32.626 15.2539L32.7041 15.1973L32.79 15.1328C32.8074 15.122 32.8231 15.1088 32.8369 15.0937C33.1787 14.8279 33.4823 14.5164 33.7393 14.168C33.8126 14.0706 33.8651 13.959 33.8933 13.8404C33.9216 13.7217 33.925 13.5985 33.9033 13.4785C34.193 14.1696 34.3684 14.9031 34.4229 15.6504V15.6602C34.4482 16.2852 34.3447 16.8535 34.1416 17.9863Z" fill="#2D2D2D"/>
<path opacity="0.2" d="M31.7705 33.0801C31.6123 33.2656 31.4443 33.4434 31.2744 33.6152C30.892 33.9967 30.4834 34.3511 30.0518 34.6758C29.4833 35.1015 28.8631 35.4532 28.2061 35.7227C27.7922 35.89 27.3631 36.0169 26.9248 36.1016C26.5388 36.1761 26.146 36.2095 25.7529 36.2012C24.975 36.1915 24.2058 36.0358 23.4854 35.7422C23.4427 35.7257 23.4009 35.7068 23.3604 35.6855C22.7889 35.4441 22.2481 35.136 21.749 34.7676C20.8051 34.0643 19.9745 33.2205 19.2861 32.2656C19.1748 32.1152 19.0654 31.959 18.958 31.8047C18.9795 31.7402 19.001 31.666 19.0225 31.5977C19.0936 31.3404 19.1517 31.0796 19.1963 30.8164C19.3076 30.9062 19.4287 30.998 19.5439 31.084C19.8612 31.3129 20.1926 31.5217 20.5361 31.709C20.5713 31.7266 20.6045 31.7422 20.6396 31.7637L20.7646 31.8242C20.8076 31.8457 20.8604 31.8672 20.9072 31.8945C20.9366 31.906 20.9652 31.919 20.9932 31.9336L21.0674 31.9668L21.1572 32.0059L21.2432 32.041C21.2565 32.0461 21.2696 32.0519 21.2822 32.0586L21.3857 32.0957L21.5146 32.1484H21.5322L21.6689 32.1992C21.6791 32.2033 21.6895 32.2066 21.7002 32.209L21.7998 32.2422C21.8506 32.2559 21.8975 32.2734 21.9502 32.2871L22.0186 32.3027L22.1572 32.3418C22.446 32.4153 22.7397 32.4675 23.0361 32.498H23.1279H23.1924C23.2295 32.498 23.2744 32.498 23.3115 32.5078H23.4209C23.4639 32.5078 23.5029 32.5078 23.5459 32.5078H23.6533C24.2954 32.5021 24.9327 32.396 25.542 32.1934C25.5438 32.1942 25.5458 32.1947 25.5479 32.1947C25.5499 32.1947 25.5519 32.1942 25.5537 32.1934C25.5777 32.1883 25.6013 32.1811 25.624 32.1719C25.7529 32.1289 25.8779 32.0801 26.0029 32.0293L26.042 32.0156L26.2002 31.9473L26.2432 31.9297C26.8097 31.6716 27.3472 31.3541 27.8467 30.9824C27.9561 30.9043 28.0596 30.8223 28.1631 30.7402C28.2236 31.0078 28.2959 31.293 28.3857 31.5898C28.4678 31.8574 28.5537 32.1074 28.6455 32.3438C28.7139 32.3574 28.7881 32.3652 28.8564 32.3828C28.9248 32.4004 28.999 32.4082 29.0674 32.4219C29.1357 32.4355 29.21 32.4473 29.2783 32.4609C29.3467 32.4746 29.3857 32.4824 29.4346 32.4902C29.4834 32.498 29.5068 32.5039 29.542 32.5117C29.8057 32.5684 30.0674 32.625 30.3232 32.6895C30.7334 32.7832 31.1416 32.8848 31.5439 33.0078L31.7705 33.0801Z" fill="black"/>
<path d="M34.9888 22.1465C34.9595 23.1562 34.315 24.1777 33.5943 24.5527C33.4972 24.604 33.3942 24.6433 33.2877 24.6699H33.2642C33.1361 24.7001 33.0033 24.7041 32.8736 24.6816C32.7321 24.6545 32.5986 24.5957 32.483 24.5098C32.464 24.4979 32.4457 24.4848 32.4283 24.4707C32.3483 24.406 32.275 24.3333 32.2095 24.2539C31.69 23.6289 31.4771 22.4531 31.8189 21.5195C31.9595 21.1544 32.1735 20.822 32.4478 20.543C32.6797 20.2956 32.9781 20.1206 33.3072 20.039C33.4587 20.0088 33.6147 20.0088 33.7662 20.039C34.6177 20.2031 35.0084 21.3027 34.9888 22.1465Z" fill="#843F2C"/>
<path opacity="0.3" d="M34.9888 22.1465C34.9595 23.1562 34.315 24.1777 33.5924 24.5527C33.496 24.6042 33.3937 24.6436 33.2877 24.6699H33.2642C33.1361 24.7001 33.0033 24.7041 32.8736 24.6816C32.7321 24.6545 32.5986 24.5957 32.483 24.5098C32.464 24.4979 32.4457 24.4848 32.4283 24.4707C32.3478 24.4065 32.2745 24.3338 32.2095 24.2539C31.69 23.6289 31.4771 22.4531 31.8189 21.5195C31.9595 21.1548 32.1728 20.8226 32.4459 20.543C32.6783 20.2953 32.9774 20.1203 33.3072 20.039C33.4587 20.0088 33.6147 20.0088 33.7662 20.039C34.6177 20.2031 35.0084 21.3027 34.9888 22.1465Z" fill="black"/>
<path d="M15.194 24.2598C15.124 24.3482 15.0433 24.4276 14.9538 24.4962C14.9438 24.504 14.9334 24.5112 14.9225 24.5176C14.81 24.6004 14.6806 24.6574 14.5435 24.6844C14.4064 24.7114 14.2651 24.7078 14.1296 24.6739C14.1212 24.6758 14.1125 24.6758 14.1042 24.6739C13.9993 24.646 13.8978 24.6067 13.8014 24.5567C13.0788 24.1817 12.4343 23.1602 12.405 22.1505C12.3796 21.3067 12.7722 20.1973 13.6296 20.0352C13.6398 20.0324 13.6506 20.0324 13.6608 20.0352C13.8013 20.0068 13.9461 20.0068 14.0866 20.0352C14.4184 20.1127 14.7192 20.2883 14.9499 20.5391C14.9987 20.5883 15.0444 20.6404 15.0866 20.6954C15.297 20.9389 15.4636 21.2171 15.5788 21.5176C15.9284 22.461 15.7155 23.6329 15.194 24.2598Z" fill="#843F2C"/>
<path d="M33.3017 20.0352C33.2881 20.3457 33.2627 20.6523 33.2275 20.9609C33.0959 22.1605 32.8239 23.3405 32.417 24.4766C31.5127 27.0156 29.9912 29.2754 28.1592 30.75C28.0556 30.832 27.9521 30.9141 27.8427 30.9922C27.3433 31.3638 26.8058 31.6814 26.2392 31.9395L26.1963 31.957L26.0381 32.0254L25.999 32.0391C25.874 32.0898 25.749 32.1387 25.6201 32.1816C25.5973 32.1908 25.5738 32.198 25.5498 32.2031C25.5479 32.204 25.5459 32.2044 25.5439 32.2044C25.5419 32.2044 25.5399 32.204 25.5381 32.2031C24.9288 32.4058 24.2915 32.5119 23.6494 32.5176H23.542C23.499 32.5176 23.4599 32.5176 23.417 32.5176H23.3076C23.2705 32.5176 23.2256 32.5176 23.1885 32.5078H23.124H23.0322C22.7358 32.4773 22.442 32.4251 22.1533 32.3516L22.0146 32.3125L21.9463 32.2969C21.8935 32.2832 21.8467 32.2656 21.7959 32.252L21.6963 32.2188C21.6856 32.2164 21.6751 32.2131 21.665 32.209L21.5283 32.1582H21.5146L21.3857 32.1055L21.2822 32.0684C21.2696 32.0617 21.2565 32.0558 21.2431 32.0508L21.1572 32.0156L21.0674 31.9766L20.9931 31.9434C20.9652 31.9288 20.9365 31.9158 20.9072 31.9043C20.8603 31.877 20.8076 31.8555 20.7646 31.834L20.6396 31.7734C20.6045 31.752 20.5713 31.7363 20.5361 31.7187C20.1926 31.5314 19.8612 31.3227 19.5439 31.0938C19.4287 31.0078 19.3076 30.916 19.1963 30.8262C18.5841 30.333 18.0245 29.778 17.5263 29.1699C16.3986 27.7833 15.5276 26.2065 14.9541 24.5137C14.9228 24.4453 14.9013 24.373 14.876 24.2988C14.5161 23.2214 14.2745 22.1081 14.1552 20.9785C14.1552 20.9062 14.1396 20.8281 14.1338 20.7539C14.1181 20.5586 14.1006 20.3633 14.0908 20.1562C14.0908 20.1211 14.0908 20.0918 14.0908 20.0566C14.0501 19.0966 14.1156 18.1351 14.2861 17.1895C14.5136 15.9838 14.8977 14.8131 15.4287 13.707C16.2039 12.0278 17.3372 10.5386 18.749 9.34375C18.8095 9.29102 18.8701 9.24414 18.9306 9.19727C20.2725 8.09757 21.946 7.48241 23.6806 7.45117C25.5732 7.45117 27.2549 8.16992 28.6592 9.31836C29.41 9.93514 30.0783 10.6461 30.6474 11.4336C31.3246 12.3689 31.886 13.3828 32.3193 14.4531C32.4306 14.7207 32.5302 14.9922 32.6201 15.2637C32.836 15.8878 33.0032 16.5277 33.1201 17.1777C33.2855 18.1206 33.3464 19.0789 33.3017 20.0352Z" fill="#843F2C"/>
<path opacity="0.2" d="M34.4229 15.6504V15.6602C34.2351 15.8742 34.0278 16.0704 33.8037 16.2461C33.7861 16.2637 33.7041 16.3242 33.5967 16.4063C33.4189 16.5313 33.2373 16.6563 33.0518 16.7773C31.0234 18.0945 28.6711 18.8267 26.2535 18.8936C23.8359 18.9604 21.4467 18.3593 19.3486 17.1562C18.9399 16.917 18.5442 16.6562 18.1631 16.375C18.0322 16.2812 17.9072 16.1797 17.7725 16.0859C17.4382 15.8251 17.1175 15.5474 16.8115 15.2539C16.6689 15.1172 16.5264 14.9746 16.3896 14.8281C16.208 14.6328 16.0322 14.4375 15.8623 14.2422C15.7923 14.1593 15.7386 14.0638 15.7041 13.9609C16.0532 14.3085 16.423 14.6346 16.8115 14.9375C17.3071 15.3257 17.8292 15.6788 18.374 15.9941C20.2032 17.0447 22.2581 17.6401 24.3656 17.7302C26.473 17.8203 28.5713 17.4024 30.4834 16.5117C31.2378 16.1577 31.9571 15.7333 32.6318 15.2441L32.71 15.1875L32.7959 15.123C32.8132 15.1122 32.829 15.0991 32.8428 15.084C33.1845 14.8182 33.4881 14.5067 33.7451 14.1582C33.8185 14.0608 33.871 13.9493 33.8992 13.8306C33.9274 13.712 33.9308 13.5888 33.9092 13.4688C34.1979 14.1632 34.3714 14.9001 34.4229 15.6504Z" fill="black"/>
<path d="M33.7329 14.168C33.476 14.5164 33.1723 14.8279 32.8306 15.0938C32.8168 15.1089 32.8011 15.122 32.7837 15.1328L32.6978 15.1973L32.6197 15.2539C31.945 15.7431 31.2256 16.1675 30.4712 16.5215C28.5591 17.4122 26.4609 17.8301 24.3534 17.74C22.2459 17.6499 20.191 17.0545 18.3618 16.0039C17.817 15.6885 17.2949 15.3355 16.7993 14.9473C16.4108 14.6444 16.041 14.3183 15.6919 13.9707C15.5962 13.877 15.4966 13.7754 15.4107 13.6875C15.231 13.502 15.0572 13.3067 14.8892 13.1016C14.7548 12.9404 14.6812 12.7372 14.6812 12.5274C14.6812 12.3175 14.7548 12.1143 14.8892 11.9531C15.6035 11.1125 16.4219 10.3663 17.3247 9.73244C17.5708 9.55535 17.8247 9.38673 18.0865 9.22658C20.1445 7.96885 22.5104 7.30504 24.9224 7.30861C25.5396 7.30861 27.2408 7.30861 28.7935 7.89455C30.4575 8.51564 31.6607 9.69728 32.4927 10.8516C33.0321 11.6116 33.4829 12.4307 33.8365 13.293C33.8624 13.3555 33.8802 13.4212 33.8892 13.4883C33.9106 13.6063 33.9077 13.7273 33.8809 13.8442C33.854 13.961 33.8037 14.0712 33.7329 14.168Z" fill="#2D2D2D"/>
</svg>
