<svg width="48" height="48" viewBox="0 0 48 48" fill="none" xmlns="http://www.w3.org/2000/svg">
<path d="M47.4832 23.7344C47.492 29.3192 45.5228 34.7268 41.9246 38.998C41.3568 39.6715 40.7531 40.3137 40.116 40.9219H7.47926C6.85765 40.379 6.27057 39.7978 5.72145 39.1816L5.56129 38.9863C4.1941 37.3633 -0.219961 31.6055 0.00855422 23.7285C0.323007 12.8223 9.49684 1.28591e-06 23.741 1.28591e-06C26.8585 -0.00102488 29.9456 0.612126 32.8261 1.80443C35.7066 2.99673 38.324 4.74483 40.5288 6.94888C42.7335 9.15292 44.4825 11.7697 45.6757 14.6498C46.869 17.5299 47.4832 20.6169 47.4832 23.7344Z" fill="white"/>
<path d="M41.917 39C41.3498 39.6733 40.7461 40.3149 40.1084 40.9219C35.6977 45.1282 29.8341 47.4706 23.7393 47.4609C16.0205 47.4609 10.2432 43.3594 7.47949 40.9141C6.85813 40.3709 6.27107 39.7897 5.72168 39.1738L5.56152 38.9785C8.20801 36.3086 11.7725 34.2363 15.8779 33.0605C17.0146 35.9375 20.1123 37.9805 23.7354 37.9805C27.1025 37.9805 30.0049 36.2227 31.3232 33.6836C31.4228 33.4883 31.5186 33.293 31.5947 33.082L31.8193 33.1465C35.8311 34.3281 39.3174 36.375 41.917 39Z" fill="black"/>
<path d="M31.5947 33.0742C31.5127 33.2695 31.4229 33.4766 31.3232 33.6758C30.0049 36.2148 27.1025 37.9727 23.7354 37.9727C20.1123 37.9727 17.0225 35.9258 15.8779 33.0664L16.1377 32.9941L16.2588 32.959C16.3018 32.959 16.3506 32.9375 16.3975 32.9238L16.4404 32.9121C16.4404 32.9121 16.7822 32.8203 17.1006 32.748C17.7049 33.994 18.6477 35.0447 19.8213 35.7798C20.9948 36.5149 22.3516 36.9047 23.7363 36.9047C25.1211 36.9047 26.4779 36.5149 27.6514 35.7798C28.8249 35.0447 29.7678 33.994 30.3721 32.748C30.7911 32.8081 31.2015 32.9175 31.5947 33.0742Z" fill="#7C211A"/>
<path d="M30.3721 32.7559C29.7672 34.0012 28.8242 35.0512 27.6507 35.7858C26.4773 36.5204 25.1208 36.91 23.7363 36.91C22.3519 36.91 20.9954 36.5204 19.8219 35.7858C18.6485 35.0512 17.7054 34.0012 17.1006 32.7559C17.3643 32.6914 17.6279 32.6309 17.8955 32.5781C17.96 32.5645 18.0303 32.5527 18.0908 32.5352C18.126 32.5352 18.1592 32.5215 18.1904 32.5176C18.2217 32.5137 18.3018 32.4961 18.3584 32.4824L18.5908 32.4434L18.7686 32.4102H18.7861C18.8545 32.2422 18.9189 32.0605 18.9814 31.8613C19.0029 31.7969 19.0244 31.7227 19.0479 31.6543C19.124 31.3691 19.1807 31.1016 19.2197 30.873C19.637 31.2149 20.0871 31.5145 20.5635 31.7676C20.5967 31.7852 20.6318 31.8027 20.667 31.8242C20.7021 31.8457 20.749 31.8633 20.792 31.8848C20.835 31.9062 20.8877 31.9277 20.9346 31.9531C20.9814 31.9785 20.9951 31.9785 21.0205 31.9922L21.0947 32.0273L21.1846 32.0645L21.2705 32.0996C21.2842 32.0996 21.2979 32.1133 21.3096 32.1172L21.4131 32.1562C21.4521 32.1738 21.501 32.1914 21.5439 32.207H21.5557C21.5986 32.2246 21.6416 32.2422 21.6943 32.2598H21.7256C21.7588 32.2734 21.7939 32.2812 21.8232 32.2949C21.8525 32.3086 21.9229 32.3262 21.9756 32.3379C21.9971 32.3379 22.0186 32.3516 22.0439 32.3555L22.1826 32.3945C22.4728 32.4645 22.767 32.5166 23.0635 32.5508H23.1533H23.2197C23.2568 32.5508 23.3018 32.5508 23.3408 32.5508H23.4482C23.4912 32.5508 23.5303 32.5508 23.5732 32.5508H23.6807C24.3244 32.5495 24.9637 32.4433 25.5732 32.2363C25.575 32.2374 25.577 32.2379 25.5791 32.2379C25.5812 32.2379 25.5832 32.2374 25.585 32.2363C25.6093 32.2327 25.633 32.2255 25.6553 32.2148C25.8096 32.1641 25.9482 32.1074 26.0693 32.0605L26.2334 31.9902L26.2764 31.9727C26.9738 31.6755 27.6219 31.2737 28.1982 30.7812C28.2588 31.0488 28.333 31.334 28.4229 31.6328C28.5049 31.9004 28.5908 32.1504 28.6826 32.3887C28.751 32.4004 28.8252 32.4102 28.8936 32.4277C28.9619 32.4453 29.0361 32.4531 29.1045 32.4668L29.3174 32.5039L29.4717 32.5352L29.5811 32.5566C29.8467 32.6348 30.1006 32.6914 30.3721 32.7559Z" fill="#E59973"/>
<path d="M18.7724 9.33789C17.3602 10.5354 16.2269 12.0273 15.4521 13.709C14.9199 14.8174 14.5351 15.9908 14.3076 17.1992C14.1371 18.1462 14.0716 19.109 14.1123 20.0703C13.971 20.0429 13.8258 20.0429 13.6846 20.0703C13.5537 19.5859 13.4385 18.8984 13.2783 18.0273C13.083 16.8867 12.9756 16.3164 13.0068 15.6836C13.1024 14.3994 13.5423 13.1647 14.2803 12.1094C15.5205 10.4004 17.5771 9.49805 18.7724 9.33789Z" fill="#2D2D2D"/>
<path d="M34.2021 18.0195C34.0479 18.9004 33.9268 19.582 33.7959 20.0625C33.6592 20.5898 33.5068 20.8965 33.292 21C33.3252 20.6875 33.3525 20.3809 33.3643 20.0703C33.4106 19.1095 33.3497 18.1465 33.1826 17.1992C33.066 16.5479 32.8988 15.9066 32.6826 15.2813C32.7119 15.2598 32.7334 15.2422 32.7607 15.2246L32.8467 15.1602C32.864 15.1493 32.8798 15.1362 32.8936 15.1211C33.2354 14.8546 33.539 14.5425 33.7959 14.1934C33.8699 14.0959 33.9227 13.984 33.9509 13.865C33.9792 13.7459 33.9822 13.6223 33.96 13.502C34.2484 14.1947 34.4238 14.9293 34.4795 15.6777C34.501 16.3145 34.3975 16.8828 34.2021 18.0195Z" fill="#2D2D2D"/>
<path opacity="0.2" d="M31.8193 33.1387C31.6592 33.334 31.4912 33.502 31.3232 33.6758C30.9395 34.0579 30.5296 34.4129 30.0967 34.7383C29.5267 35.1643 28.9053 35.5167 28.2471 35.7871C27.8336 35.9584 27.4045 36.0893 26.9658 36.1777C26.5796 36.2503 26.1869 36.283 25.7939 36.2754C25.017 36.2628 24.2493 36.1052 23.5303 35.8105C23.4876 35.794 23.4458 35.7751 23.4053 35.7539C22.8332 35.5106 22.2911 35.2019 21.79 34.834C20.8438 34.1316 20.0105 33.2885 19.3193 32.334C19.208 32.1816 19.1006 32.0273 18.9912 31.8711C19.0127 31.8066 19.0342 31.7324 19.0576 31.6641C19.1338 31.3789 19.1904 31.1113 19.2295 30.8828C19.3408 30.9746 19.4619 31.0645 19.5791 31.1504C19.8963 31.3811 20.2284 31.5905 20.5732 31.7773C20.6064 31.7949 20.6416 31.8125 20.6768 31.834C20.7119 31.8555 20.7588 31.873 20.8018 31.8945C20.8447 31.916 20.8975 31.9375 20.9443 31.9629C20.9912 31.9883 21.0049 31.9883 21.0303 32.002L21.1045 32.0371L21.1943 32.0742L21.2803 32.1094C21.2939 32.1094 21.3076 32.123 21.3193 32.127L21.4229 32.166L21.5537 32.2168H21.5654L21.7041 32.2695H21.7354C21.7686 32.2832 21.8037 32.291 21.833 32.3047C21.8623 32.3184 21.9326 32.3359 21.9854 32.3477C22.0068 32.3477 22.0283 32.3613 22.0537 32.3652L22.1924 32.4043C22.4818 32.478 22.7762 32.5302 23.0732 32.5605H23.1631H23.2295C23.2666 32.5605 23.3115 32.5605 23.3506 32.5605H23.458C23.501 32.5605 23.54 32.5605 23.583 32.5605H23.6904C24.3338 32.5549 24.9724 32.4488 25.583 32.2461C25.5848 32.2471 25.5868 32.2477 25.5889 32.2477C25.5909 32.2477 25.5929 32.2471 25.5947 32.2461C25.6191 32.2425 25.6428 32.2352 25.665 32.2246C25.7939 32.1816 25.9189 32.1348 26.0439 32.082L26.083 32.0703L26.2432 32L26.2861 31.9824C26.8541 31.724 27.393 31.4058 27.8936 31.0332C28.001 30.9551 28.1045 30.873 28.208 30.791C28.2686 31.0586 28.3428 31.3438 28.4326 31.6426C28.5146 31.9102 28.6006 32.1602 28.6924 32.3984C28.7607 32.4102 28.835 32.4199 28.9033 32.4375C28.9717 32.4551 29.0459 32.4629 29.1143 32.4766L29.3271 32.5137L29.4814 32.5449L29.5908 32.5664C29.8545 32.623 30.1162 32.6797 30.3721 32.7441C30.7822 32.8379 31.1943 32.9395 31.5947 33.0625L31.8193 33.1387Z" fill="black"/>
<path d="M35.0435 22.1855C35.0123 23.1973 34.3677 24.2207 33.6451 24.5976C33.5476 24.648 33.4447 24.6873 33.3385 24.7148H33.317C33.1858 24.7466 33.0496 24.7512 32.9166 24.7285C32.7756 24.6998 32.6424 24.6412 32.526 24.5566L32.4713 24.5156C32.3908 24.4521 32.3175 24.3801 32.2525 24.3008C31.733 23.6719 31.5201 22.4941 31.8619 21.5547C32.0022 21.1894 32.2163 20.857 32.4908 20.5781C32.7226 20.3297 33.022 20.1545 33.3521 20.0742C33.5041 20.042 33.6611 20.042 33.8131 20.0742C34.6744 20.2402 35.0709 21.3418 35.0435 22.1855Z" fill="#E59973"/>
<path opacity="0.3" d="M35.0435 22.1855C35.0123 23.1973 34.3677 24.2207 33.6451 24.5976C33.5476 24.648 33.4447 24.6873 33.3385 24.7148H33.317C33.1858 24.7466 33.0496 24.7512 32.9166 24.7285C32.7756 24.6998 32.6424 24.6412 32.526 24.5566L32.4713 24.5156C32.3908 24.4521 32.3175 24.3801 32.2525 24.3008C31.733 23.6719 31.5201 22.4941 31.8619 21.5547C32.0022 21.1894 32.2163 20.857 32.4908 20.5781C32.7226 20.3297 33.022 20.1545 33.3521 20.0742C33.5041 20.042 33.6611 20.042 33.8131 20.0742C34.6744 20.2402 35.0709 21.3418 35.0435 22.1855Z" fill="black"/>
<path d="M15.2136 24.3028C15.1429 24.3918 15.0615 24.4718 14.9714 24.5411C14.9714 24.5411 14.9499 24.5547 14.9421 24.5625C14.8258 24.6465 14.6924 24.7039 14.5514 24.7305C14.4218 24.753 14.2889 24.749 14.1608 24.7188C14.1526 24.7218 14.1436 24.7218 14.1354 24.7188C14.0306 24.6916 13.9291 24.6529 13.8327 24.6036C13.1061 24.2266 12.4655 23.2032 12.4323 22.1934C12.4069 21.3457 12.7995 20.2403 13.6589 20.0723C13.6692 20.0704 13.6798 20.0704 13.6901 20.0723C13.8314 20.0449 13.9766 20.0449 14.1179 20.0723C14.45 20.1501 14.7509 20.3264 14.9811 20.5782C15.0306 20.6273 15.0769 20.6795 15.1198 20.7344C15.3293 20.9793 15.4957 21.258 15.612 21.5586C15.9479 22.4981 15.737 23.6778 15.2136 24.3028Z" fill="#E59973"/>
<path d="M33.3525 20.0703C33.3408 20.3809 33.3134 20.6875 33.2802 21C33.1455 22.1992 32.8728 23.3789 32.4677 24.5156C31.5595 27.0547 30.0361 29.3223 28.2002 30.7988C28.0966 30.8809 27.9931 30.9629 27.8857 31.041C27.3851 31.4136 26.8463 31.7318 26.2783 31.9902L26.2353 32.0078L26.0752 32.0781L26.0361 32.0898C25.9111 32.1426 25.7861 32.1895 25.6572 32.2324C25.6349 32.243 25.6112 32.2503 25.5869 32.2539C25.5851 32.2549 25.5831 32.2555 25.581 32.2555C25.579 32.2555 25.5769 32.2549 25.5752 32.2539C24.9645 32.4566 24.326 32.5627 23.6826 32.5684H23.5752C23.5322 32.5684 23.4931 32.5684 23.4502 32.5684H23.3427C23.3037 32.5684 23.2588 32.5684 23.2216 32.5684H23.1552H23.0654C22.7683 32.538 22.4739 32.4858 22.1845 32.4121L22.0459 32.373C22.0205 32.373 21.999 32.3594 21.9775 32.3555C21.9248 32.3438 21.8779 32.3262 21.8252 32.3125C21.7724 32.2988 21.7607 32.291 21.7275 32.2773H21.6963L21.5576 32.2246H21.5459L21.415 32.1738L21.3115 32.1348C21.2998 32.1348 21.2861 32.1211 21.2724 32.1172L21.1865 32.082L21.0966 32.0449L21.0224 32.0098C20.997 31.9961 20.9658 31.9844 20.9365 31.9707C20.9072 31.957 20.8369 31.9238 20.7939 31.9023C20.7509 31.8809 20.708 31.8574 20.6689 31.8418C20.6298 31.8262 20.5986 31.8027 20.5654 31.7852C20.2205 31.5984 19.8884 31.3889 19.5712 31.1582C19.4541 31.0723 19.333 30.9824 19.2216 30.8906C18.6088 30.3968 18.0486 29.8411 17.5498 29.2324C16.4196 27.8436 15.5465 26.2641 14.9716 24.5684C14.9423 24.5 14.9209 24.4258 14.8935 24.3516C14.5339 23.2741 14.2922 22.1608 14.1728 21.0312C14.1728 20.959 14.1552 20.8809 14.1513 20.8086C14.1337 20.6133 14.1162 20.418 14.1084 20.207C14.1084 20.1719 14.1084 20.1426 14.1084 20.1074C14.0677 19.1461 14.1332 18.1833 14.3037 17.2363C14.5293 16.015 14.9154 14.829 15.4521 13.709C16.2269 12.0273 17.3601 10.5354 18.7724 9.33789L18.9541 9.19141C20.3014 8.09843 21.9772 7.49032 23.7119 7.46484C25.6084 7.46484 27.2939 8.18555 28.7002 9.33398C29.4503 9.95314 30.1178 10.666 30.6865 11.4551C31.3661 12.3881 31.9301 13.4 32.3662 14.4688C32.4775 14.7363 32.5771 15.0098 32.6689 15.2812C32.8851 15.9066 33.0523 16.5479 33.1689 17.1992C33.3366 18.1465 33.3982 19.1094 33.3525 20.0703Z" fill="#E59973"/>
<path opacity="0.2" d="M34.4678 15.6777C34.2786 15.8918 34.07 16.0879 33.8447 16.2637C33.8271 16.2812 33.7451 16.3418 33.6377 16.4238C33.46 16.5488 33.2803 16.6738 33.0928 16.7949C30.9605 18.188 28.468 18.9286 25.9209 18.9258C23.6187 18.9325 21.3554 18.3329 19.3584 17.1875C18.9544 16.9477 18.5632 16.6869 18.1865 16.4062C18.0576 16.3125 17.9307 16.2109 17.7959 16.1172C17.461 15.8557 17.1396 15.5773 16.833 15.2832C16.6904 15.1445 16.5479 15.002 16.4092 14.8555C16.2295 14.6602 16.0518 14.4648 15.8838 14.2695C15.8132 14.1867 15.7589 14.0913 15.7236 13.9883C16.0739 14.3353 16.4444 14.6614 16.833 14.9648C17.3288 15.3533 17.8509 15.707 18.3955 16.0234C20.5927 17.2913 23.1103 17.895 25.6436 17.7616C28.1769 17.6281 30.6171 16.7632 32.6689 15.2715C32.6982 15.25 32.7197 15.2324 32.7471 15.2148L32.833 15.1504C32.8503 15.1396 32.8661 15.1264 32.8799 15.1113C33.2217 14.8449 33.5254 14.5327 33.7822 14.1836C33.8562 14.0861 33.909 13.9743 33.9372 13.8552C33.9655 13.7362 33.9686 13.6125 33.9463 13.4922C34.2364 14.1879 34.4125 14.9259 34.4678 15.6777Z" fill="black"/>
<path d="M33.784 14.1934C33.5272 14.5425 33.2236 14.8547 32.8817 15.1211C32.8679 15.1362 32.8522 15.1493 32.8348 15.1602L32.7489 15.2246C32.7215 15.2422 32.7001 15.2598 32.6708 15.2813C30.6167 16.7679 28.1771 17.6297 25.645 17.7631C23.1129 17.8965 20.5962 17.2958 18.3973 16.0332C17.8527 15.7168 17.3306 15.3631 16.8348 14.9746C16.4462 14.6712 16.0757 14.3451 15.7255 13.9981C15.6298 13.9024 15.5301 13.8027 15.4442 13.7129C15.2626 13.5176 15.0907 13.334 14.9227 13.127C14.7878 12.9657 14.7139 12.7621 14.7139 12.5518C14.7139 12.3415 14.7878 12.1379 14.9227 11.9766C15.6343 11.1353 16.4486 10.3866 17.3465 9.74805C17.5926 9.57227 17.8479 9.4043 18.1122 9.24415C20.1698 7.98486 22.5358 7.31968 24.9481 7.32227C25.5673 7.32227 27.2723 7.32227 28.827 7.90821C30.495 8.53126 31.7001 9.71485 32.538 10.8711C33.0833 11.6325 33.5388 12.4543 33.8954 13.3203C33.9209 13.3795 33.938 13.4419 33.9462 13.5059C33.9682 13.6254 33.9651 13.7483 33.9372 13.8666C33.9093 13.985 33.8572 14.0962 33.784 14.1934Z" fill="#2D2D2D"/>
</svg>
