<svg width="48" height="48" viewBox="0 0 48 48" fill="none" xmlns="http://www.w3.org/2000/svg">
<path d="M47.4599 23.7305C47.4616 26.945 46.8096 30.1264 45.5434 33.0811C44.2773 36.0358 42.4234 38.7021 40.0946 40.918H7.47745C6.85743 40.3734 6.27045 39.7922 5.71964 39.1777L5.55948 38.9824C4.19229 37.3594 -0.22177 31.6016 0.0086984 23.7266C0.317292 12.8203 9.48917 0 23.7314 0C26.8476 -1.05565e-08 29.9333 0.613821 32.8123 1.80641C35.6913 2.999 38.3072 4.74701 40.5106 6.95061C42.7141 9.15421 44.4618 11.7703 45.6542 14.6494C46.8466 17.5285 47.4601 20.6142 47.4599 23.7305Z" fill="white"/>
<path d="M36.124 28.5273C34.5166 30.9648 30.9463 32.0586 26.8291 31.7109C27.1926 31.5113 27.5424 31.2875 27.876 31.041C27.9834 30.9609 28.0889 30.8809 28.1924 30.7969C30.0264 29.3242 31.5498 27.0645 32.4541 24.5156C32.9404 23.1622 33.2356 21.7475 33.331 20.3125C33.331 20.2344 33.331 20.1543 33.3428 20.0742C33.3662 19.6188 33.3662 19.1625 33.3428 18.707C33.333 18.4824 33.3135 18.2578 33.2881 18.0332C33.2568 17.7559 33.2158 17.4785 33.167 17.2031C33.1357 17.0313 33.1025 16.8613 33.0635 16.6875C33.7724 16.8945 34.2607 16.9824 34.542 16.8145C34.6056 16.7796 34.6593 16.7292 34.6982 16.668C35.6553 15.2266 30.7099 7.25391 23.7139 7.25391C16.8525 7.24609 11.7607 15.2012 12.7158 16.6602C12.9502 17.0156 13.4971 16.9316 14.3916 16.6602C14.3506 16.8379 14.3135 17.0137 14.2822 17.1875C14.2314 17.4707 14.1904 17.7539 14.1592 18.041C14.082 18.7446 14.0604 19.4532 14.0947 20.1602C14.1045 20.3555 14.1162 20.5508 14.1357 20.7598C14.244 21.9703 14.4937 23.164 14.8799 24.3164C15.4595 26.0927 16.3598 27.7476 17.5361 29.1992C18.0336 29.8072 18.5926 30.3623 19.2041 30.8555C19.3193 30.9473 19.4385 31.0371 19.5537 31.1211C19.8599 31.3435 20.1802 31.5458 20.5127 31.7266C17.9424 31.957 14.5537 31.7559 12.2725 29.6562C11.8978 29.3206 11.5658 28.9402 11.2842 28.5234C10.7295 27.6914 9.89745 25.5234 11.7568 18.0371C12.7646 14.0176 13.3603 11.623 15.6455 9.63086C18.5986 7.05273 22.249 7.00195 23.3935 6.98828C23.4873 6.98828 23.5889 6.98828 23.7021 6.98828H23.7295C23.8408 6.98828 23.9443 6.98828 24.0381 6.98828C25.1826 7.00195 28.833 7.05273 31.7861 9.63086C34.0635 11.623 34.6592 14.0176 35.6592 18.041C36.9619 23.3184 37.6611 26.1992 36.124 28.5273Z" fill="#2D2D2D"/>
<path d="M41.9014 38.9902C41.3365 39.6668 40.7333 40.3104 40.0947 40.918C35.6827 45.119 29.8236 47.4618 23.7314 47.4609C18.6787 47.4609 14.458 45.7031 11.3701 43.8047C9.98691 42.9574 8.67992 41.9915 7.46387 40.918C6.84229 40.3736 6.25522 39.7911 5.70606 39.1738C5.65918 39.123 5.60449 39.0586 5.54395 38.9785C7.0028 37.5199 8.66126 36.2758 10.4697 35.2832C12.1762 34.3402 13.9848 33.5951 15.8604 33.0625C18.4645 35.3698 21.0687 37.6751 23.6729 39.9785C26.3031 37.6712 28.9359 35.3659 31.5713 33.0625C31.626 33.0801 31.6826 33.0918 31.7373 33.1094C31.7548 33.1173 31.7732 33.1232 31.792 33.127C33.5831 33.6554 35.3118 34.3757 36.9482 35.2754C38.7659 36.2744 40.4334 37.525 41.9014 38.9902Z" fill="black"/>
<path d="M31.5869 33.0703C28.9567 35.3776 26.3239 37.6829 23.6885 39.9863C21.0843 37.679 18.4801 35.3737 15.876 33.0703L16.1904 32.9805L16.3857 32.9258C16.3857 32.9258 16.3994 32.9258 16.4072 32.9258C16.6025 32.875 16.835 32.8164 17.0947 32.7559C19.29 34.6387 21.4873 36.5267 23.6865 38.4199C25.9118 36.5319 28.137 34.6439 30.3623 32.7559C30.9424 32.8867 31.3994 33.0078 31.5869 33.0703Z" fill="#7C211A"/>
<path d="M30.3603 32.75C28.1351 34.6328 25.9098 36.5208 23.6846 38.4141C21.4893 36.526 19.292 34.638 17.0928 32.75C17.376 32.6816 17.6787 32.6172 17.9697 32.5547C18.2607 32.4922 18.5166 32.4492 18.7803 32.4062C18.912 32.0784 19.0204 31.7416 19.1045 31.3984C19.1475 31.2031 19.1826 31.0312 19.2119 30.8594C19.7299 31.2991 20.308 31.6628 20.9287 31.9395C21.0264 31.9824 21.1377 32.0352 21.2705 32.0898C22.0258 32.41 22.8378 32.5749 23.6582 32.5749C24.4786 32.5749 25.2906 32.41 26.0459 32.0898C26.2217 32.0176 26.3701 31.9492 26.4951 31.8945C27.1057 31.6098 27.6757 31.2453 28.1904 30.8105C28.2471 31.0625 28.3135 31.3262 28.3994 31.6035C28.4854 31.8809 28.5752 32.1641 28.6729 32.416C28.6786 32.4142 28.6847 32.4142 28.6904 32.416C28.9385 32.459 29.1689 32.502 29.374 32.5449C29.7197 32.5996 30.0439 32.6738 30.3603 32.75Z" fill="#843F2C"/>
<path opacity="0.2" d="M31.8076 33.1348C31.6455 33.3184 31.4795 33.498 31.3096 33.668C30.929 34.0527 30.5203 34.4085 30.0869 34.7324C29.5171 35.1582 28.8956 35.51 28.2373 35.7793C27.8227 35.9485 27.3922 36.0754 26.9521 36.1582C26.566 36.2323 26.1734 36.2669 25.7803 36.2617C25.0043 36.2471 24.2378 36.0875 23.5205 35.791L23.3936 35.7402C22.8214 35.4955 22.2794 35.1855 21.7783 34.8164C20.8346 34.1125 20.0023 33.2703 19.3096 32.3184C19.1982 32.1699 19.0908 32.0156 18.9854 31.8574C19.0068 31.7891 19.0283 31.7207 19.0439 31.6484C19.1177 31.3917 19.1764 31.1308 19.2197 30.8672C19.335 30.9609 19.4541 31.0508 19.5693 31.1367C19.8744 31.3586 20.1942 31.5595 20.5264 31.7383C20.538 31.7477 20.5513 31.7549 20.5654 31.7598L20.667 31.8164L20.792 31.8789L20.9365 31.9473L21.0225 31.9863L21.0947 32.0215L21.1846 32.0586L21.2705 32.0938L21.3135 32.1113C21.3467 32.127 21.3818 32.1406 21.415 32.1523C21.4482 32.1641 21.5049 32.1836 21.5479 32.1992L21.6885 32.2461L21.7236 32.2578L21.8213 32.2891L21.9717 32.3359C21.9949 32.3393 22.0177 32.3445 22.04 32.3516L22.1768 32.3906C22.4666 32.4647 22.7618 32.5163 23.0596 32.5449C23.0908 32.5469 23.1221 32.5469 23.1533 32.5449C23.1735 32.5469 23.1937 32.5469 23.2139 32.5449C23.2546 32.551 23.2957 32.5543 23.3369 32.5547H23.4443H23.6748C24.3195 32.5508 24.9595 32.4454 25.5713 32.2422C25.5959 32.2352 25.62 32.2267 25.6436 32.2168C25.7705 32.1777 25.8955 32.127 26.0225 32.0801L26.0576 32.0625L26.2197 31.9941L26.2627 31.9785C26.458 31.8926 26.6377 31.8027 26.8213 31.7012C27.1861 31.5009 27.5372 31.2764 27.8721 31.0293L28.1846 30.791C28.2451 31.0547 28.3174 31.3379 28.4072 31.6367C28.4873 31.9063 28.5771 32.1582 28.667 32.3926L28.8818 32.4316L29.0947 32.4688L29.3037 32.5078L29.4619 32.541L29.5635 32.5625C29.8291 32.6191 30.0947 32.6738 30.3545 32.7383C30.7686 32.8359 31.1748 32.9336 31.5811 33.0586L31.8076 33.1348Z" fill="black"/>
<path d="M35.0323 22.1836C35.001 23.1934 34.3565 24.2168 33.6339 24.5938C33.5363 24.6441 33.4335 24.6834 33.3272 24.7109H33.3057C33.1778 24.7418 33.0449 24.7464 32.9151 24.7246C32.7741 24.696 32.6408 24.6374 32.5245 24.5527L32.4698 24.5117C32.3893 24.4482 32.316 24.3762 32.251 24.2969C31.7315 23.668 31.5186 22.4902 31.8604 21.5508C32.0007 21.1855 32.2148 20.8531 32.4893 20.5742C32.7217 20.3266 33.0209 20.1516 33.3507 20.0703C33.5027 20.0391 33.6595 20.0391 33.8116 20.0703C34.6632 20.2363 35.0577 21.3379 35.0323 22.1836Z" fill="#843F2C"/>
<path opacity="0.2" d="M35.0341 22.1817C34.9989 23.1953 34.3544 24.2149 33.6317 24.5957C33.535 24.6444 33.4336 24.683 33.329 24.711H33.3036C33.1677 24.745 33.0258 24.7485 32.8884 24.7212C32.7509 24.6938 32.6212 24.6363 32.5087 24.5528C32.4911 24.541 32.4755 24.5274 32.454 24.5098C32.3731 24.4475 32.2997 24.3761 32.2353 24.2969C31.7138 23.6699 31.5009 22.4903 31.8446 21.5508C31.9854 21.1858 32.1995 20.8534 32.4735 20.5742C32.6479 20.3937 32.8555 20.2485 33.0849 20.1465C33.1663 20.1132 33.2506 20.0877 33.3368 20.0703C33.4887 20.0371 33.6459 20.0371 33.7978 20.0703C33.8209 20.0737 33.8438 20.0789 33.8661 20.086C34.6825 20.2949 35.0595 21.3613 35.0341 22.1817Z" fill="black"/>
<path d="M15.2057 24.3009C15.1265 24.398 15.0345 24.4841 14.9323 24.5568C14.8161 24.6417 14.6828 24.7003 14.5417 24.7286C14.4119 24.75 14.2793 24.746 14.151 24.7169H14.1276C14.0211 24.6892 13.9182 24.6492 13.821 24.5978C13.1003 24.2228 12.4538 23.1993 12.4225 22.1896C12.3971 21.3439 12.7936 20.2364 13.651 20.0704C14.1393 19.9728 14.6061 20.2091 14.9733 20.5782C15.2491 20.8561 15.4633 21.1888 15.6022 21.5548C15.9401 22.4943 15.7272 23.672 15.2057 24.3009Z" fill="#843F2C"/>
<path d="M33.3426 20.0684C33.3426 20.1446 33.3426 20.2267 33.3289 20.3067C33.2375 21.7434 32.9429 23.1598 32.4539 24.5138C32.1723 25.3023 31.8308 26.0682 31.4324 26.8048C30.6249 28.3353 29.5247 29.6924 28.1941 30.7989L27.8816 31.0372C27.5467 31.2843 27.1957 31.5088 26.8309 31.7091C26.6473 31.8106 26.4598 31.9044 26.2723 31.9864L26.2293 32.002L26.0672 32.0704L26.032 32.088C25.9051 32.1349 25.7801 32.1856 25.6531 32.2247C25.6296 32.2346 25.6055 32.2431 25.5809 32.2501C24.9691 32.4533 24.329 32.5587 23.6844 32.5626H23.4539H23.3465C23.3053 32.5622 23.2642 32.5589 23.2234 32.5528C23.2033 32.5548 23.183 32.5548 23.1629 32.5528C23.1317 32.5548 23.1004 32.5548 23.0691 32.5528C22.7713 32.5242 22.4762 32.4726 22.1863 32.3985L22.0496 32.3595C22.0273 32.3524 22.0044 32.3472 21.9813 32.3438L21.8309 32.297L21.7332 32.2657L21.6981 32.254L21.5574 32.2071C21.5145 32.1915 21.4676 32.1778 21.4246 32.1602C21.3816 32.1427 21.3563 32.1349 21.3231 32.1192L21.2801 32.1017L21.1942 32.0665L21.1043 32.0294L21.032 31.9942L20.9461 31.9552L20.8016 31.8868L20.6766 31.8243L20.575 31.7677C20.5608 31.7628 20.5476 31.7556 20.5359 31.7462C20.2038 31.5674 19.884 31.3665 19.5789 31.1446C19.4637 31.0587 19.3445 30.9688 19.2293 30.8751C18.9253 30.6332 18.6369 30.3723 18.366 30.0938C18.0812 29.8159 17.8119 29.5225 17.5594 29.2149C16.3827 27.7641 15.4836 26.1089 14.907 24.3321C14.5193 23.1806 14.2682 21.9875 14.159 20.7774C14.1414 20.5821 14.1297 20.3868 14.1199 20.1759C14.0847 19.4689 14.1062 18.7602 14.1844 18.0567C14.2137 17.7716 14.2567 17.4884 14.3094 17.2071C14.3387 17.0313 14.3777 16.8575 14.4149 16.6778C14.4149 16.6778 14.4149 16.6563 14.4149 16.6485C14.452 16.4903 14.4949 16.3282 14.5379 16.17C14.7644 15.3263 15.0677 14.5052 15.4441 13.7169C16.1523 12.1984 17.1471 10.8309 18.3738 9.68954C18.5691 9.51962 18.7645 9.35556 18.9598 9.20321C20.327 8.14657 21.9149 7.48056 23.7176 7.47665C26.0887 7.46493 28.1258 8.60361 29.7078 10.2755C30.0578 10.6471 30.384 11.0405 30.6844 11.4532C31.3668 12.3858 31.9322 13.3986 32.368 14.4688C32.4774 14.7364 32.577 15.0059 32.6707 15.2794C32.825 15.7391 32.9554 16.2066 33.0613 16.6798C33.1004 16.8517 33.1336 17.0216 33.1649 17.1974C33.2117 17.4708 33.2547 17.7481 33.284 18.0255C33.3094 18.252 33.327 18.4747 33.3387 18.7013C33.3644 19.1566 33.3657 19.613 33.3426 20.0684Z" fill="#843F2C"/>
<path opacity="0.2" d="M33.3369 18.7012C31.7314 18.1152 28.7119 16.3574 23.833 15.8477C19.5615 15.4121 16.4912 16.2109 14.6689 16.5859C16.4541 16.0312 19.4268 14.9199 23.7158 14.9199C28.2607 14.9199 31.3232 16.1641 33.0693 16.6777C33.1084 16.8496 33.1416 17.0195 33.1729 17.1953C33.2197 17.4688 33.2627 17.7461 33.292 18.0234C33.3076 18.252 33.3252 18.4746 33.3369 18.7012Z" fill="#020202"/>
<path d="M34.6924 16.6602C34.6542 16.7218 34.6011 16.7729 34.5381 16.8086C34.2568 16.9746 33.7568 16.8848 33.0595 16.6797C31.3134 16.1641 28.2509 14.9219 23.706 14.9219C19.4091 14.9219 16.4443 16.0332 14.6591 16.5879C14.5693 16.6172 14.4892 16.6387 14.4072 16.6641C13.5185 16.9297 12.9677 17.0098 12.7334 16.6641C11.7724 15.207 16.8642 7.24805 23.7158 7.24805C30.7021 7.24414 35.6494 15.2207 34.6924 16.6602Z" fill="#2D2D2D"/>
</svg>
