<svg width="48" height="48" viewBox="0 0 48 48" fill="none" xmlns="http://www.w3.org/2000/svg">
<path d="M47.2565 23.6191C47.2575 26.8183 46.6083 29.9842 45.3483 32.9247C44.0882 35.8652 42.2436 38.5189 39.9264 40.7246H7.45375C6.83182 40.1848 6.24471 39.6062 5.69594 38.9922L5.53578 38.7969C4.18032 37.1816 -0.218122 31.4512 0.00844013 23.6113C0.332659 12.7598 9.46157 0 23.6373 0C29.9015 0 35.9092 2.48844 40.3386 6.91789C44.768 11.3473 47.2565 17.355 47.2565 23.6191Z" fill="white"/>
<path d="M35.9731 28.3945C34.3734 30.8223 30.8188 31.9102 26.7211 31.5645C27.0831 31.365 27.4315 31.1418 27.7641 30.8965C27.8695 30.8164 27.975 30.7363 28.0785 30.6523C29.9027 29.1875 31.4184 26.9414 32.3207 24.4023C32.8051 23.0526 33.0989 21.6419 33.1938 20.2109L33.2055 19.9727C33.2292 19.5172 33.2292 19.0609 33.2055 18.6055C33.2055 18.3809 33.1762 18.1582 33.1527 17.9355C33.1215 17.6582 33.0805 17.3828 33.0316 17.1074C33.0004 16.9375 32.9672 16.7676 32.9281 16.5938C33.6332 16.8008 34.1215 16.8867 34.3988 16.7207C34.4628 16.6863 34.5167 16.6358 34.5551 16.5742C35.5082 15.1406 30.5863 7.19922 23.6176 7.19922C16.7953 7.19922 11.727 15.1172 12.6801 16.5742C12.9125 16.9277 13.4613 16.8457 14.3481 16.5742C14.307 16.752 14.2699 16.9277 14.2387 17.0996C14.1879 17.3809 14.1469 17.6621 14.1156 17.9492C14.0384 18.6495 14.0168 19.3549 14.0512 20.0586C14.0512 20.2539 14.0727 20.4492 14.0922 20.6445C14.1989 21.8609 14.448 23.0605 14.8344 24.2188C15.412 25.9851 16.3083 27.6308 17.4789 29.0742C17.9738 29.6796 18.5302 30.2321 19.1391 30.7227C19.2543 30.8145 19.3715 30.9043 19.4867 30.9883C19.7921 31.2093 20.1111 31.4109 20.4418 31.5918C17.8852 31.8184 14.5102 31.6191 12.2387 29.5293C11.868 29.1952 11.54 28.8167 11.2621 28.4023C10.7094 27.5762 9.88321 25.418 11.7328 17.9648C12.7289 13.9609 13.3207 11.5762 15.5883 9.59375C18.518 7.02734 22.1606 6.97656 23.2992 6.96289H23.9418C25.0805 6.97656 28.7133 7.02734 31.6527 9.59375C33.9203 11.5762 34.5141 13.9609 35.5082 17.9648C36.807 23.2109 37.5024 26.0781 35.9731 28.3945Z" fill="#2D2D2D"/>
<path d="M41.7153 38.8086C41.1532 39.4814 40.5532 40.1218 39.9185 40.7266C35.5263 44.9083 29.6939 47.2406 23.6294 47.2402C18.6001 47.2402 14.3989 45.4824 11.3247 43.6016C9.95091 42.7565 8.65248 41.7946 7.44385 40.7266C6.82245 40.1855 6.23538 39.6063 5.68604 38.9922C5.63916 38.9414 5.58447 38.877 5.52588 38.7969C6.97828 37.3458 8.62876 36.1076 10.4282 35.1191C12.1267 34.1805 13.9268 33.4388 15.7935 32.9082C18.3911 35.2051 20.9855 37.5 23.5767 39.793C26.1951 37.4961 28.8156 35.2012 31.438 32.9082C31.4946 32.9258 31.5493 32.9375 31.604 32.9551C31.6217 32.9641 31.6409 32.9701 31.6606 32.9727C33.4427 33.4994 35.1629 34.2164 36.7915 35.1113C38.5977 36.1072 40.2552 37.3518 41.7153 38.8086Z" fill="black"/>
<path d="M31.4556 32.916C28.8371 35.2129 26.2166 37.5078 23.5942 39.8008C21.0031 37.5039 18.4087 35.209 15.811 32.916L16.1255 32.8281L16.3208 32.7715H16.3423C16.5376 32.7207 16.7681 32.6602 17.0259 32.6016C19.2108 34.4766 21.3976 36.3529 23.5864 38.2305C25.8 36.3516 28.0135 34.4753 30.227 32.6016C30.8149 32.7344 31.27 32.8613 31.4556 32.916Z" fill="#7C211A"/>
<path d="M30.2368 32.5977C28.0233 34.4727 25.8097 36.349 23.5962 38.2266C21.4113 36.3477 19.2244 34.4714 17.0356 32.5977C17.3169 32.5293 17.6099 32.4648 17.9087 32.4023C18.2075 32.3398 18.4517 32.2949 18.7153 32.2539C18.8471 31.9274 18.9554 31.5919 19.0396 31.25C19.0806 31.0547 19.1157 30.8848 19.145 30.7148C19.6608 31.1522 20.2363 31.5139 20.854 31.7891L21.1938 31.9395C21.9456 32.2589 22.754 32.4235 23.5708 32.4235C24.3876 32.4235 25.196 32.2589 25.9478 31.9395C26.1216 31.8672 26.27 31.8008 26.395 31.7441C27.0029 31.4604 27.5703 31.0972 28.0825 30.6641C28.1372 30.916 28.2056 31.1797 28.2895 31.4551C28.3735 31.7305 28.4653 32.0117 28.563 32.2637C28.568 32.2619 28.5736 32.2619 28.5786 32.2637C28.8267 32.3066 29.0552 32.3477 29.2603 32.3906C29.606 32.4492 29.9224 32.5215 30.2368 32.5977Z" fill="#E59973"/>
<path opacity="0.2" d="M31.6782 32.9805C31.5161 33.1621 31.3501 33.3418 31.1802 33.5117C30.8016 33.8945 30.3948 34.2483 29.9634 34.5703C29.3973 34.9948 28.7789 35.3447 28.1235 35.6113C27.7109 35.7803 27.2823 35.9072 26.8442 35.9902C26.4582 36.0648 26.0655 36.0989 25.6724 36.0918C24.8997 36.0786 24.1365 35.9202 23.4224 35.625L23.2954 35.5742C22.7267 35.3299 22.1874 35.0219 21.688 34.6563C20.749 33.9546 19.9207 33.1158 19.231 32.168C19.1196 32.0195 19.0142 31.8672 18.9067 31.709C18.9282 31.6406 18.9497 31.5723 18.9673 31.5C19.0408 31.2433 19.0988 30.9824 19.1411 30.7187C19.2563 30.8125 19.3755 30.9004 19.4907 30.9863C19.7948 31.2061 20.1125 31.4064 20.4419 31.5859L20.481 31.6074C20.5142 31.623 20.5493 31.6445 20.5825 31.6621L20.7056 31.7266C20.7524 31.7461 20.7993 31.7676 20.8501 31.793C20.9009 31.8184 20.9106 31.8184 20.936 31.832C20.9614 31.8457 20.9868 31.8574 21.0083 31.8652L21.0962 31.9043L21.1821 31.9375C21.1956 31.9452 21.2101 31.9511 21.2251 31.9551C21.2583 31.9727 21.2935 31.9844 21.3267 31.998C21.3599 32.0117 21.4165 32.0273 21.4575 32.0449L21.5962 32.0918L21.6313 32.1035L21.729 32.1348L21.8774 32.1816C21.9006 32.185 21.9235 32.1902 21.9458 32.1973L22.0825 32.2363C22.3711 32.3098 22.665 32.3607 22.9614 32.3887C22.9926 32.3908 23.024 32.3908 23.0552 32.3887C23.0753 32.3906 23.0956 32.3906 23.1157 32.3887C23.1567 32.3887 23.1958 32.3887 23.2388 32.3887C23.2817 32.3887 23.311 32.3887 23.3442 32.3984H23.5747C24.216 32.3943 24.8526 32.2895 25.4614 32.0879C25.486 32.0809 25.5101 32.0724 25.5337 32.0625C25.6606 32.0254 25.7837 31.9746 25.9106 31.9277C25.9215 31.9203 25.9333 31.9144 25.9458 31.9102L26.106 31.8418L26.1489 31.8242C26.3442 31.7402 26.5239 31.6504 26.7056 31.5488C27.0695 31.3506 27.4193 31.1274 27.7524 30.8809C27.854 30.8008 27.9478 30.7246 28.063 30.6426C28.1216 30.9062 28.1938 31.1875 28.2837 31.4844C28.3638 31.752 28.4536 32.0039 28.5435 32.2383L28.7563 32.2754L28.9673 32.3145L29.1763 32.3516C29.2271 32.3652 29.2778 32.373 29.3345 32.3867C29.3688 32.3913 29.4028 32.3984 29.436 32.4082C29.6997 32.4629 29.9634 32.5176 30.2173 32.582C30.6294 32.6797 31.0337 32.7773 31.436 32.9004L31.6782 32.9805Z" fill="black"/>
<path d="M34.8796 22.0801C34.8503 23.086 34.2077 24.1035 33.489 24.4785C33.3923 24.5294 33.2901 24.5687 33.1843 24.5957H33.1608C33.0326 24.6251 32.8999 24.6291 32.7702 24.6074C32.6288 24.5802 32.4953 24.5214 32.3796 24.4356C32.3606 24.4237 32.3423 24.4106 32.3249 24.3965C32.2446 24.3335 32.1718 24.2614 32.1081 24.1817C31.5886 23.5567 31.3776 22.3848 31.7175 21.4473C31.8564 21.0818 32.07 20.7492 32.3444 20.4707C32.5744 20.222 32.8727 20.0467 33.2018 19.9668C33.3527 19.9365 33.508 19.9365 33.6589 19.9668C34.5182 20.1426 34.9128 21.2383 34.8796 22.0801Z" fill="#E59973"/>
<path opacity="0.2" d="M34.8796 22.0801C34.8464 23.0859 34.2039 24.1035 33.4851 24.4805C33.3889 24.5288 33.2882 24.5674 33.1843 24.5957H33.157C33.0289 24.626 32.8962 24.6307 32.7663 24.6094C32.6257 24.5808 32.4926 24.5229 32.3757 24.4395L32.3191 24.3965C32.2392 24.3337 32.1665 24.2623 32.1023 24.1836C31.5847 23.5586 31.3718 22.3848 31.7117 21.4492C31.8509 21.0843 32.0637 20.752 32.3367 20.4727C32.5104 20.2927 32.7173 20.1481 32.946 20.0469C33.0268 20.0139 33.1105 19.9884 33.196 19.9707C33.3474 19.9394 33.5036 19.9394 33.655 19.9707C33.6782 19.9741 33.7011 19.9793 33.7234 19.9863C34.5398 20.1992 34.9128 21.2637 34.8796 22.0801Z" fill="black"/>
<path d="M15.1532 24.1875C15.0741 24.2835 14.9828 24.3689 14.8817 24.4414C14.7694 24.5246 14.6401 24.5821 14.503 24.6098C14.366 24.6375 14.2246 24.6347 14.0887 24.6016H14.0653C13.9595 24.5745 13.8572 24.5352 13.7606 24.4844C13.0419 24.1094 12.3934 23.0918 12.37 22.0859C12.3426 21.2441 12.7372 20.1484 13.5926 19.9766C14.079 19.8789 14.5438 20.1133 14.909 20.4824C15.1829 20.761 15.3958 21.0936 15.534 21.459C15.8837 22.3906 15.6708 23.5625 15.1532 24.1875Z" fill="#E59973"/>
<path d="M33.2038 19.9747C33.2038 20.0509 33.2038 20.1329 33.1921 20.213C33.1 21.643 32.8061 23.0528 32.3191 24.4005C32.0402 25.1855 31.7006 25.9475 31.3034 26.6798C30.5011 28.2065 29.4061 29.5604 28.0808 30.6642C27.9733 30.7462 27.8718 30.8224 27.7702 30.9024C27.4371 31.1489 27.0873 31.3721 26.7233 31.5704C26.5417 31.672 26.3542 31.7657 26.1667 31.8458L26.1237 31.8634L25.9636 31.9317C25.9511 31.936 25.9393 31.9419 25.9284 31.9493C25.8015 31.9962 25.6784 32.047 25.5515 32.0841C25.5279 32.094 25.5038 32.1025 25.4792 32.1095C24.8704 32.311 24.2338 32.4158 23.5925 32.42H23.3562C23.323 32.42 23.2839 32.42 23.2507 32.4102C23.2175 32.4005 23.1687 32.4102 23.1276 32.4102C23.1075 32.4122 23.0872 32.4122 23.0671 32.4102C23.0359 32.4124 23.0046 32.4124 22.9733 32.4102C22.6769 32.3823 22.383 32.3314 22.0944 32.2579L21.9577 32.2188C21.9354 32.2118 21.9125 32.2066 21.8894 32.2032L21.7409 32.1563L21.6433 32.1251L21.6081 32.1134L21.4694 32.0665C21.4284 32.0489 21.3816 32.0372 21.3386 32.0196C21.2956 32.002 21.2702 31.9942 21.237 31.9767C21.222 31.9727 21.2076 31.9667 21.1941 31.9591L21.1081 31.9259L21.0202 31.8868C20.9987 31.8868 20.9733 31.8653 20.948 31.8536C20.9226 31.8419 20.8913 31.8282 20.862 31.8145C20.8327 31.8009 20.7644 31.7677 20.7175 31.7481L20.5944 31.6837C20.5612 31.6661 20.5261 31.6446 20.4929 31.629L20.4538 31.6075C20.1244 31.428 19.8067 31.2277 19.5026 31.0079C19.3874 30.922 19.2683 30.8341 19.153 30.7403C18.8514 30.5012 18.5645 30.2443 18.2937 29.9708C18.0107 29.693 17.7427 29.4002 17.4909 29.0938C16.3128 27.6466 15.4129 25.9938 14.8366 24.2188C14.4511 23.073 14.2013 21.8858 14.0925 20.6817C14.0769 20.4864 14.0632 20.2911 14.0554 20.0821C14.0183 19.3772 14.0392 18.6704 14.1179 17.9688C14.1491 17.6837 14.1901 17.4044 14.2409 17.1231C14.2722 16.9493 14.3093 16.7755 14.3483 16.5958C14.3483 16.5958 14.3483 16.5743 14.3483 16.5665C14.3874 16.4083 14.4304 16.2481 14.4714 16.0899C14.6963 15.2507 14.9983 14.4341 15.3737 13.6505C16.0762 12.1393 17.0636 10.7778 18.2819 9.64071C18.4773 9.47079 18.6726 9.30868 18.8679 9.15634C20.2194 8.10556 21.8093 7.44345 23.6042 7.43759C25.9636 7.42587 27.9909 8.56064 29.5651 10.2227C29.9176 10.5928 30.247 10.9842 30.5515 11.3946C31.2298 12.3232 31.792 13.3314 32.2253 14.3966C32.3366 14.6642 32.4343 14.9317 32.528 15.2052C32.6846 15.6636 32.8176 16.1297 32.9265 16.6017C32.9655 16.7716 32.9987 16.9415 33.03 17.1153C33.0769 17.3868 33.1179 17.6642 33.1491 17.9395C33.1745 18.1661 33.1901 18.3868 33.2038 18.6114C33.2273 19.0655 33.2273 19.5206 33.2038 19.9747Z" fill="#E59973"/>
<path opacity="0.2" d="M33.1997 18.6133C31.6001 18.0273 28.5942 16.2695 23.7388 15.7734C19.4888 15.3398 16.4302 16.1387 14.6079 16.5098C16.3853 15.957 19.3442 14.8516 23.6118 14.8516C28.1353 14.8516 31.1841 16.0879 32.9224 16.6094C32.9614 16.7793 32.9946 16.9492 33.0259 17.123C33.0728 17.3945 33.1138 17.6719 33.145 17.9473C33.1704 18.1641 33.186 18.3887 33.1997 18.6133Z" fill="#020202"/>
<path d="M34.5474 16.582C34.51 16.6436 34.4576 16.6947 34.395 16.7305C34.1138 16.8965 33.6255 16.8066 32.9224 16.6035C31.1841 16.0879 28.1353 14.8457 23.6118 14.8457C19.3443 14.8457 16.3853 15.9512 14.6079 16.5039C14.52 16.5332 14.438 16.5547 14.3579 16.5801C13.4732 16.8438 12.9243 16.9258 12.6919 16.5801C11.7349 15.1309 16.8032 7.20508 23.6294 7.20508C30.5825 7.21094 35.5005 15.1484 34.5474 16.582Z" fill="#2D2D2D"/>
</svg>
