<svg width="48" height="48" viewBox="0 0 48 48" fill="none" xmlns="http://www.w3.org/2000/svg">
<path d="M47.3385 23.6621C47.3463 29.2301 45.3834 34.6213 41.7975 38.8809C41.2316 39.5528 40.6291 40.1931 39.9928 40.7988H7.46352C6.84214 40.2571 6.25507 39.6772 5.70571 39.0625L5.54555 38.8672C4.17837 37.248 -0.218119 31.5078 0.00844355 23.6543C0.328756 12.7832 9.47524 0 23.6764 0C29.952 0 35.9705 2.49296 40.408 6.93047C44.8456 11.368 47.3385 17.3865 47.3385 23.6621Z" fill="white"/>
<path d="M23.6353 11.125C26.0288 11.125 27.9692 9.18461 27.9692 6.79102C27.9692 4.39742 26.0288 2.45703 23.6353 2.45703C21.2417 2.45703 19.3013 4.39742 19.3013 6.79102C19.3013 9.18461 21.2417 11.125 23.6353 11.125Z" fill="#2D2D2D"/>
<path opacity="0.2" d="M23.6353 11.125C26.0288 11.125 27.9692 9.18461 27.9692 6.79102C27.9692 4.39742 26.0288 2.45703 23.6353 2.45703C21.2417 2.45703 19.3013 4.39742 19.3013 6.79102C19.3013 9.18461 21.2417 11.125 23.6353 11.125Z" fill="#050505"/>
<path d="M41.7954 38.8789C41.2313 39.553 40.6294 40.1947 39.9927 40.8008C35.5927 44.9888 29.7508 47.3245 23.6763 47.3242C18.6372 47.3242 14.4282 45.5664 11.3501 43.6797C9.97358 42.8335 8.67255 41.8703 7.46143 40.8008C6.84007 40.2583 6.253 39.6778 5.70361 39.0625C5.65674 39.0117 5.60205 38.9473 5.54346 38.8672C6.99745 37.413 8.65069 36.1727 10.4536 35.1836C12.155 34.2429 13.9584 33.4998 15.8286 32.9688C18.4328 35.2682 21.0324 37.5664 23.6274 39.8633C26.2563 37.5651 28.8813 35.2669 31.5024 32.9688C31.5591 32.9844 31.6138 32.998 31.6685 33.0156C31.6866 33.0231 31.7057 33.0284 31.7251 33.0312C33.512 33.561 35.2367 34.2813 36.8696 35.1797C38.676 36.1771 40.334 37.4222 41.7954 38.8789Z" fill="black"/>
<path d="M31.5083 32.9766C28.8846 35.276 26.2596 37.5742 23.6333 39.8711C21.0291 37.5729 18.4295 35.2747 15.8345 32.9766C16.2274 32.8201 16.638 32.7125 17.0571 32.6562C19.2459 34.5352 21.4367 36.4147 23.6294 38.2949C25.8429 36.4121 28.0617 34.5326 30.2856 32.6562C30.7042 32.7154 31.1145 32.8229 31.5083 32.9766Z" fill="#7C211A"/>
<path d="M30.2856 32.6563C28.0721 34.5352 25.8534 36.4147 23.6294 38.2949C21.4406 36.4121 19.2498 34.5326 17.0571 32.6563C17.3384 32.5879 17.6313 32.5234 17.9302 32.4609C18.229 32.3984 18.4751 32.3535 18.7388 32.3105C18.8708 31.9841 18.9792 31.6486 19.063 31.3066C19.106 31.1113 19.1392 30.9395 19.1704 30.7695C19.4378 30.9873 19.719 31.1876 20.0122 31.3691C20.2931 31.5441 20.5833 31.7038 20.8813 31.8477C21.7094 32.2233 22.6018 32.4368 23.5103 32.4766C24.5241 32.4561 25.5223 32.2226 26.4399 31.791C26.7687 31.6271 27.0882 31.4452 27.397 31.2461C27.6958 31.0508 27.9438 30.8555 28.1313 30.709C28.186 30.9609 28.2544 31.2246 28.3384 31.502C28.4224 31.7793 28.5142 32.0605 28.6118 32.3105C28.8423 32.3496 29.0767 32.3926 29.3188 32.4434C29.6528 32.5078 29.9712 32.5801 30.2856 32.6563Z" fill="#843F2C"/>
<path opacity="0.2" d="M31.731 33.0391C31.5688 33.2227 31.4028 33.4023 31.231 33.5723C30.8519 33.9551 30.4452 34.3096 30.0142 34.6328C29.4459 35.0577 28.8256 35.4082 28.1685 35.6758C27.7553 35.8452 27.326 35.9721 26.8872 36.0547C26.5011 36.129 26.1085 36.1637 25.7153 36.1582C24.9421 36.1426 24.1786 35.9837 23.4634 35.6895L23.3345 35.6367C22.7645 35.3928 22.2245 35.0842 21.7251 34.7168C20.7824 34.0154 19.9508 33.1759 19.2583 32.2266C19.1489 32.0762 19.0415 31.9238 18.936 31.7656C18.9575 31.6973 18.9771 31.6289 18.9946 31.5566C19.0685 31.2999 19.1272 31.039 19.1704 30.7754C19.2837 30.8691 19.3989 30.959 19.5181 31.043C19.8342 31.274 20.1665 31.4822 20.5122 31.666C20.5454 31.6816 20.5786 31.7031 20.6138 31.7207C20.6489 31.7383 20.6938 31.7637 20.7368 31.7852L20.8813 31.8535L20.9673 31.8906L21.0396 31.9258L21.1294 31.9629L21.2134 31.998C21.227 32.0049 21.2415 32.0102 21.2563 32.0137C21.2898 32.0305 21.3244 32.0448 21.3599 32.0566C21.4009 32.0742 21.4438 32.0879 21.4907 32.1035C21.5415 32.1211 21.5845 32.1387 21.6313 32.1504L21.6626 32.1641C21.6958 32.1641 21.729 32.1855 21.7642 32.1934C21.8126 32.2122 21.8622 32.2279 21.9126 32.2402L21.981 32.2578L22.1177 32.2969C22.4069 32.3703 22.7014 32.4213 22.9985 32.4492C23.0298 32.4512 23.0611 32.4512 23.0923 32.4492C23.1124 32.4521 23.1328 32.4521 23.1528 32.4492C23.1958 32.4492 23.2329 32.4492 23.2759 32.4492H23.3833H23.6118C24.2532 32.4463 24.89 32.3415 25.4985 32.1387H25.5122L25.5845 32.1133C25.7114 32.0742 25.8364 32.0234 25.9634 31.9766L25.9985 31.959C26.0532 31.9395 26.104 31.9121 26.1587 31.8926C26.1724 31.8852 26.1868 31.8793 26.2017 31.875C26.7681 31.6188 27.3051 31.3018 27.8032 30.9297C27.9106 30.8477 28.0161 30.7676 28.1196 30.6855C28.1782 30.9512 28.2505 31.2363 28.3403 31.5332C28.4302 31.8301 28.5103 32.0527 28.6001 32.2871L28.813 32.3262L29.0259 32.3652L29.2349 32.4023C29.2856 32.416 29.3364 32.4238 29.3931 32.4375C29.4274 32.442 29.4614 32.4492 29.4946 32.459C29.7583 32.5137 30.022 32.5684 30.2759 32.6328C30.6899 32.7305 31.0942 32.8379 31.4985 32.9531L31.731 33.0391Z" fill="black"/>
<path d="M34.9439 22.1192C34.9146 23.127 34.2701 24.1484 33.5513 24.5234C33.4538 24.5738 33.351 24.6131 33.2447 24.6406H33.2232C33.0952 24.6717 32.9622 24.6756 32.8326 24.6524C32.6917 24.6244 32.5585 24.5664 32.442 24.4824L32.3873 24.4414C32.3074 24.3779 32.2347 24.3058 32.1705 24.2266C31.651 23.6016 31.4381 22.4258 31.7799 21.4922C31.92 21.1273 32.1334 20.7949 32.4068 20.5156C32.6379 20.2678 32.9368 20.0932 33.2662 20.0137C33.4176 19.9824 33.5738 19.9824 33.7252 20.0137C34.5767 20.1777 34.9713 21.2774 34.9439 22.1192Z" fill="#843F2C"/>
<path opacity="0.3" d="M34.9459 22.1191C34.9127 23.1289 34.2681 24.1465 33.5494 24.5254C33.4525 24.5737 33.3511 24.6124 33.2467 24.6406H33.2213C33.093 24.6688 32.9606 24.6735 32.8306 24.6543C32.6899 24.6248 32.5569 24.5662 32.44 24.4824L32.3853 24.4414C32.3059 24.3774 32.2333 24.3054 32.1685 24.2266C31.649 23.6016 31.4361 22.4258 31.7779 21.4922C31.9176 21.1271 32.1311 20.7947 32.4049 20.5156C32.5786 20.3357 32.7855 20.1911 33.0142 20.0899C33.0947 20.0553 33.1784 20.0291 33.2642 20.0117C33.4163 19.9805 33.5731 19.9805 33.7252 20.0117C33.7484 20.0157 33.7713 20.0216 33.7935 20.0293C34.5963 20.2363 34.9713 21.3008 34.9459 22.1191Z" fill="black"/>
<path d="M15.1764 24.2306C15.0967 24.3273 15.0048 24.4133 14.903 24.4864C14.7869 24.5711 14.6535 24.6292 14.5124 24.6564C14.3828 24.6799 14.2497 24.6759 14.1218 24.6446H14.0983C13.9924 24.6173 13.8901 24.5773 13.7936 24.5255C13.0729 24.1525 12.4264 23.131 12.3991 22.1232C12.3737 21.2814 12.7682 20.1818 13.6237 20.0099C14.11 19.9122 14.5768 20.1486 14.9421 20.5177C15.2174 20.7955 15.431 21.1283 15.569 21.4943C15.9069 22.4298 15.694 23.6056 15.1764 24.2306Z" fill="#843F2C"/>
<path d="M33.2586 20.0098L33.2469 20.2481C33.1531 21.6811 32.8592 23.0939 32.3738 24.4454C31.4715 26.9844 29.95 29.2403 28.1238 30.709C28.0203 30.7911 27.9149 30.8712 27.8074 30.9532C27.3093 31.3253 26.7724 31.6423 26.2059 31.8985C26.191 31.9028 26.1766 31.9087 26.1629 31.9161C26.1082 31.9356 26.0574 31.9629 26.0027 31.9825L25.9676 32.0001C25.8406 32.0469 25.7156 32.0977 25.5887 32.1368L25.5164 32.1622H25.5027C24.8943 32.365 24.2574 32.4698 23.616 32.4727H23.3875H23.2801C23.2371 32.4727 23.2 32.4727 23.157 32.4727C23.137 32.4756 23.1166 32.4756 23.0965 32.4727C23.0653 32.4747 23.034 32.4747 23.0027 32.4727C22.7056 32.4448 22.4111 32.3938 22.1219 32.3204L21.9852 32.2813L21.9168 32.2637C21.8664 32.2513 21.8168 32.2357 21.7684 32.2169C21.7332 32.2169 21.7 32.1954 21.6668 32.1876L21.6356 32.1739C21.5887 32.1622 21.5457 32.1446 21.4949 32.127C21.4481 32.1114 21.4051 32.0977 21.3641 32.0801C21.3286 32.0683 21.294 32.054 21.2606 32.0372C21.2457 32.0337 21.2313 32.0284 21.2176 32.0215L21.1336 31.9864L21.0438 31.9493L20.9715 31.9141L20.8856 31.877L20.741 31.8087C20.6981 31.7872 20.6551 31.7657 20.618 31.7442C20.5809 31.7227 20.5496 31.7051 20.5164 31.6895C20.1707 31.5057 19.8385 31.2975 19.5223 31.0665C19.4031 30.9825 19.2879 30.8926 19.1746 30.7989C18.8715 30.5602 18.5838 30.3025 18.3133 30.0274C18.0287 29.7506 17.76 29.4578 17.5086 29.1504C16.3352 27.7047 15.4375 26.0555 14.8602 24.2852C14.4719 23.1246 14.2215 21.9223 14.1141 20.7032C14.0965 20.5079 14.0848 20.3126 14.075 20.1036C14.0398 19.3986 14.0613 18.6919 14.1395 17.9903C14.1688 17.7051 14.2117 17.4239 14.2625 17.1426C14.3249 16.7937 14.405 16.4482 14.5027 16.1075C14.7282 15.2697 15.0302 14.4544 15.4051 13.6719C16.2274 11.9473 17.4149 10.3243 18.8973 9.16998C20.2469 8.1192 21.8445 7.45319 23.6414 7.44928C26.534 7.43756 28.9285 9.13678 30.6024 11.4239C31.2826 12.3527 31.8449 13.3624 32.2762 14.4297C32.3856 14.6993 32.4891 14.9669 32.5828 15.2403C32.7947 15.8648 32.9612 16.5039 33.0809 17.1524C33.1277 17.4239 33.1707 17.7012 33.2 17.9786C33.2711 18.6532 33.2907 19.3322 33.2586 20.0098Z" fill="#843F2C"/>
<path opacity="0.2" d="M30.2387 20.6328C29.2758 20.6074 27.7523 19.793 26.9047 19.2188C24.4164 17.5313 22.4867 14.3203 21.0941 14.2578C20.9455 14.2513 20.7971 14.2732 20.6566 14.3223C20.0258 14.5567 19.8129 15.3789 19.5863 16.1758C19.3109 17.1524 19.1273 17.793 19.0004 18.2031C18.9867 17.082 18.9652 15.8594 19.643 14.1309C19.8383 13.6152 20.098 13.086 20.6098 12.9004C20.8578 12.8067 21.6664 12.6094 23.723 14.5098C24.2644 14.9979 24.7605 15.534 25.2055 16.1113C26.8793 18.2969 26.8969 18.4668 27.7445 19.2207C28.9652 20.3008 29.7074 20.2442 30.2387 20.6328Z" fill="black"/>
<path d="M36.4888 32.0312C36.4009 32.2714 34.6997 32.207 33.2232 31.2773C31.5025 30.1953 30.2154 28.0195 30.1431 25.75C30.0708 23.3593 31.3872 22.4062 30.6451 21.1035C30.5477 20.9225 30.4148 20.7631 30.2544 20.6347C29.7232 20.2441 28.981 20.3027 27.7681 19.2207C26.9205 18.4668 26.9029 18.2968 25.229 16.1113C24.7841 15.5339 24.288 14.9979 23.7466 14.5097C21.6744 12.6074 20.8638 12.8046 20.6177 12.8906C20.106 13.0761 19.856 13.6054 19.6509 14.1211C18.9732 15.8535 18.9947 17.0722 19.0083 18.1933C19.0083 19.1464 19.0201 20.0273 18.5826 21.0937C17.649 23.3574 15.981 23.4218 15.8892 25.4238C15.8345 26.5488 16.3501 26.791 16.3208 28.2597C16.3208 28.7539 16.274 30.5859 15.1236 31.8222C13.2017 33.875 9.33842 33.0351 9.28764 32.6035C9.23686 32.1718 12.858 32.2129 13.5611 30.3418C14.1314 28.8183 11.9986 27.6679 12.3033 25.0683C12.4576 23.7382 13.0611 23.6328 13.5611 21.9921C14.2935 19.5644 13.313 18.6523 13.479 16.4082C13.7681 12.4902 17.1763 9.15035 20.2173 7.85933C21.1553 7.45433 22.1512 7.19989 23.1685 7.10543C27.2232 6.76168 30.274 9.24019 31.3931 10.3086C32.2115 11.0898 34.2603 13.0429 34.5962 15.8964C34.7331 17.1768 34.6672 18.4707 34.4009 19.7304C33.8599 22.6777 32.9068 23.0058 32.7056 25.3828C32.6255 26.3281 32.4712 28.1679 33.524 29.7148C34.6685 31.3828 36.5767 31.7695 36.4888 32.0312Z" fill="#2D2D2D"/>
</svg>
