<svg width="48" height="48" viewBox="0 0 48 48" fill="none" xmlns="http://www.w3.org/2000/svg">
<path d="M47.3366 23.6621C47.3455 29.2297 45.3825 34.6207 41.7956 38.8789C41.2313 39.5518 40.6295 40.1921 39.9928 40.7969H7.46352C6.84239 40.2555 6.25533 39.6763 5.70571 39.0625L5.54555 38.8672C4.17837 37.248 -0.218119 31.5078 0.00844355 23.6543C0.328756 12.7832 9.47524 0 23.6745 0C29.95 0 35.9686 2.49296 40.4061 6.93047C44.8436 11.368 47.3366 17.3865 47.3366 23.6621Z" fill="white"/>
<path d="M41.7974 38.8809C41.2299 39.5508 40.6275 40.1903 39.9927 40.7969C35.5973 44.9937 29.7516 47.332 23.6743 47.3242C15.981 47.3242 10.2153 43.2383 7.46338 40.7969C6.84358 40.2541 6.2566 39.675 5.70557 39.0625C5.6626 39.0059 5.60596 38.9453 5.54541 38.8672C8.18994 36.207 11.7427 34.1387 15.8325 32.9687C16.9771 35.8184 20.0513 37.8516 23.6685 37.8516C27.0278 37.8516 29.9185 36.0937 31.229 33.5547C31.3325 33.3594 31.4243 33.1641 31.5044 32.957C31.5786 32.9785 31.6294 32.9902 31.729 33.0215C35.731 34.2227 39.2056 36.2637 41.7974 38.8809Z" fill="black"/>
<path d="M31.5063 32.9746C31.4243 33.1699 31.3345 33.3652 31.231 33.5723C29.9185 36.1113 27.0298 37.8691 23.6704 37.8691C20.0532 37.8691 16.979 35.8281 15.8345 32.9863C15.9204 32.9609 16.0063 32.9395 16.0923 32.9121C16.1353 32.9121 16.1743 32.8906 16.2173 32.8789C16.2603 32.8672 16.3071 32.8574 16.3501 32.8438C16.3648 32.8404 16.3791 32.8358 16.3931 32.8301C16.3931 32.8301 16.7349 32.7402 17.0571 32.668C17.6598 33.9092 18.5996 34.9558 19.7691 35.6881C20.9386 36.4203 22.2906 36.8086 23.6704 36.8086C25.0502 36.8086 26.4022 36.4203 27.5717 35.6881C28.7412 34.9558 29.681 33.9092 30.2837 32.668C30.7018 32.7219 31.1122 32.8249 31.5063 32.9746Z" fill="#7C211A"/>
<path d="M30.2837 32.6562C29.5624 34.1367 28.3669 35.3336 26.8872 36.0566C26.0185 36.479 25.0751 36.7261 24.1109 36.7838C23.1467 36.8415 22.1806 36.7087 21.2677 36.3929C20.3549 36.0771 19.5132 35.5846 18.7907 34.9435C18.0682 34.3023 17.4792 33.5251 17.0571 32.6562C17.3188 32.5918 17.5825 32.5312 17.8501 32.4785C17.9146 32.4668 17.979 32.4531 18.0454 32.4355C18.0806 32.4355 18.1099 32.4238 18.145 32.418L18.313 32.3848L18.5454 32.3457C18.6001 32.332 18.6606 32.3242 18.7212 32.3105H18.7388C18.8032 32.1426 18.8716 31.9629 18.9341 31.7637C18.9556 31.6992 18.977 31.627 18.9985 31.5684C19.0707 31.3117 19.1268 31.0508 19.1665 30.7871C19.5839 31.1277 20.034 31.426 20.5103 31.6777C20.5454 31.6953 20.5786 31.7129 20.6138 31.7344L20.7349 31.7949L20.8813 31.8633L20.9673 31.9023C20.9888 31.916 21.0142 31.9238 21.0396 31.9375C21.069 31.9486 21.0977 31.9616 21.1255 31.9766L21.2114 32.0098L21.2485 32.0273L21.3521 32.0664C21.3911 32.084 21.4341 32.0996 21.481 32.1172L21.6235 32.1699H21.6528C21.6821 32.1836 21.7173 32.1914 21.7524 32.2051C21.7876 32.2188 21.8501 32.2344 21.8989 32.248C21.9478 32.2617 21.9458 32.2598 21.9712 32.2656L22.104 32.3027C22.3949 32.3725 22.6897 32.4247 22.9868 32.459H23.0786H23.1431C23.1821 32.459 23.2192 32.459 23.2622 32.4688H23.3716C23.4087 32.4688 23.4517 32.4688 23.4907 32.4688H23.5981C24.2413 32.4675 24.8799 32.3613 25.4888 32.1543C25.4932 32.1559 25.498 32.1559 25.5024 32.1543C25.526 32.1498 25.5489 32.1426 25.5708 32.1328C25.7251 32.082 25.8599 32.0254 25.9849 31.9785L26.147 31.9082C26.1606 31.9082 26.1743 31.8965 26.1919 31.8926C26.887 31.5952 27.533 31.1941 28.1079 30.7031C28.1665 30.9714 28.2407 31.2546 28.3306 31.5527C28.4126 31.8184 28.4985 32.0684 28.5845 32.3047C28.6587 32.3184 28.7271 32.3262 28.7993 32.3438C28.8716 32.3613 28.9419 32.3691 29.0103 32.3828L29.2231 32.4219C29.2739 32.4219 29.3247 32.4434 29.3774 32.4512C29.4302 32.459 29.4458 32.4648 29.481 32.4727C29.7622 32.5352 30.0259 32.5918 30.2837 32.6562Z" fill="#843F2C"/>
<path d="M37.1041 14.6757C37.106 14.8346 37.0829 14.9927 37.0357 15.1444C36.7252 16.2382 35.6568 16.3495 35.4596 17.3065C35.4205 17.4823 35.4771 17.3925 35.4596 17.9335C35.4459 18.3241 35.4166 19.2128 35.1627 19.7948C35.0187 20.1041 34.7998 20.3726 34.526 20.5761C34.4357 20.4324 34.318 20.3078 34.1796 20.2096C34.0412 20.1114 33.8848 20.0415 33.7193 20.0038C33.5678 19.9736 33.4118 19.9736 33.2603 20.0038C33.3057 19.0456 33.2448 18.0853 33.0787 17.1405C32.9628 16.4933 32.7969 15.8559 32.5826 15.2343C32.4928 14.9628 32.3873 14.6913 32.2818 14.4257C31.8455 13.3603 31.2829 12.3511 30.606 11.4198C28.9283 9.13272 26.5279 7.4335 23.6412 7.44131C21.9108 7.46709 20.2392 8.0738 18.8951 9.16397C17.4146 10.3183 16.2252 11.9413 15.3951 13.6718C14.8678 14.7757 14.4869 15.9438 14.2623 17.1464C14.0918 18.0907 14.0263 19.051 14.067 20.0097C13.9165 19.9764 13.7605 19.9764 13.6099 20.0097C13.4177 20.0575 13.2381 20.1465 13.0836 20.2707C12.9292 20.3948 12.8035 20.551 12.7154 20.7284C12.4458 20.5438 12.2258 20.2956 12.0748 20.0058C11.6314 19.0702 12.2896 18.5507 11.8287 17.5858C11.4205 16.7284 10.6451 16.6464 10.4264 15.6562C10.3765 15.414 10.3647 15.1656 10.3912 14.9198C10.4947 14.0038 11.0494 13.9433 11.2349 13.2206C11.4947 12.1913 10.5553 11.5917 10.9732 10.3261C10.9973 10.2326 11.0334 10.1427 11.0807 10.0585C11.6139 9.12881 13.0787 9.81827 13.815 9.06436C14.4908 8.371 13.7662 7.24795 14.731 6.30069C14.8481 6.17344 14.987 6.06826 15.1412 5.99014C16.2252 5.46475 17.2545 6.94717 18.2154 6.57608C18.981 6.2792 18.7096 5.20889 19.8033 4.57412C20.1931 4.34705 20.6398 4.23656 21.0904 4.25577C22.3307 4.32412 22.6314 5.43936 23.4342 5.33194C24.2037 5.22452 24.1705 4.17764 25.2213 3.8417C25.5125 3.7516 25.8194 3.72347 26.1221 3.75913C26.4248 3.79479 26.7168 3.89344 26.9791 4.04873C27.9439 4.64639 27.6627 5.72256 28.4342 6.01162C29.0553 6.24795 29.3951 5.59366 30.5924 5.66397C30.983 5.68545 31.526 5.71866 31.9947 6.05459C33.0709 6.81241 32.3873 8.20303 33.3639 8.90616C34.0475 9.4003 34.7447 8.97842 35.731 9.74991C35.9447 9.8883 36.1244 10.0733 36.2564 10.2909C36.7486 11.1659 35.7799 11.8417 36.0982 12.8495C36.356 13.6327 37.1041 13.8007 37.1041 14.6757Z" fill="#2D2D2D"/>
<path opacity="0.2" d="M31.731 33.0391C31.5669 33.2344 31.4028 33.4004 31.231 33.5723C30.8512 33.9551 30.4439 34.3096 30.0122 34.6328C29.4441 35.0563 28.8254 35.4074 28.1704 35.6777C27.7559 35.8451 27.3262 35.972 26.8872 36.0566C26.5011 36.1305 26.1084 36.1639 25.7153 36.1562C24.9422 36.1437 24.1783 35.986 23.4634 35.6914C23.4204 35.6738 23.3774 35.6562 23.3345 35.6348C22.7644 35.3915 22.2238 35.0842 21.7231 34.7187C20.781 34.0179 19.9511 33.1775 19.2622 32.2266C19.1489 32.0762 19.0415 31.9219 18.9341 31.7656C18.9556 31.7012 18.977 31.6289 18.9985 31.5703C19.0707 31.3136 19.1268 31.0527 19.1665 30.7891C19.2837 30.8789 19.3989 30.9707 19.52 31.0566C19.8353 31.2869 20.1662 31.4951 20.5103 31.6797C20.5454 31.6973 20.5786 31.7148 20.6138 31.7363L20.7349 31.7969L20.8813 31.8652L20.9673 31.9043L21.0396 31.9395C21.069 31.9505 21.0977 31.9636 21.1255 31.9785L21.2114 32.0117L21.2485 32.0293L21.3521 32.0684L21.481 32.1191L21.6235 32.1719H21.6528C21.6821 32.1855 21.7173 32.1934 21.7524 32.207C21.7876 32.2207 21.8501 32.2363 21.8989 32.25C21.9478 32.2637 21.9458 32.2617 21.9712 32.2676L22.104 32.3047C22.3942 32.3778 22.6892 32.4301 22.9868 32.4609H23.0786H23.1431C23.1821 32.4609 23.2192 32.4609 23.2622 32.4707H23.3716C23.4087 32.4707 23.4517 32.4707 23.4907 32.4707H23.5981C24.2409 32.4657 24.8789 32.3596 25.4888 32.1562C25.4932 32.1579 25.498 32.1579 25.5024 32.1562C25.526 32.1518 25.5489 32.1446 25.5708 32.1348C25.6997 32.0918 25.8247 32.0449 25.9497 31.9922L25.9849 31.9805C26.0396 31.959 26.0923 31.9336 26.147 31.9102C26.1606 31.9102 26.1743 31.8984 26.1919 31.8945C26.7573 31.6355 27.2941 31.318 27.7935 30.9473C27.9009 30.8691 28.0044 30.7871 28.1079 30.7051C28.1665 30.9733 28.2407 31.2565 28.3306 31.5547C28.4126 31.8203 28.4985 32.0703 28.5845 32.3066C28.6587 32.3203 28.7271 32.3281 28.7993 32.3457C28.8716 32.3633 28.9419 32.3711 29.0103 32.3848L29.2231 32.4238C29.2739 32.4238 29.3247 32.4453 29.3774 32.4531C29.4302 32.4609 29.4458 32.4668 29.481 32.4746C29.7466 32.5312 30.0103 32.5879 30.2622 32.6523C30.6763 32.7461 31.0845 32.8477 31.4849 32.9707L31.731 33.0391Z" fill="black"/>
<path d="M34.9439 22.1191C34.9146 23.1269 34.2701 24.1465 33.5494 24.5215C33.4529 24.5726 33.3506 24.6119 33.2447 24.6387H33.2213C33.0932 24.6688 32.9603 24.6728 32.8306 24.6504C32.6898 24.6224 32.5565 24.5644 32.44 24.4805L32.3853 24.4394C32.3055 24.3759 32.2328 24.3039 32.1685 24.2246C31.649 23.5976 31.4361 22.4238 31.7779 21.4902C31.918 21.1253 32.1314 20.793 32.4049 20.5137C32.6367 20.2663 32.9352 20.0913 33.2642 20.0098C33.4157 19.9795 33.5717 19.9795 33.7232 20.0098C34.5748 20.1777 34.9713 21.2754 34.9439 22.1191Z" fill="#843F2C"/>
<path opacity="0.3" d="M34.942 22.1191C34.9127 23.1269 34.2721 24.1484 33.5475 24.5215C33.4523 24.5726 33.3513 24.612 33.2467 24.6387C33.2383 24.6404 33.2297 24.6404 33.2213 24.6387C33.0937 24.6724 32.9602 24.6771 32.8307 24.6523C32.6899 24.6249 32.5568 24.5676 32.44 24.4844C32.4224 24.4685 32.4034 24.4541 32.3834 24.4414C32.3037 24.3776 32.2316 24.3049 32.1685 24.2246C31.6822 23.6387 31.4674 22.5762 31.7252 21.6758C31.7428 21.6113 31.7642 21.5508 31.7857 21.4922C31.9254 21.1266 32.1396 20.794 32.4146 20.5156C32.6446 20.2669 32.9429 20.0916 33.2721 20.0117C33.4236 19.9815 33.5795 19.9815 33.731 20.0117C33.8965 20.0494 34.0529 20.1193 34.1913 20.2175C34.3297 20.3157 34.4474 20.4402 34.5377 20.584C34.8235 21.0435 34.9644 21.5784 34.942 22.1191Z" fill="black"/>
<path d="M15.1764 24.2286C15.1057 24.3176 15.0244 24.3976 14.9342 24.4669C14.9342 24.4669 14.9127 24.4786 14.9049 24.4883C14.7878 24.571 14.6548 24.6282 14.5143 24.6563C14.3845 24.6787 14.2515 24.674 14.1237 24.6426C14.1166 24.6442 14.1093 24.6442 14.1022 24.6426C13.9957 24.6156 13.8928 24.5763 13.7955 24.5254C13.0768 24.1524 12.4283 23.1309 12.401 22.1231C12.3873 21.6372 12.5018 21.1562 12.733 20.7286C12.8212 20.5511 12.9468 20.3949 13.1012 20.2708C13.2557 20.1467 13.4353 20.0577 13.6276 20.0098C13.7781 19.9765 13.9341 19.9765 14.0846 20.0098C14.4097 20.0882 14.7041 20.2615 14.9303 20.5079C15.2055 20.7862 15.4197 21.1187 15.5592 21.4844C15.5937 21.5789 15.6224 21.6755 15.6451 21.7735C15.86 22.6563 15.6412 23.67 15.1764 24.2286Z" fill="#843F2C"/>
<path d="M33.2602 20.0098C33.2427 20.4355 33.2036 20.8633 33.143 21.2891C32.9962 22.366 32.7343 23.4242 32.3618 24.4453C31.4575 26.9844 29.9419 29.2363 28.1137 30.709C28.0102 30.791 27.9067 30.873 27.7993 30.9512C27.3 31.3219 26.7632 31.6394 26.1977 31.8984C26.1802 31.8984 26.1665 31.9102 26.1528 31.9141C26.0981 31.9375 26.0454 31.9629 25.9907 31.9844L25.9555 31.9961C25.8305 32.0488 25.7055 32.0957 25.5766 32.1387C25.5548 32.1485 25.5318 32.1557 25.5083 32.1602C25.5039 32.1618 25.499 32.1618 25.4946 32.1602C24.8848 32.3635 24.2468 32.4696 23.604 32.4746H23.4966C23.4575 32.4746 23.4145 32.4746 23.3774 32.4746H23.268C23.2251 32.4746 23.188 32.4746 23.1489 32.4648H23.0844H22.9927C22.695 32.434 22.4 32.3817 22.1098 32.3086L21.977 32.2715C21.9516 32.2715 21.9302 32.2578 21.9048 32.2539C21.8794 32.25 21.8052 32.2227 21.7583 32.2109C21.7114 32.1992 21.688 32.1895 21.6587 32.1758H21.6294L21.4868 32.123L21.3579 32.0723L21.2544 32.0332L21.2173 32.0156L21.1313 31.9824C21.1036 31.9675 21.0749 31.9545 21.0454 31.9434L20.9731 31.9082L20.8872 31.8691L20.7407 31.8008L20.6196 31.7402C20.5844 31.7188 20.5512 31.7012 20.5161 31.6836C20.172 31.499 19.8412 31.2908 19.5259 31.0605C19.4048 30.9746 19.2895 30.8828 19.1723 30.793C18.5632 30.3005 18.0063 29.7468 17.5102 29.1406C16.3829 27.7562 15.5124 26.1813 14.9399 24.4902C14.9106 24.4199 14.8891 24.3477 14.8618 24.2734C14.5503 23.3496 14.3286 22.398 14.1997 21.4316C14.1645 21.1992 14.1391 20.9668 14.1177 20.7305C14.1001 20.5352 14.0884 20.3398 14.0786 20.1328C14.0786 20.0977 14.0786 20.0684 14.0786 20.0332C14.0379 19.0745 14.1034 18.1142 14.2739 17.1699C14.4928 15.9599 14.8697 14.7838 15.395 13.6719C16.2173 11.9453 17.4067 10.3223 18.8872 9.16797C20.2313 8.0778 21.9028 7.47109 23.6333 7.44531C26.5259 7.44531 28.9204 9.13672 30.5942 11.4238C31.2711 12.3551 31.8337 13.3643 32.27 14.4297C32.3774 14.6953 32.4809 14.9668 32.5708 15.2383C32.7867 15.8617 32.9539 16.501 33.0708 17.1504C33.2392 18.0936 33.3027 19.0526 33.2602 20.0098Z" fill="#843F2C"/>
<path opacity="0.2" d="M33.229 18.2871C32.721 18.2588 32.2188 18.1649 31.7349 18.0078L31.6567 17.9765C30.1157 17.4472 30.1587 16.5 28.8931 16.1738C27.4634 15.8066 26.9302 16.8926 25.3618 16.4844C24.1704 16.1738 24.2036 15.4765 23.2407 15.4023C21.8071 15.2949 21.2388 16.9101 20.0317 16.664C19.2505 16.5058 19.1763 15.7597 18.2231 15.5488C17.6076 15.4472 16.9759 15.5647 16.438 15.8808C16.8989 15.4375 17.0239 14.9043 17.6782 14.7441C18.5825 14.5156 18.8794 15.4414 20.0415 15.4277C21.5493 15.4121 21.9028 14.0605 23.2505 14.1679C24.2134 14.2402 24.1802 14.9375 25.3716 15.248C26.9341 15.6562 27.4731 14.5683 28.9028 14.9375C30.1685 15.2656 30.1255 16.2129 31.6665 16.7422C32.1198 16.9022 32.5917 17.0033 33.0708 17.0429C33.0708 17.0429 33.0962 17.25 33.1528 17.6543C33.2212 18.248 33.229 18.2871 33.229 18.2871Z" fill="black"/>
<path d="M34.2879 16.7421C34.1244 16.8803 33.9267 16.9721 33.7156 17.0078L33.6473 17.0214C33.4534 17.0512 33.2568 17.0584 33.0613 17.0429C32.5823 17.0033 32.1103 16.9022 31.657 16.7421C30.116 16.2128 30.159 15.2656 28.8934 14.9374C27.4637 14.5683 26.9305 15.6562 25.3621 15.248C24.1707 14.9374 24.2039 14.2402 23.241 14.1679C21.8934 14.0644 21.5398 15.4121 20.032 15.4277C18.8699 15.4413 18.573 14.5156 17.6688 14.7441C17.0145 14.9081 16.8875 15.4374 16.4285 15.8808C16.269 16.042 16.0826 16.1742 15.8777 16.2714C15.4135 16.4788 14.9034 16.5623 14.3973 16.5136C13.8504 16.4609 13.3465 16.2538 13.0926 15.9062C12.3719 14.916 13.6902 12.9257 14.2508 12.0742C17.2 7.61713 22.327 6.68353 22.9949 6.57611C23.1668 6.54682 23.3855 6.51166 23.7059 6.4765C25.2723 6.30854 28.6766 6.24994 31.4109 8.60736C34.3523 11.1445 35.4813 15.6738 34.2879 16.7421Z" fill="#2D2D2D"/>
</svg>
