<svg width="48" height="48" viewBox="0 0 48 48" fill="none" xmlns="http://www.w3.org/2000/svg">
<path d="M47.1647 23.5781C47.1726 29.1256 45.2166 34.4969 41.6432 38.7402C41.0794 39.4098 40.4796 40.0481 39.8464 40.6523H7.42448C6.80641 40.1124 6.2226 39.5345 5.67644 38.9219C5.62956 38.8691 5.57683 38.8066 5.51823 38.7363C4.16472 37.123 -0.218093 31.4023 0.00846909 23.5781C0.322922 12.7363 9.43816 0 23.5866 0C29.8399 0 35.8371 2.48412 40.2588 6.90587C44.6806 11.3276 47.1647 17.3248 47.1647 23.5781Z" fill="white"/>
<path d="M23.5454 11.084C25.9304 11.084 27.8638 9.15059 27.8638 6.76562C27.8638 4.38066 25.9304 2.44727 23.5454 2.44727C21.1604 2.44727 19.2271 4.38066 19.2271 6.76562C19.2271 9.15059 21.1604 11.084 23.5454 11.084Z" fill="#2D2D2D"/>
<path opacity="0.2" d="M23.5454 11.084C25.9304 11.084 27.8638 9.15059 27.8638 6.76562C27.8638 4.38066 25.9304 2.44727 23.5454 2.44727C21.1604 2.44727 19.2271 4.38066 19.2271 6.76562C19.2271 9.15059 21.1604 11.084 23.5454 11.084Z" fill="#050505"/>
<path d="M41.6411 38.7402C39.9855 40.7207 38.0136 42.4135 35.8052 43.75C32.1241 45.9906 27.8958 47.1713 23.5864 47.1621C18.5669 47.1621 14.3735 45.418 11.3052 43.5293C9.93306 42.6874 8.63654 41.7281 7.43018 40.6621C6.81264 40.1222 6.23008 39.5436 5.68604 38.9297C5.63916 38.8789 5.58447 38.8145 5.52393 38.7344C6.97297 37.2866 8.61948 36.0511 10.4146 35.0645C12.1098 34.1272 13.9066 33.3867 15.77 32.8574C18.3625 35.1491 20.9523 37.4395 23.5396 39.7285C26.158 37.4382 28.7739 35.1478 31.3872 32.8574C31.4419 32.875 31.4985 32.8867 31.5532 32.9043C31.571 32.9116 31.5892 32.9175 31.6079 32.9219C33.3888 33.4468 35.1077 34.1625 36.7349 35.0566C38.5342 36.0495 40.1857 37.2894 41.6411 38.7402Z" fill="black"/>
<path d="M31.3911 32.8574C28.7778 35.1491 26.1619 37.4395 23.5435 39.7285C20.9562 37.4382 18.3664 35.1478 15.7739 32.8574C16.1654 32.7031 16.5739 32.5963 16.9907 32.5391C19.173 34.4141 21.356 36.2871 23.5395 38.1582C25.7531 36.2806 27.9666 34.4076 30.1802 32.5391C30.5945 32.5996 31.0006 32.7063 31.3911 32.8574Z" fill="#7C211A"/>
<path d="M30.1743 32.5391C27.9608 34.4102 25.7472 36.2832 23.5337 38.1582C21.3566 36.2871 19.1756 34.4141 16.9907 32.5391C17.272 32.4707 17.5649 32.4082 17.8618 32.3438C18.1587 32.2793 18.4048 32.2383 18.6685 32.1953C18.7998 31.8695 18.9075 31.5347 18.9907 31.1934C19.0337 30.998 19.0669 30.8281 19.0962 30.6582C19.3629 30.876 19.6434 31.0763 19.936 31.2578C20.2162 31.4318 20.5057 31.5902 20.8032 31.7324C21.6276 32.107 22.5159 32.3205 23.4204 32.3613C24.4283 32.3399 25.4204 32.107 26.3325 31.6777C26.6603 31.5138 26.9791 31.3325 27.2876 31.1348C27.5845 30.9395 27.8306 30.7441 28.0181 30.5996C28.0728 30.8496 28.1411 31.1133 28.2251 31.3809C28.3091 31.6484 28.3989 31.9375 28.4966 32.1875C28.7271 32.2266 28.9595 32.2676 29.2017 32.3184C29.5376 32.3906 29.8599 32.4629 30.1743 32.5391Z" fill="#E59973"/>
<path opacity="0.2" d="M31.6118 32.9219C31.4517 33.1035 31.2856 33.2812 31.1157 33.4512C30.7378 33.8333 30.3317 34.1865 29.9009 34.5078C29.336 34.932 28.719 35.2818 28.0649 35.5488C27.6525 35.7159 27.2247 35.8422 26.7876 35.9258C26.4015 35.9996 26.0088 36.0337 25.6157 36.0273C24.8444 36.0135 24.0826 35.8551 23.3696 35.5605L23.2427 35.5098C22.6754 35.2657 22.1375 34.9584 21.6392 34.5937C20.7015 33.8941 19.8745 33.0572 19.186 32.1113C19.0747 31.9609 18.9692 31.8086 18.8638 31.6523C18.8853 31.584 18.9048 31.5156 18.9224 31.4434C18.9959 31.1867 19.0539 30.9258 19.0962 30.6621C19.2114 30.7559 19.3267 30.8457 19.4438 30.9297C19.759 31.1596 20.0899 31.3671 20.4341 31.5508C20.4673 31.5664 20.5005 31.5879 20.5356 31.6055C20.5708 31.623 20.6157 31.6465 20.6587 31.668L20.8032 31.7363L20.8872 31.7754C20.9126 31.7871 20.938 31.8008 20.9595 31.8086L21.0493 31.8477L21.1333 31.8809C21.1469 31.8884 21.1613 31.8943 21.1763 31.8984C21.2095 31.9141 21.2446 31.9277 21.2778 31.9395C21.311 31.9512 21.3638 31.9707 21.4087 31.9863C21.4595 32.0039 21.5005 32.0215 21.5474 32.0332L21.5786 32.0469C21.6118 32.0469 21.645 32.0684 21.6802 32.0762C21.7286 32.095 21.7782 32.1107 21.8286 32.123C21.8519 32.1268 21.8748 32.1327 21.897 32.1406L22.0317 32.1777C22.3203 32.2512 22.6142 32.3021 22.9106 32.3301C22.9415 32.3365 22.9729 32.3398 23.0044 32.3398C23.0239 32.3418 23.0435 32.3418 23.063 32.3398C23.106 32.3398 23.1431 32.3398 23.186 32.3398C23.229 32.3398 23.2544 32.3398 23.2915 32.3496H23.522C24.1607 32.3459 24.7949 32.241 25.4009 32.0391H25.4146L25.4868 32.0137C25.6138 31.9746 25.7368 31.9238 25.8638 31.877L25.8989 31.8613L26.0591 31.793C26.0728 31.793 26.0845 31.7793 26.1021 31.7754C26.6663 31.52 27.2013 31.2044 27.6978 30.834L28.0122 30.5918C28.0708 30.8555 28.1431 31.1387 28.2329 31.4355C28.313 31.7031 28.4028 31.9531 28.4907 32.1875L28.7036 32.2266L28.9165 32.2637L29.1235 32.3027C29.1743 32.3145 29.2251 32.3223 29.2798 32.3359C29.3147 32.3412 29.3492 32.3484 29.3833 32.3574C29.645 32.4121 29.9087 32.4668 30.1645 32.5312C30.5747 32.6289 30.979 32.7266 31.3813 32.8496L31.6118 32.9219Z" fill="black"/>
<path d="M34.8153 22.0391C34.786 23.043 34.1434 24.0606 33.4266 24.4356C33.3296 24.485 33.2274 24.5236 33.1219 24.5508H33.0985C32.9705 24.5814 32.8375 24.5854 32.7079 24.5625C32.5667 24.5353 32.4334 24.4773 32.3172 24.3926C32.2982 24.38 32.2799 24.3663 32.2626 24.3516C32.1822 24.2886 32.1095 24.2165 32.0458 24.1367C31.5282 23.5137 31.3172 22.3438 31.6551 21.4024C31.7937 21.0371 32.0065 20.7046 32.2801 20.4258C32.5095 20.1778 32.8072 20.0031 33.1356 19.9238C33.2863 19.8926 33.4419 19.8926 33.5926 19.9238C34.4481 20.1055 34.8407 21.2012 34.8153 22.0391Z" fill="#E59973"/>
<path opacity="0.3" d="M34.8173 22.0391C34.7821 23.045 34.1415 24.0586 33.4247 24.4375C33.3285 24.4859 33.2278 24.5245 33.1239 24.5528H33.0985C32.9703 24.5815 32.8377 24.5855 32.7079 24.5645C32.5672 24.5361 32.434 24.4782 32.3173 24.3946L32.2626 24.3536C32.1837 24.2897 32.1111 24.2184 32.0458 24.1407C31.5282 23.5176 31.3173 22.3457 31.6649 21.4063C31.803 21.0413 32.0152 20.7088 32.288 20.4297C32.462 20.2514 32.668 20.1076 32.8954 20.0059C32.9756 19.9711 33.0595 19.9456 33.1454 19.9297C33.2967 19.8974 33.4531 19.8974 33.6044 19.9297C33.6259 19.9297 33.6513 19.9297 33.6728 19.9473C34.4696 20.1641 34.8427 21.2247 34.8173 22.0391Z" fill="black"/>
<path d="M15.1179 24.1445C15.0387 24.2406 14.9475 24.3259 14.8464 24.3984C14.7352 24.4794 14.6078 24.5355 14.473 24.5628C14.3382 24.5901 14.1991 24.588 14.0651 24.5566H14.0417C13.9359 24.5296 13.8336 24.4903 13.737 24.4395C13.0202 24.0664 12.3796 23.0488 12.3483 22.0449C12.3229 21.207 12.7155 20.1113 13.569 19.9414C14.0534 19.8438 14.5182 20.0781 14.8835 20.4453C15.1569 20.7243 15.3697 21.0568 15.5085 21.4219C15.8464 22.3496 15.6335 23.5195 15.1179 24.1445Z" fill="#E59973"/>
<path d="M33.1356 19.9395C33.1356 20.0157 33.1356 20.0958 33.1239 20.1759C33.0305 21.6036 32.7373 23.0112 32.2528 24.3575C31.3543 26.8966 29.8387 29.1348 28.0184 30.6075L27.7039 30.8497C27.2075 31.2201 26.6725 31.5357 26.1082 31.7911C26.0907 31.7911 26.0789 31.8048 26.0653 31.8087L25.9051 31.877L25.87 31.8927C25.743 31.9395 25.62 31.9903 25.493 32.0294L25.4207 32.0548H25.4071C24.8011 32.2567 24.1669 32.3616 23.5282 32.3653H23.3055C23.2684 32.3653 23.2332 32.3653 23.2 32.3556C23.1668 32.3458 23.12 32.3556 23.077 32.3556C23.0575 32.3575 23.0379 32.3575 23.0184 32.3556C22.9869 32.3555 22.9555 32.3522 22.9246 32.3458C22.6282 32.3178 22.3343 32.2669 22.0457 32.1934L21.911 32.1563C21.8888 32.1484 21.8659 32.1425 21.8426 32.1388C21.7922 32.1264 21.7426 32.1107 21.6942 32.0919C21.659 32.0919 21.6258 32.0704 21.5926 32.0626L21.5477 32.0313C21.5008 32.0196 21.4598 32.002 21.409 31.9845C21.3641 31.9688 21.3211 31.9552 21.2782 31.9376C21.2352 31.92 21.2098 31.9122 21.1766 31.8966C21.1616 31.8924 21.1472 31.8865 21.1336 31.879L21.0496 31.8458L20.9598 31.8067C20.9383 31.8067 20.9129 31.7852 20.8875 31.7735L20.8035 31.7345L20.659 31.6661C20.616 31.6446 20.5731 31.6251 20.536 31.6036C20.4989 31.5821 20.4676 31.5645 20.4344 31.5489C20.0902 31.3653 19.7593 31.1577 19.4442 30.9278C19.327 30.8438 19.2118 30.754 19.0965 30.6602C18.7947 30.4229 18.5083 30.1665 18.2391 29.8927C17.9557 29.6165 17.6884 29.3243 17.4383 29.0177C16.2694 27.5774 15.3744 25.935 14.7977 24.172C14.4161 23.0273 14.1683 21.8423 14.0594 20.6407C14.0418 20.4454 14.0301 20.2501 14.0203 20.0431C13.9851 19.3406 14.0066 18.6365 14.0848 17.9376C14.1141 17.6524 14.1571 17.3731 14.2078 17.0919C14.27 16.7444 14.3495 16.4002 14.4461 16.0606C14.6709 15.2231 14.9716 14.4079 15.3446 13.6251C16.1649 11.9063 17.3485 10.2891 18.825 9.13289C20.1637 8.04661 21.8297 7.44379 23.5535 7.42196C26.4344 7.40829 28.827 9.10164 30.4871 11.3809C31.1654 12.3065 31.7257 13.3129 32.1551 14.377C32.2664 14.6446 32.368 14.9122 32.4618 15.1837C32.6728 15.8057 32.8386 16.4421 32.9578 17.088C33.0047 17.3595 33.0477 17.6368 33.077 17.9122C33.1473 18.5856 33.1669 19.2632 33.1356 19.9395Z" fill="#E59973"/>
<path opacity="0.2" d="M30.1278 20.5587C29.1688 20.5333 27.6493 19.7227 26.8075 19.1485C24.329 17.4688 22.4071 14.2657 21.0185 14.2051C20.8705 14.1977 20.7224 14.2196 20.5829 14.2696C19.954 14.502 19.7411 15.3204 19.5165 16.1153C19.2411 17.0919 19.0575 17.7286 18.9306 18.1348C18.9169 17.0196 18.8954 15.8048 19.5712 14.0782C19.7665 13.5645 20.0243 13.0372 20.5341 12.8516C20.7802 12.7579 21.5868 12.5626 23.6356 14.4551C24.1751 14.9419 24.6699 15.4759 25.1142 16.0508C26.7821 18.2286 26.7978 18.3946 27.6532 19.1485C28.8583 20.2266 29.5966 20.1719 30.1278 20.5587Z" fill="black"/>
<path d="M36.3482 31.9161C36.2583 32.1524 34.565 32.0899 33.0923 31.1641C31.3794 30.086 30.0962 27.918 30.024 25.6544C29.9537 23.2735 31.2642 22.334 30.5259 21.0254C30.4286 20.8451 30.2957 20.6863 30.1353 20.5586C29.604 20.168 28.8658 20.2266 27.6568 19.1485C26.8111 18.3985 26.7955 18.2286 25.1177 16.0508C24.6741 15.4753 24.18 14.9407 23.6412 14.4532C21.5923 12.5606 20.7857 12.7559 20.5396 12.8497C20.0298 13.045 19.7798 13.5626 19.5767 14.0762C18.9009 15.8028 18.9224 17.0176 18.9361 18.1329C18.9361 19.084 18.9478 19.9629 18.5103 21.0235C17.5806 23.2715 15.9224 23.336 15.8287 25.3204C15.774 26.4415 16.2876 26.6876 16.2583 28.1485C16.2583 28.6407 16.2115 30.4649 15.065 31.6954C13.1509 33.7403 9.30131 32.9043 9.25053 32.4766C9.19975 32.0489 12.8072 32.086 13.5064 30.2227C14.0767 28.7032 11.9439 27.5567 12.2544 24.9629C12.4087 23.6407 13.0103 23.5333 13.5064 21.9004C14.2369 19.4805 13.2603 18.5801 13.4263 16.336C13.7154 12.4297 17.1099 9.10943 20.1412 7.81841C21.0759 7.41445 22.0686 7.16067 23.0826 7.06646C27.1216 6.72271 30.1607 9.19341 31.2857 10.2579C32.1021 11.0391 34.1431 12.9825 34.479 15.8262C34.6139 17.102 34.548 18.3911 34.2837 19.6465C33.7447 22.5762 32.7935 22.9102 32.5943 25.2774C32.5142 26.2208 32.3619 28.0528 33.4087 29.5938C34.5396 31.2696 36.4419 31.6563 36.3482 31.9161Z" fill="#2D2D2D"/>
</svg>
