<svg width="48" height="48" viewBox="0 0 48 48" fill="none" xmlns="http://www.w3.org/2000/svg">
<path d="M47.7059 23.8535C47.7072 27.0843 47.0515 30.2816 45.7786 33.251C44.5058 36.2205 42.6423 38.9001 40.3016 41.127H7.50864C6.88663 40.5782 6.29955 39.9912 5.75083 39.3691L5.58872 39.1738C4.22153 37.543 -0.221825 31.752 0.00864326 23.8398C0.317237 12.8906 9.53599 0 23.8524 0C30.1787 0 36.246 2.51313 40.7194 6.98653C45.1928 11.4599 47.7059 17.5272 47.7059 23.8535Z" fill="white"/>
<path d="M42.126 39.1953C39.8841 41.8586 37.0876 44.0002 33.932 45.4704C30.7764 46.9406 27.3377 47.7039 23.8564 47.707C16.1006 47.707 10.2939 43.5879 7.51465 41.127C6.89341 40.5774 6.30637 39.9904 5.75684 39.3691C5.70801 39.3145 5.65137 39.252 5.59668 39.1738C8.24316 36.5039 11.8232 34.4219 15.9541 33.2402C17.1104 36.1133 20.2139 38.1719 23.8545 38.1719C27.2393 38.1719 30.1572 36.3965 31.4717 33.8437C31.5771 33.6484 31.667 33.4531 31.751 33.2402L31.9756 33.3047C36.0049 34.5 39.5068 36.5566 42.126 39.1953Z" fill="black"/>
<path d="M31.7471 33.2402C31.6631 33.4453 31.5732 33.6445 31.4678 33.8437C30.1494 36.3965 27.2314 38.1719 23.8506 38.1719C20.21 38.1719 17.1064 36.1133 15.9502 33.2402L16.4717 33.0977L16.5146 33.084C16.5146 33.084 16.8623 32.9922 17.1846 32.9199C17.7924 34.171 18.7399 35.2258 19.9189 35.9638C21.0978 36.7018 22.4607 37.0931 23.8516 37.0931C25.2425 37.0931 26.6053 36.7018 27.7843 35.9638C28.9632 35.2258 29.9108 34.171 30.5186 32.9199C30.9391 32.9789 31.3513 33.0863 31.7471 33.2402Z" fill="#7C211A"/>
<path d="M30.5146 32.9199C29.9074 34.1716 28.9601 35.2271 27.781 35.9655C26.602 36.704 25.2389 37.0956 23.8477 37.0956C22.4564 37.0956 21.0933 36.704 19.9143 35.9655C18.7353 35.2271 17.7879 34.1716 17.1807 32.9199C17.4443 32.8535 17.71 32.7969 17.9775 32.7422L18.1729 32.7031C18.2061 32.6934 18.2412 32.6855 18.2725 32.6797L18.4424 32.6465L18.6768 32.6074C18.7314 32.5937 18.7939 32.5859 18.8545 32.5723H18.8838C18.9521 32.4023 19.0166 32.2207 19.0791 32.0215C19.1006 31.9551 19.1221 31.8828 19.1436 31.8125C19.215 31.5507 19.2731 31.2853 19.3174 31.0176C19.7348 31.3632 20.1871 31.6643 20.667 31.916C20.7021 31.9336 20.7354 31.9512 20.7705 31.9727L20.8916 32.0332L21.04 32.1035C21.0713 32.1172 21.1006 32.1289 21.126 32.1426L21.2002 32.1777L21.292 32.2168L21.3779 32.25C21.3899 32.2579 21.4031 32.2638 21.417 32.2676C21.4513 32.2827 21.4865 32.2958 21.5225 32.3066L21.6514 32.3594L21.7939 32.4121H21.8252L21.9248 32.4473L22.0771 32.4902C22.0986 32.4902 22.1201 32.5039 22.1455 32.5078L22.2842 32.5469C22.5763 32.6168 22.8724 32.669 23.1709 32.7031H23.2607C23.2822 32.7031 23.3037 32.7031 23.3271 32.7031H23.4482H23.5557C23.5947 32.7031 23.6396 32.7031 23.6826 32.7031H23.79C24.4373 32.7016 25.0799 32.5941 25.6924 32.3848C25.6942 32.3856 25.6962 32.3861 25.6982 32.3861C25.7003 32.3861 25.7023 32.3856 25.7041 32.3848C25.7283 32.3802 25.7518 32.373 25.7744 32.3633C25.9307 32.3105 26.0693 32.2539 26.1904 32.207L26.3564 32.1367L26.3994 32.1211C27.1001 31.8211 27.7514 31.4168 28.3311 30.9219C28.3916 31.1914 28.4658 31.4785 28.5576 31.7773C28.6396 32.0469 28.7256 32.2988 28.8135 32.5371C28.8857 32.5508 28.9561 32.5586 29.0303 32.5762L29.2432 32.6152L29.4561 32.6543C29.5068 32.6543 29.5596 32.6758 29.6123 32.6836C29.6463 32.6935 29.6809 32.7013 29.7158 32.707C29.9893 32.7969 30.2529 32.8535 30.5146 32.9199Z" fill="#EAB198"/>
<path d="M14.3622 17.2852C14.1837 18.2699 14.1182 19.2719 14.1669 20.2715C14.1669 20.4668 14.1884 20.6738 14.2098 20.875C14.2098 20.9473 14.2216 21.0254 14.2313 21.0996C13.8192 20.8828 13.6454 19.9277 13.3231 18.1094C13.1278 16.9629 13.0204 16.3906 13.0497 15.7656C13.126 14.7948 13.3977 13.8495 13.8485 12.9863C14.0478 13.7103 14.476 14.3503 15.0692 14.8105C14.7551 15.611 14.5184 16.4396 14.3622 17.2852Z" fill="#2D2D2D"/>
<path d="M34.3604 18.1094C34.2041 18.9941 34.0811 19.6719 33.9521 20.1621C33.8135 20.6914 33.6611 21 33.4385 21.1035C33.4736 20.791 33.501 20.4844 33.5127 20.1719C33.5966 18.5379 33.3638 16.9031 32.8271 15.3574C32.8271 15.3574 32.8271 15.3438 32.8271 15.3398C33.3536 14.9881 33.859 14.606 34.3408 14.1953C34.4984 14.7033 34.598 15.2274 34.6377 15.7578C34.667 16.3945 34.5635 16.9688 34.3604 18.1094Z" fill="#2D2D2D"/>
<path opacity="0.2" d="M31.9697 33.3047C31.8096 33.5 31.6396 33.6699 31.4658 33.8437C31.0835 34.2293 30.6736 34.5863 30.2393 34.9121C29.6653 35.3389 29.0407 35.6932 28.3799 35.9668C27.9622 36.1351 27.5292 36.2627 27.0869 36.3477C26.6962 36.4219 26.2991 36.4572 25.9014 36.4531C25.1222 36.4347 24.3531 36.2739 23.6318 35.9785C23.5888 35.9628 23.547 35.9439 23.5068 35.9219C22.9303 35.6773 22.3838 35.3673 21.8779 34.998C20.9294 34.2903 20.0937 33.4428 19.3994 32.4844C19.2881 32.334 19.1787 32.1816 19.0713 32.0215C19.0928 31.9551 19.1143 31.8828 19.1357 31.8125C19.2072 31.5507 19.2652 31.2853 19.3096 31.0176C19.4229 31.1094 19.54 31.2012 19.6611 31.2871C19.9796 31.5185 20.313 31.7286 20.6592 31.916C20.6943 31.9336 20.7275 31.9512 20.7627 31.9727L20.8838 32.0332L21.0322 32.1035C21.0635 32.1172 21.0928 32.1289 21.1182 32.1426L21.1924 32.1777L21.2842 32.2168L21.3701 32.25C21.3821 32.2579 21.3953 32.2638 21.4092 32.2676L21.5146 32.3066L21.6436 32.3594L21.7861 32.4121H21.8174L21.917 32.4473L22.0693 32.4902C22.0908 32.4902 22.1123 32.5039 22.1377 32.5078L22.2764 32.5469C22.5677 32.6206 22.8641 32.6728 23.1631 32.7031H23.2529C23.2744 32.7031 23.2959 32.7031 23.3193 32.7031H23.4404H23.5479C23.5869 32.7031 23.6318 32.7031 23.6748 32.7031H23.7822C24.429 32.6963 25.0708 32.5889 25.6846 32.3848C25.6864 32.3856 25.6884 32.3861 25.6904 32.3861C25.6925 32.3861 25.6945 32.3856 25.6963 32.3848C25.7205 32.3802 25.744 32.373 25.7666 32.3633C25.8975 32.3203 26.0225 32.2715 26.1572 32.2207L26.1963 32.207C26.2471 32.1855 26.2998 32.1641 26.3564 32.1367L26.3994 32.1211C26.9694 31.8595 27.5107 31.5394 28.0146 31.166C28.1221 31.0879 28.2275 31.0039 28.3311 30.9219C28.3916 31.1914 28.4658 31.4785 28.5576 31.7773C28.6396 32.0469 28.7256 32.2988 28.8135 32.5371C28.8857 32.5508 28.9561 32.5586 29.0303 32.5762L29.2432 32.6152L29.4561 32.6543C29.5068 32.6543 29.5596 32.6758 29.6123 32.6836C29.6463 32.6935 29.6809 32.7013 29.7158 32.707C29.9854 32.7617 30.249 32.8184 30.5107 32.8848C30.9268 32.9805 31.3389 33.0801 31.7432 33.2051L31.9697 33.3047Z" fill="black"/>
<path d="M35.2117 22.2969C35.1804 23.3125 34.532 24.3418 33.8074 24.7207C33.7095 24.7719 33.6059 24.8112 33.4988 24.8379H33.4753C33.3441 24.869 33.2078 24.873 33.0749 24.8496C32.9337 24.8218 32.8003 24.7631 32.6843 24.6777L32.6296 24.6367C32.5485 24.5726 32.4745 24.4999 32.4089 24.4199C31.8855 23.7891 31.6726 22.6055 32.0183 21.6602C32.1588 21.291 32.3735 20.9547 32.6492 20.6719C32.8832 20.4225 33.1844 20.2462 33.5163 20.1641C33.6691 20.1328 33.8265 20.1328 33.9792 20.1641C34.8406 20.3418 35.239 21.4473 35.2117 22.2969Z" fill="#EAB198"/>
<path opacity="0.3" d="M35.2117 22.2969C35.1804 23.3125 34.532 24.3418 33.8054 24.7207C33.7083 24.7719 33.6053 24.8113 33.4988 24.8379H33.4753C33.3441 24.869 33.2078 24.873 33.0749 24.8496C32.9337 24.8218 32.8003 24.7631 32.6843 24.6777L32.6296 24.6367C32.5481 24.573 32.4741 24.5003 32.4089 24.4199C31.8855 23.7891 31.6726 22.6055 32.0183 21.6602C32.1588 21.291 32.3735 20.9547 32.6492 20.6719C32.8832 20.4225 33.1844 20.2462 33.5163 20.1641C33.6691 20.1328 33.8265 20.1328 33.9792 20.1641C34.8406 20.3418 35.239 21.4473 35.2117 22.2969Z" fill="black"/>
<path d="M15.2839 24.4258C15.2039 24.5236 15.1113 24.6103 15.0085 24.6836C14.8921 24.7683 14.7589 24.8269 14.6178 24.8555C14.485 24.8789 14.3487 24.8749 14.2174 24.8438H14.194C14.0869 24.8171 13.9833 24.7778 13.8854 24.7266C13.1608 24.3477 12.5182 23.3184 12.4792 22.3028C12.4538 21.4531 12.8522 20.3496 13.7155 20.1739C14.2057 20.0742 14.6745 20.3125 15.0436 20.6836C15.3205 20.9658 15.536 21.3023 15.6764 21.6719C16.0202 22.6114 15.8053 23.7949 15.2839 24.4258Z" fill="#EAB198"/>
<path d="M33.5127 20.1719C33.5009 20.4844 33.4736 20.791 33.4384 21.1035C33.3052 22.3108 33.0319 23.4985 32.624 24.6426C31.7119 27.2031 30.1787 29.4727 28.3271 30.957C28.2236 31.0391 28.1181 31.1231 28.0107 31.2012C27.5068 31.5746 26.9655 31.8947 26.3955 32.1563L26.3525 32.1719C26.2959 32.1992 26.2431 32.2207 26.1923 32.2422L26.1533 32.2559C26.0263 32.3067 25.9013 32.3555 25.7627 32.3985C25.7401 32.4082 25.7165 32.4154 25.6923 32.4199C25.6905 32.4208 25.6885 32.4213 25.6865 32.4213C25.6845 32.4213 25.6825 32.4208 25.6806 32.4199C25.0669 32.6241 24.4251 32.7315 23.7783 32.7383H23.6709C23.6279 32.7383 23.583 32.7383 23.5439 32.7383H23.4365H23.3154C23.292 32.7383 23.2705 32.7383 23.249 32.7383H23.1591C22.8601 32.708 22.5638 32.6557 22.2724 32.582L22.1337 32.543C22.1084 32.543 22.0869 32.5293 22.0654 32.5254L21.913 32.4824L21.8134 32.4473H21.7822L21.6396 32.3945L21.5107 32.3418L21.4052 32.3027C21.3914 32.299 21.3782 32.2931 21.3662 32.2852L21.2802 32.252L21.1884 32.2129L21.1142 32.1777C21.0888 32.1641 21.0595 32.1524 21.0283 32.1387L20.8798 32.0684L20.7587 32.0078C20.7236 31.9863 20.6904 31.9688 20.6552 31.9512C20.3091 31.7637 19.9757 31.5536 19.6572 31.3223C19.5361 31.2363 19.4189 31.1445 19.3056 31.0528C18.6884 30.5584 18.1253 29.9999 17.6259 29.3867C16.4439 27.9302 15.539 26.2693 14.956 24.4863C14.5931 23.3852 14.3521 22.2475 14.2373 21.0938C14.2373 21.0195 14.2197 20.9414 14.2158 20.8692C14.1943 20.6738 14.1806 20.4785 14.1728 20.2656C14.1241 19.266 14.1896 18.2641 14.3681 17.2793C14.5242 16.4331 14.761 15.6038 15.0752 14.8028C15.2041 14.459 15.3525 14.1172 15.5127 13.7774C16.2932 12.0882 17.4322 10.5893 18.8505 9.38478C18.9111 9.334 18.9716 9.28517 19.0341 9.2383C20.3883 8.13874 22.0732 7.52711 23.8173 7.50197C25.7197 7.49806 27.4189 8.22658 28.8447 9.37502C29.6 9.99661 30.2721 10.7128 30.8447 11.5059C31.5262 12.4446 32.0928 13.4616 32.5322 14.5352C32.6377 14.8047 32.7412 15.0645 32.833 15.334C32.833 15.334 32.833 15.3477 32.833 15.3516C33.3696 16.8972 33.6024 18.532 33.5185 20.166L33.5127 20.1719Z" fill="#EAB198"/>
<path opacity="0.2" d="M34.6338 15.7578C34.428 15.9723 34.2038 16.1683 33.9639 16.3438C33.9463 16.3613 33.8564 16.4219 33.7393 16.5039C33.5439 16.6309 33.3486 16.7559 33.1533 16.877C32.3238 17.3822 31.4457 17.8029 30.5322 18.1328C28.5617 18.841 26.4649 19.1291 24.3764 18.9788C22.2879 18.8284 20.254 18.2429 18.4053 17.2598C17.9658 17.0215 17.54 16.7598 17.1318 16.4785C16.9932 16.3828 16.8584 16.2832 16.7236 16.1875C16.3653 15.9266 16.0211 15.6469 15.6924 15.3496C15.5361 15.2109 15.3799 15.0684 15.2314 14.9199C15.7602 15.3156 16.3362 15.6436 16.9463 15.8965C18.208 16.4531 19.7158 16.873 21.1787 17.2773C22.4432 17.6504 23.753 17.8475 25.0713 17.8633C26.4004 17.8719 27.7228 17.6743 28.9912 17.2773C29.568 17.0912 30.1285 16.858 30.667 16.5801C30.9229 16.4531 31.1787 16.3145 31.4482 16.1719C31.9619 15.8926 32.4072 15.625 32.8252 15.3418C33.346 14.9935 33.8462 14.6153 34.3232 14.209C34.4901 14.7105 34.5944 15.2307 34.6338 15.7578Z" fill="black"/>
<path d="M37.7057 9.96097C37.692 11.0547 36.6647 12.0528 36.3639 12.334C35.5963 13.0645 34.9615 13.6621 34.3365 14.1934L34.3209 14.2051C33.8439 14.6114 33.3437 14.9896 32.8229 15.3379C32.4049 15.6211 31.9596 15.8887 31.4459 16.168C31.1822 16.3106 30.9264 16.4492 30.6647 16.5762C30.1261 16.8542 29.5656 17.0874 28.9889 17.2735C27.7204 17.6704 26.398 17.8681 25.069 17.8594C23.7507 17.8436 22.4409 17.6465 21.1764 17.2735C19.7135 16.8653 18.2057 16.4492 16.944 15.8926C16.3339 15.6397 15.7578 15.3117 15.2291 14.916C15.1764 14.8731 15.1236 14.834 15.0729 14.791C14.4796 14.3307 14.0514 13.6908 13.8522 12.9668C13.3912 11.1328 14.7408 9.28909 14.944 9.01565C15.5827 8.20013 16.4237 7.56586 17.3834 7.17581C19.2115 6.39456 20.0572 7.00589 24.024 7.17581C27.5533 7.32815 29.3209 7.40628 30.9869 6.75393C31.6588 6.49026 32.9186 5.90823 33.1354 6.22073C33.3131 6.47268 32.7955 7.21878 32.6744 7.39261C32.2193 8.04886 31.8365 8.22659 31.8932 8.38284C31.9928 8.63479 33.0963 8.51175 34.0162 8.24417C34.9928 7.95706 35.3619 7.61917 35.5358 7.78323C35.7701 8.00393 35.4186 8.95511 34.8268 9.58401C34.4029 10.041 34.0065 10.1699 34.0455 10.3262C34.1022 10.5352 34.86 10.6094 35.5631 10.4317C36.6744 10.1524 37.2389 9.34182 37.5514 9.54495C37.649 9.58987 37.7096 9.7012 37.7057 9.96097Z" fill="#2D2D2D"/>
</svg>
