<svg width="48" height="48" viewBox="0 0 48 48" fill="none" xmlns="http://www.w3.org/2000/svg">
<path d="M47.6629 23.8281C47.6667 27.0555 47.013 30.2498 45.7417 33.2162C44.4704 36.1827 42.6081 38.859 40.2684 41.082H7.5106C6.88905 40.537 6.30198 39.9538 5.75279 39.3359L5.59068 39.1406C4.21958 37.5156 -0.221822 31.7363 0.00864685 23.8281C0.327006 12.873 9.53599 0 23.8368 0C30.156 0.000517973 36.2163 2.5112 40.6845 6.97979C45.1528 11.4484 47.6629 17.5089 47.6629 23.8281Z" fill="white"/>
<path d="M42.085 39.1543C41.5136 39.8288 40.9073 40.4729 40.2686 41.084C35.8421 45.3091 29.9561 47.6634 23.8369 47.6562C16.0889 47.6562 10.2822 43.541 7.5127 41.084C6.88898 40.5366 6.29811 39.9529 5.74316 39.3359C5.7002 39.2793 5.64355 39.2187 5.58301 39.1406C8.24512 36.4648 11.8213 34.3848 15.9385 33.2031C17.0928 36.0742 20.1885 38.1289 23.8291 38.1289C27.2119 38.1289 30.1221 36.3555 31.4463 33.8066C31.5498 33.6113 31.6416 33.416 31.7236 33.2031L31.9482 33.2676C35.9756 34.4629 39.4756 36.5234 42.085 39.1543Z" fill="black"/>
<path d="M31.7236 33.2031C31.6416 33.3984 31.5498 33.6055 31.4463 33.8066C30.124 36.3555 27.2139 38.1289 23.8291 38.1289C20.1885 38.1289 17.0928 36.0742 15.9385 33.2031C16.0264 33.1777 16.1123 33.1562 16.1982 33.1289C16.2413 33.1202 16.2838 33.1084 16.3252 33.0938L16.46 33.0605C16.4739 33.0548 16.4883 33.0503 16.5029 33.0469C16.5029 33.0469 16.8447 32.9551 17.1709 32.8828C17.7777 34.1328 18.724 35.1867 19.9016 35.9241C21.0793 36.6615 22.4406 37.0525 23.8301 37.0525C25.2195 37.0525 26.5809 36.6615 27.7585 35.9241C28.9362 35.1867 29.8825 34.1328 30.4893 32.8828C30.9116 32.9418 31.3258 33.0493 31.7236 33.2031Z" fill="#7C211A"/>
<path d="M30.4912 32.8848C29.7647 34.3753 28.561 35.5803 27.0713 36.3086C26.1966 36.7342 25.2467 36.9833 24.2757 37.0416C23.3047 37.0998 22.3317 36.9662 21.4125 36.6482C20.4932 36.3302 19.6456 35.8342 18.9181 35.1884C18.1906 34.5427 17.5976 33.7599 17.1729 32.8848C17.4365 32.8184 17.7002 32.7578 17.9697 32.707C18.0342 32.6934 18.1006 32.6797 18.165 32.6621L18.2646 32.6465L18.4346 32.6113L18.6689 32.5723C18.7256 32.5586 18.7861 32.5508 18.8467 32.5371H18.8682C18.9326 32.3691 19.001 32.1855 19.0635 31.9863C19.0869 31.9219 19.1084 31.8477 19.1299 31.7793C19.2024 31.5181 19.2585 31.2526 19.2979 30.9844C19.7181 31.3281 20.1715 31.629 20.6514 31.8828C20.6869 31.8998 20.7215 31.9187 20.7549 31.9395C20.7939 31.957 20.8369 31.9785 20.876 32L21.0244 32.0684L21.1104 32.1074C21.1318 32.1211 21.1592 32.1289 21.1846 32.1426C21.21 32.1563 21.2451 32.168 21.2705 32.1816C21.2959 32.1953 21.333 32.2031 21.3584 32.2168C21.3718 32.2218 21.3848 32.2277 21.3975 32.2344L21.501 32.2734C21.54 32.291 21.585 32.3066 21.6318 32.3242L21.7764 32.377H21.8057C21.8369 32.3906 21.8701 32.3984 21.9053 32.4121C21.9404 32.4258 22.0049 32.4434 22.0537 32.4551C22.1025 32.4668 22.1006 32.4687 22.126 32.4727L22.2607 32.5117C22.5536 32.5814 22.8503 32.6336 23.1494 32.668C23.1807 32.668 23.21 32.668 23.2412 32.668H23.3057H23.4268H23.5361C23.5764 32.665 23.6169 32.665 23.6572 32.668H23.7666C24.4136 32.6659 25.0561 32.559 25.6689 32.3516C25.671 32.3528 25.6734 32.3534 25.6758 32.3534C25.6782 32.3534 25.6805 32.3528 25.6826 32.3516C25.7062 32.3471 25.7291 32.3399 25.751 32.3301C25.9072 32.2793 26.042 32.2227 26.167 32.1738L26.333 32.1055C26.3469 32.0986 26.3612 32.0927 26.376 32.0879C27.0761 31.7888 27.7267 31.3851 28.3057 30.8906C28.3662 31.1602 28.4404 31.4453 28.5303 31.7461C28.6123 32.0137 28.7002 32.2656 28.7861 32.5039C28.8604 32.5176 28.9307 32.5254 29.0029 32.543C29.0752 32.5605 29.1475 32.5684 29.2158 32.582L29.4287 32.6211C29.4795 32.6211 29.5322 32.6426 29.585 32.6523C29.6377 32.6621 29.6533 32.6641 29.6885 32.6738C29.9678 32.7637 30.2314 32.8125 30.4912 32.8848Z" fill="#EAB198"/>
<path d="M37.3604 14.7775C37.3629 14.9378 37.3392 15.0975 37.2901 15.2501C36.9776 16.3517 35.9034 16.465 35.7041 17.4279C35.6651 17.6056 35.7198 17.5138 35.7041 18.0607C35.6905 18.4513 35.6592 19.3478 35.4034 19.9337C35.2578 20.2432 35.0377 20.5116 34.7627 20.715C34.6722 20.5703 34.554 20.445 34.4149 20.3461C34.2758 20.2472 34.1186 20.1768 33.9522 20.1388C33.7988 20.1078 33.6407 20.1078 33.4873 20.1388C33.5337 19.1734 33.4728 18.2059 33.3057 17.254C33.1875 16.6007 33.0191 15.9575 32.8018 15.3302C32.712 15.0568 32.6065 14.7833 32.4991 14.5138C32.0595 13.4419 31.4937 12.4262 30.8135 11.4884C29.126 9.18567 26.712 7.47278 23.8018 7.48254C22.0599 7.50829 20.3772 8.11916 19.0245 9.21692C17.5323 10.3888 16.335 12.0138 15.5088 13.7521C14.9724 14.8676 14.5856 16.049 14.3584 17.2657C14.187 18.2172 14.1215 19.1847 14.1631 20.1505C14.0119 20.1173 13.8553 20.1173 13.7041 20.1505C13.5101 20.1977 13.3287 20.2869 13.1728 20.4118C13.0169 20.5366 12.8903 20.6941 12.8018 20.8732C12.5282 20.6902 12.3047 20.4418 12.1514 20.1505C11.7041 19.2091 12.3682 18.6837 11.9034 17.713C11.4913 16.8497 10.712 16.7677 10.4913 15.7599C10.4415 15.5164 10.4296 15.2667 10.4561 15.0197C10.5596 14.0958 11.1202 14.0431 11.3057 13.3068C11.5655 12.2697 10.6202 11.6681 11.042 10.3927C11.0661 10.2986 11.1022 10.208 11.1495 10.1232C11.6866 9.18762 13.1612 9.88098 13.8995 9.12317C14.5791 8.42395 13.8506 7.29309 14.8213 6.33801C14.94 6.21179 15.0794 6.10676 15.2334 6.02747C16.3272 5.49817 17.3623 6.9884 18.3291 6.6134C19.1104 6.31262 18.8291 5.22864 19.9288 4.59582C20.3218 4.36799 20.7717 4.25688 21.2256 4.27551C22.4756 4.34387 22.7881 5.46692 23.5928 5.3595C24.3741 5.25012 24.335 4.18762 25.3936 3.8595C25.6849 3.77012 25.9917 3.74237 26.2943 3.77801C26.5969 3.81365 26.8888 3.91191 27.1514 4.06653C28.128 4.67004 27.8409 5.75403 28.6163 6.04504C29.2413 6.28332 29.583 5.62317 30.7901 5.69348C31.2886 5.68494 31.7789 5.82059 32.2022 6.08411C33.292 6.85168 32.6104 8.25207 33.5948 8.95911C34.2842 9.45715 34.9873 9.03137 35.9795 9.80872C36.1946 9.9484 36.3755 10.1346 36.5088 10.3536C37.003 11.2345 36.0264 11.9161 36.3487 12.9298C36.6045 13.7286 37.3604 13.8986 37.3604 14.7775Z" fill="#2D2D2D"/>
<path opacity="0.2" d="M31.9541 33.2695C31.79 33.4648 31.624 33.6348 31.4521 33.8086C31.0686 34.1929 30.6581 34.5493 30.2236 34.875C29.6517 35.3022 29.0283 35.6559 28.3682 35.9277C27.9517 36.1 27.5193 36.2308 27.0771 36.3184C26.6873 36.3935 26.2905 36.4269 25.8936 36.418C25.1123 36.4023 24.3409 36.2393 23.6201 35.9375C23.5752 35.9199 23.5322 35.9023 23.4893 35.8809C22.9152 35.6362 22.3713 35.3262 21.8682 34.957C20.9198 34.2512 20.0847 33.4049 19.3916 32.4473C19.2783 32.2949 19.1709 32.1387 19.0615 31.9824C19.085 31.918 19.1064 31.8438 19.1279 31.7754C19.2005 31.5142 19.2566 31.2487 19.2959 30.9805C19.4131 31.0723 19.5303 31.1641 19.6514 31.25C19.9696 31.4818 20.303 31.6919 20.6494 31.8789C20.6849 31.8959 20.7195 31.9148 20.7529 31.9355C20.792 31.9531 20.835 31.9746 20.874 31.9961L21.0225 32.0645L21.1084 32.1035C21.1325 32.1165 21.1573 32.1282 21.1826 32.1387C21.2139 32.1523 21.2432 32.1641 21.2686 32.1777C21.2939 32.1914 21.3311 32.1992 21.3564 32.2129C21.3698 32.2179 21.3829 32.2238 21.3955 32.2305L21.499 32.2695L21.6299 32.3203L21.7744 32.373H21.8037C21.835 32.3867 21.8682 32.3945 21.9033 32.4082C21.9385 32.4219 22.0029 32.4395 22.0518 32.4512C22.1006 32.4629 22.0986 32.4648 22.124 32.4688L22.2588 32.5078C22.5507 32.5819 22.8478 32.6342 23.1475 32.6641C23.1787 32.6641 23.208 32.6641 23.2393 32.6641H23.3037H23.4248H23.5342C23.5745 32.6611 23.615 32.6611 23.6553 32.6641H23.7647C24.4113 32.6573 25.053 32.5505 25.667 32.3477C25.6691 32.3489 25.6714 32.3495 25.6738 32.3495C25.6762 32.3495 25.6786 32.3489 25.6807 32.3477C25.7042 32.3432 25.7272 32.336 25.749 32.3262C25.8799 32.2832 26.0049 32.2363 26.1396 32.1836C26.1513 32.1806 26.1625 32.176 26.1729 32.1699L26.3389 32.1016C26.3527 32.0947 26.3671 32.0888 26.3818 32.084C26.9514 31.8235 27.4921 31.504 27.9951 31.1309C28.1025 31.0527 28.208 30.9688 28.3115 30.8867C28.3721 31.1562 28.4463 31.4414 28.5361 31.7422C28.6182 32.0098 28.7061 32.2617 28.792 32.5C28.8662 32.5137 28.9365 32.5215 29.0088 32.5391C29.0811 32.5566 29.1533 32.5645 29.2217 32.5781L29.4346 32.6172C29.4854 32.6172 29.5381 32.6387 29.5908 32.6484C29.6436 32.6582 29.6592 32.6602 29.6943 32.6699C29.9639 32.7266 30.2275 32.7812 30.4873 32.8477C30.9033 32.9434 31.3154 33.043 31.7197 33.168L31.9541 33.2695Z" fill="black"/>
<path d="M35.1842 22.2656C35.153 23.2813 34.5045 24.3086 33.7799 24.6856C33.6827 24.737 33.5798 24.777 33.4733 24.8047H33.4498C33.3218 24.8354 33.1888 24.8394 33.0592 24.8164C32.9179 24.7886 32.7845 24.7299 32.6686 24.6445C32.6496 24.6326 32.6313 24.6196 32.6139 24.6055C32.5334 24.5413 32.4601 24.4686 32.3951 24.3887C31.8717 23.7578 31.6569 22.5742 32.0045 21.6328C32.144 21.2628 32.3596 20.9261 32.6373 20.6445C32.8698 20.3951 33.1697 20.2187 33.5006 20.1367C33.6533 20.1055 33.8108 20.1055 33.9635 20.1367C34.8131 20.3125 35.2096 21.4258 35.1842 22.2656Z" fill="#EAB198"/>
<path opacity="0.3" d="M35.1825 22.2657C35.1532 23.2813 34.5067 24.3087 33.7782 24.6856C33.6822 24.7365 33.5806 24.7758 33.4755 24.8028C33.4664 24.8047 33.4571 24.8047 33.4481 24.8028C33.3205 24.8363 33.1871 24.841 33.0575 24.8165C32.9162 24.7898 32.7827 24.7317 32.6669 24.6466C32.6493 24.6349 32.6317 24.6173 32.6102 24.6036C32.5294 24.5404 32.4566 24.4676 32.3934 24.3868C31.9032 23.8009 31.6864 22.7266 31.9462 21.8204C31.9637 21.7559 31.9852 21.6954 32.0067 21.6251C32.1474 21.255 32.3628 20.9179 32.6395 20.6349C32.8722 20.3862 33.1721 20.2104 33.5028 20.129C33.6562 20.098 33.8143 20.098 33.9676 20.129C34.134 20.167 34.2913 20.2374 34.4303 20.3363C34.5694 20.4352 34.6876 20.5605 34.7782 20.7052C35.0679 21.1724 35.2088 21.7166 35.1825 22.2657Z" fill="black"/>
<path d="M15.2761 24.3985C15.2064 24.4884 15.1249 24.5685 15.0339 24.6368C15.0339 24.6465 15.0124 24.6504 15.0046 24.6582C14.8883 24.7425 14.755 24.8005 14.614 24.8282C14.4804 24.8516 14.3433 24.8469 14.2116 24.8145C14.2046 24.816 14.1972 24.816 14.1902 24.8145C14.0832 24.7872 13.9797 24.7479 13.8816 24.6973C13.1589 24.3203 12.5144 23.293 12.4773 22.2774C12.463 21.788 12.5782 21.3036 12.8112 20.8731C12.8997 20.694 13.0264 20.5365 13.1823 20.4117C13.3382 20.2868 13.5195 20.1977 13.7136 20.1504C13.8648 20.1172 14.0214 20.1172 14.1726 20.1504C14.5062 20.2274 14.8086 20.4038 15.0398 20.6563C15.315 20.9353 15.5304 21.2676 15.6726 21.6329C15.708 21.7277 15.7367 21.825 15.7585 21.9239C15.9655 22.8164 15.7429 23.8282 15.2761 24.3985Z" fill="#EAB198"/>
<path d="M33.4873 20.1504C33.469 20.5775 33.43 21.0065 33.3701 21.4375C33.2243 22.5217 32.9624 23.5871 32.5888 24.6152C31.6787 27.1738 30.1513 29.4414 28.3095 30.9238C28.206 31.0059 28.1005 31.0898 27.9931 31.168C27.4901 31.5411 26.9494 31.8606 26.3798 32.1211C26.3651 32.1259 26.3507 32.1318 26.3369 32.1387L26.1708 32.207C26.1605 32.2131 26.1493 32.2177 26.1376 32.2207C26.0107 32.2734 25.8857 32.3203 25.747 32.3633C25.7251 32.3731 25.7022 32.3803 25.6787 32.3848C25.6766 32.386 25.6742 32.3866 25.6718 32.3866C25.6694 32.3866 25.6671 32.386 25.665 32.3848C25.051 32.5877 24.4093 32.6944 23.7626 32.7012H23.6533C23.613 32.6982 23.5725 32.6982 23.5322 32.7012H23.4228H23.3017H23.2373C23.206 32.7012 23.1767 32.7012 23.1455 32.7012C22.8458 32.6713 22.5487 32.619 22.2568 32.5449L22.122 32.5059C22.0966 32.5059 22.0751 32.4941 22.0498 32.4883C22.0244 32.4824 21.9501 32.459 21.9013 32.4453C21.8525 32.4316 21.833 32.4238 21.8017 32.4102H21.7724L21.6279 32.3574L21.497 32.3066L21.4072 32.2266C21.3945 32.2199 21.3815 32.214 21.3681 32.209C21.3427 32.1953 21.3115 32.1875 21.2802 32.1738C21.249 32.1602 21.2255 32.1484 21.1943 32.1348C21.169 32.1243 21.1442 32.1126 21.1201 32.0996L21.0341 32.0605L20.8857 31.9922C20.8466 31.9707 20.8037 31.9492 20.7646 31.9316C20.7312 31.9109 20.6966 31.892 20.6611 31.875C20.3101 31.6898 19.9721 31.481 19.6494 31.25C19.5283 31.1641 19.4111 31.0723 19.2939 30.9805C18.6804 30.4846 18.1195 29.927 17.6201 29.3164C16.4842 27.9211 15.6077 26.3335 15.0322 24.6289C15.0029 24.5605 14.9814 24.4863 14.954 24.4121C14.6397 23.4821 14.416 22.5239 14.2861 21.5508C14.2529 21.3164 14.2255 21.082 14.204 20.8438C14.1865 20.6484 14.1748 20.4531 14.165 20.2422C14.165 20.207 14.165 20.1758 14.165 20.1426C14.1233 19.1767 14.1888 18.2092 14.3603 17.2578C14.5878 16.0452 14.974 14.8677 15.5087 13.7559C16.3369 12.0176 17.5341 10.3828 19.0244 9.2207C20.3771 8.12295 22.0598 7.51207 23.8017 7.48633C26.7158 7.48633 29.1259 9.18945 30.8134 11.4922C31.4936 12.43 32.0594 13.4457 32.499 14.5176C32.6083 14.7871 32.7119 15.0605 32.8017 15.334C33.019 15.9613 33.1874 16.6045 33.3056 17.2578C33.4733 18.2123 33.5342 19.1824 33.4873 20.1504Z" fill="#EAB198"/>
<path opacity="0.2" d="M33.458 18.416C32.9465 18.3873 32.441 18.2921 31.9541 18.1328C31.9275 18.1245 31.9014 18.1148 31.876 18.1035C30.3252 17.5703 30.3682 16.6152 29.0928 16.2871C27.6533 15.9179 27.1162 17.0097 25.5381 16.5996C24.3369 16.2871 24.3662 15.584 23.3994 15.5097C21.9561 15.4023 21.3838 17.0273 20.1709 16.7812C19.3896 16.6211 19.3076 15.8711 18.3486 15.6582C17.7284 15.5552 17.0917 15.6734 16.5498 15.9922H16.54C17.0049 15.5449 17.126 15.0156 17.79 14.8476C18.7002 14.6172 18.999 15.5488 20.1709 15.5371C21.6885 15.5195 22.0439 14.1699 23.3994 14.2656C24.376 14.3398 24.3369 15.0469 25.5381 15.3535C27.1162 15.7656 27.6533 14.6699 29.0928 15.0429C30.3682 15.3711 30.3252 16.3261 31.876 16.8594C32.3324 17.0205 32.8077 17.1222 33.29 17.1621C33.29 17.1621 33.3154 17.3711 33.3721 17.7773C33.4482 18.3769 33.458 18.416 33.458 18.416Z" fill="black"/>
<path d="M34.5241 16.8593C34.3595 16.9986 34.1605 17.091 33.9479 17.1269L33.8776 17.1406C33.6837 17.1701 33.4871 17.1773 33.2916 17.1621C32.8093 17.1222 32.334 17.0204 31.8776 16.8593C30.3268 16.3261 30.3698 15.371 29.0944 15.0429C27.6549 14.6699 27.1178 15.7656 25.5397 15.3535C24.3385 15.0429 24.3678 14.3398 23.401 14.2656C22.0455 14.1621 21.6901 15.5195 20.1725 15.5371C19.0006 15.5488 18.7018 14.6171 17.7916 14.8476C17.1315 15.0117 17.0104 15.5449 16.5416 15.9921C16.3803 16.1529 16.1927 16.285 15.9869 16.3828C15.5193 16.5903 15.006 16.6737 14.4967 16.6249C13.9459 16.5722 13.4381 16.3652 13.1823 16.0136C12.4576 15.0156 13.7858 13.0136 14.3541 12.1542C17.3248 7.66206 22.4889 6.73042 23.1608 6.62299C23.3346 6.59174 23.5631 6.55659 23.8756 6.52143C25.4537 6.35346 28.8756 6.28901 31.6373 8.66987C34.5885 11.2226 35.7252 15.7832 34.5241 16.8593Z" fill="#2D2D2D"/>
</svg>
