<svg width="48" height="48" viewBox="0 0 48 48" fill="none" xmlns="http://www.w3.org/2000/svg">
<path d="M47.0944 23.543C47.1029 29.0824 45.1503 34.446 41.5827 38.6836C41.02 39.3523 40.4208 39.9893 39.7878 40.5918H7.42253C6.80541 40.0536 6.22226 39.4776 5.67643 38.8672C5.62956 38.8145 5.57683 38.752 5.51823 38.6719C4.16667 37.0605 -0.218097 31.3496 0.00846549 23.5352C0.322919 12.7188 9.42253 0 23.5514 0C26.6431 0 29.7046 0.608957 32.5609 1.7921C35.4173 2.97525 38.0127 4.70941 40.1988 6.89558C42.385 9.08174 44.1192 11.6771 45.3023 14.5335C46.4854 17.3898 47.0944 20.4513 47.0944 23.543Z" fill="white"/>
<path d="M41.5825 38.6855C41.0209 39.3545 40.4216 39.991 39.7876 40.5918C35.4144 44.7678 29.5981 47.0949 23.5513 47.0879C15.895 47.0879 10.1626 43.0215 7.42236 40.5918C6.80564 40.0538 6.22313 39.4778 5.67822 38.8672C5.63135 38.8125 5.57471 38.752 5.52002 38.6719C8.14502 36.0293 11.6802 33.9844 15.7505 32.8125C16.8892 35.6445 19.9595 37.6758 23.5474 37.6758C26.8892 37.6758 29.7681 35.918 31.0688 33.4043C31.1724 33.209 31.2642 33.0137 31.3442 32.8086C31.4204 32.8301 31.4673 32.8418 31.5669 32.873C35.5474 34.0508 39.0044 36.082 41.5825 38.6855Z" fill="black"/>
<path d="M31.3442 32.8125C31.2622 33.0078 31.1724 33.2031 31.0688 33.4082C29.7681 35.9277 26.8892 37.6797 23.5474 37.6797C19.9595 37.6758 16.8892 35.6445 15.7505 32.8125L16.2642 32.6719C16.2781 32.6662 16.2925 32.6616 16.3071 32.6582C16.3071 32.6582 16.6489 32.5684 16.9673 32.4961C17.5669 33.7312 18.5019 34.7726 19.6656 35.5012C20.8292 36.2298 22.1744 36.6162 23.5474 36.6162C24.9203 36.6162 26.2655 36.2298 27.4291 35.5012C28.5928 34.7726 29.5279 33.7312 30.1274 32.4961C30.544 32.5539 30.9523 32.6601 31.3442 32.8125Z" fill="#7C211A"/>
<path d="M30.1274 32.4922C29.5279 33.7273 28.5928 34.7687 27.4291 35.4973C26.2655 36.2259 24.9203 36.6123 23.5474 36.6123C22.1744 36.6123 20.8292 36.2259 19.6656 35.4973C18.5019 34.7687 17.5669 33.7273 16.9673 32.4922C17.2271 32.4277 17.4888 32.3711 17.7485 32.3164L17.9438 32.2773C17.979 32.2773 18.0122 32.2598 18.0435 32.2559C18.0747 32.252 18.1548 32.2344 18.2095 32.2207L18.4419 32.1836C18.4966 32.1699 18.5571 32.1621 18.6157 32.1484H18.6333C18.7017 31.9824 18.7661 31.8008 18.8286 31.6055C18.8501 31.541 18.8716 31.4668 18.8931 31.3984C18.9692 31.1172 19.0259 30.8516 19.0649 30.6172C19.4771 30.958 19.9235 31.2552 20.397 31.5039L20.4985 31.5586L20.6196 31.6191L20.7642 31.6875C20.7954 31.7012 20.8247 31.7129 20.8501 31.7266L20.9243 31.7617L21.0142 31.7988C21.0396 31.8125 21.0688 31.8203 21.0981 31.834L21.1372 31.8516C21.1685 31.8633 21.2017 31.877 21.2407 31.8887L21.3696 31.9414L21.5103 31.9922H21.5415L21.6392 32.0273L21.7896 32.0703L21.8579 32.0879L21.9946 32.125C22.2827 32.1952 22.5749 32.2467 22.8696 32.2793C22.8989 32.2793 22.9282 32.2793 22.9595 32.2793H23.0239H23.1431H23.2505H23.3755H23.481C24.1194 32.2776 24.7533 32.1721 25.3579 31.9668C25.36 31.968 25.3623 31.9686 25.3647 31.9686C25.3671 31.9686 25.3695 31.968 25.3716 31.9668C25.3953 31.9629 25.4183 31.9557 25.4399 31.9453C25.5942 31.8945 25.731 31.8398 25.8501 31.791L26.0142 31.7227L26.0571 31.707C26.7487 31.4111 27.3915 31.0121 27.9634 30.5234C28.022 30.7891 28.0962 31.0723 28.186 31.3672C28.2759 31.6621 28.3521 31.8828 28.438 32.1172C28.5122 32.1309 28.5806 32.1387 28.6528 32.1563L28.8618 32.1953L29.0728 32.2324L29.227 32.2637C29.2605 32.2727 29.2944 32.2799 29.3286 32.2852C29.6079 32.3711 29.8696 32.4219 30.1274 32.4922Z" fill="#843F2C"/>
<path d="M14.1861 17.0605C14.0087 18.0323 13.9431 19.0212 13.9908 20.0078C13.9908 20.2031 14.0123 20.3984 14.0318 20.5938C14.0318 20.666 14.0455 20.7441 14.0533 20.8164C13.647 20.6016 13.481 19.6543 13.1587 17.8652C12.9634 16.7344 12.858 16.168 12.8892 15.543C12.9614 14.5879 13.2272 13.6576 13.6705 12.8086C13.8688 13.524 14.2937 14.1558 14.8814 14.6094C14.5718 15.4023 14.339 16.2231 14.1861 17.0605Z" fill="#2D2D2D"/>
<path d="M33.9224 17.875C33.7681 18.748 33.6489 19.416 33.52 19.9004C33.3833 20.4238 33.2329 20.7266 33.0142 20.8301C33.0493 20.5215 33.0747 20.2168 33.0884 19.9082C33.1328 18.9552 33.0719 18.0002 32.9067 17.0605C32.7902 16.4147 32.6244 15.7787 32.4106 15.1582C32.4106 15.1582 32.4106 15.1445 32.4106 15.1406C32.9302 14.793 33.4291 14.4154 33.9048 14.0098C34.0607 14.5112 34.1584 15.0289 34.1958 15.5527C34.2271 16.1816 34.1235 16.748 33.9224 17.875Z" fill="#2D2D2D"/>
<path opacity="0.2" d="M31.5669 32.873C31.4087 33.0566 31.2407 33.2324 31.0688 33.4043C30.6922 33.7851 30.2874 34.137 29.8579 34.457C29.2929 34.8799 28.6767 35.2297 28.0239 35.498C27.6117 35.6657 27.1838 35.7919 26.7466 35.875C26.3604 35.9487 25.9678 35.9834 25.5747 35.9785C24.8056 35.9618 24.0462 35.8036 23.3345 35.5117C23.2922 35.4956 23.2511 35.4767 23.2114 35.4551C22.6421 35.2144 22.1026 34.9083 21.604 34.543C20.667 33.8459 19.8424 33.0093 19.1587 32.0625C19.0474 31.9141 18.9399 31.7637 18.8325 31.6055C18.854 31.541 18.8755 31.4668 18.897 31.3984C18.9731 31.1172 19.0298 30.8516 19.0688 30.6172C19.1802 30.707 19.2954 30.7969 19.4145 30.8828C19.7267 31.1101 20.0529 31.3176 20.3911 31.5039L20.4927 31.5586L20.6138 31.6191L20.7583 31.6875C20.7895 31.7012 20.8188 31.7129 20.8442 31.7266L20.9185 31.7617L21.0083 31.7988C21.0337 31.8125 21.063 31.8203 21.0923 31.834L21.1313 31.8516L21.2349 31.8887L21.3638 31.9414L21.5044 31.9922H21.5356L21.6333 32.0273L21.7837 32.0703L21.8521 32.0879L21.9888 32.125C22.276 32.199 22.5686 32.2506 22.8638 32.2793C22.8931 32.2793 22.9224 32.2793 22.9536 32.2793H23.0181H23.1372H23.2446H23.3696H23.4751C24.1132 32.2735 24.7465 32.168 25.3521 31.9668C25.3541 31.968 25.3565 31.9686 25.3589 31.9686C25.3613 31.9686 25.3636 31.968 25.3657 31.9668C25.3894 31.9629 25.4124 31.9557 25.4341 31.9453C25.563 31.9023 25.686 31.8555 25.811 31.8047L25.8501 31.791C25.9009 31.7695 25.9517 31.75 26.0083 31.7227L26.0513 31.707C26.6137 31.4486 27.1478 31.1324 27.645 30.7637C27.7505 30.6875 27.854 30.6055 27.9575 30.5234C28.0161 30.7891 28.0903 31.0723 28.1802 31.3672C28.27 31.6621 28.3462 31.8828 28.4321 32.1172C28.5063 32.1309 28.5747 32.1387 28.647 32.1563L28.856 32.1953L29.0669 32.2324L29.2212 32.2637C29.2546 32.2727 29.2885 32.2799 29.3228 32.2852C29.5884 32.3398 29.8501 32.3965 30.104 32.4609C30.5142 32.5547 30.9224 32.6563 31.3208 32.7773L31.5669 32.873Z" fill="black"/>
<path d="M34.7641 22.0078C34.7348 23.0098 34.0942 24.0254 33.3774 24.3985C33.2816 24.4496 33.1799 24.4889 33.0747 24.5156H33.0512C32.923 24.545 32.7903 24.549 32.6606 24.5274C32.5196 24.4998 32.3863 24.4419 32.27 24.3574L32.2153 24.3164C32.135 24.2534 32.0622 24.1813 31.9985 24.1016C31.4829 23.4805 31.27 22.3106 31.6176 21.3789C31.7562 21.0137 31.969 20.6812 32.2426 20.4024C32.4722 20.1559 32.7689 19.9821 33.0961 19.9024C33.2469 19.8711 33.4024 19.8711 33.5532 19.9024C34.3969 20.0762 34.7915 21.1699 34.7641 22.0078Z" fill="#843F2C"/>
<path opacity="0.3" d="M34.7646 22.0078C34.7353 23.0098 34.0946 24.0254 33.3778 24.3985C33.2815 24.4499 33.1792 24.4893 33.0731 24.5156H33.0517C32.9235 24.545 32.7908 24.549 32.661 24.5274C32.5199 24.5002 32.3865 24.4421 32.2704 24.3574L32.2157 24.3164C32.1354 24.2534 32.0627 24.1813 31.9989 24.1016C31.4814 23.4805 31.2704 22.3106 31.6181 21.3789C31.7566 21.0141 31.9687 20.6817 32.2411 20.4024C32.4718 20.1563 32.769 19.9826 33.0966 19.9024C33.2473 19.8711 33.4029 19.8711 33.5536 19.9024C34.3974 20.0762 34.7899 21.1699 34.7646 22.0078Z" fill="black"/>
<path d="M15.0944 24.1094C15.0165 24.2058 14.9258 24.2913 14.8249 24.3633C14.7139 24.4446 14.5865 24.5009 14.4516 24.5282C14.3168 24.5555 14.1775 24.5532 14.0436 24.5215H14.0202C13.9144 24.4945 13.8121 24.4551 13.7155 24.4043C12.9987 24.0313 12.3581 23.0156 12.3288 22.0137C12.3034 21.1758 12.696 20.082 13.5475 19.9121C14.0319 19.8145 14.4948 20.0488 14.86 20.416C15.1331 20.6949 15.3452 21.0275 15.4831 21.3926C15.8229 22.3184 15.612 23.4863 15.0944 24.1094Z" fill="#843F2C"/>
<path d="M33.0883 19.9082C33.0746 20.2168 33.0492 20.5215 33.0141 20.8301C32.8822 22.0214 32.6122 23.1934 32.2094 24.3223C31.309 26.8496 29.7973 29.0898 27.977 30.5547C27.8735 30.6367 27.7699 30.7187 27.6645 30.7949C27.1673 31.1637 26.6332 31.4798 26.0707 31.7383L26.0278 31.7539C25.9711 31.7812 25.9203 31.8008 25.8696 31.8223L25.8305 31.8359C25.7055 31.8867 25.5824 31.9336 25.4535 31.9766C25.4319 31.9869 25.4089 31.9942 25.3852 31.998C25.3831 31.9992 25.3807 31.9999 25.3783 31.9999C25.3759 31.9999 25.3736 31.9992 25.3715 31.998C24.7659 32.1993 24.1327 32.3047 23.4946 32.3105H23.3891H23.2641H23.1567H23.0375H22.9731C22.9418 32.3105 22.9125 32.3105 22.8832 32.3105C22.588 32.2818 22.2955 32.2302 22.0082 32.1562L21.8715 32.1191L21.8031 32.1016L21.6528 32.0586L21.5551 32.0234H21.5239L21.3832 31.9727L21.2543 31.9199L21.1508 31.8828L21.1117 31.8652C21.0824 31.8516 21.0531 31.8438 21.0278 31.8301L20.9379 31.793L20.8637 31.7578C20.8383 31.7441 20.809 31.7324 20.7778 31.7187L20.6332 31.6504L20.5121 31.5898L20.4106 31.5352C20.0723 31.3488 19.7462 31.1414 19.434 30.9141C19.3149 30.8281 19.1996 30.7383 19.0883 30.6484C18.474 30.1503 17.9148 29.5879 17.4203 28.9707C16.2538 27.5326 15.3608 25.8929 14.7856 24.1328C14.4281 23.0597 14.1878 21.951 14.0688 20.8262C14.0688 20.7539 14.0531 20.6758 14.0473 20.6035C14.0278 20.4082 14.0141 20.2129 14.0063 20.0176C13.9586 19.0309 14.0241 18.0421 14.2016 17.0703C14.3488 16.2301 14.5764 15.406 14.8813 14.6094C15.0102 14.2715 15.1547 13.9336 15.3129 13.5996C16.0827 11.9318 17.2071 10.452 18.6078 9.26367C18.6684 9.21094 18.727 9.16406 18.7875 9.11719C20.1248 8.0336 21.7872 7.4304 23.5082 7.4043C25.393 7.4043 27.0649 8.11914 28.4614 9.25977C29.2072 9.8732 29.8709 10.5802 30.436 11.3633C31.1096 12.2894 31.669 13.2934 32.102 14.3535C32.2055 14.6191 32.309 14.875 32.3989 15.1348C32.3989 15.1348 32.3989 15.1484 32.3989 15.1523C32.6126 15.7728 32.7785 16.4088 32.8949 17.0547C33.0644 17.9958 33.1293 18.9528 33.0883 19.9082Z" fill="#843F2C"/>
<path opacity="0.2" d="M34.1919 15.5527C33.9905 15.7674 33.7702 15.9635 33.5337 16.1387C33.5161 16.1563 33.4263 16.2168 33.311 16.2969C33.1157 16.4219 32.9204 16.5469 32.7368 16.666C31.9173 17.1635 31.0504 17.5783 30.1489 17.9043C28.2038 18.603 26.134 18.8874 24.0725 18.739C22.011 18.5907 20.0033 18.013 18.1782 17.043C17.7466 16.8066 17.3267 16.5508 16.9243 16.2754C16.7856 16.1816 16.6528 16.0801 16.52 15.9883C16.166 15.7309 15.8257 15.4551 15.5005 15.1621C15.3462 15.0254 15.1938 14.8848 15.0474 14.7383C15.5696 15.1278 16.1377 15.4518 16.7388 15.7031C17.9868 16.25 19.4731 16.6621 20.9165 17.0703C22.1648 17.4367 23.4575 17.6299 24.7583 17.6445C26.0706 17.6508 27.3759 17.4532 28.6274 17.0586C29.1969 16.8748 29.7503 16.6442 30.2817 16.3691C30.5337 16.2461 30.7876 16.1094 31.0474 15.9668C31.5166 15.7173 31.973 15.4442 32.4146 15.1484C32.9284 14.8047 33.4221 14.4317 33.8931 14.0312C34.0558 14.5239 34.1562 15.0351 34.1919 15.5527Z" fill="black"/>
<path d="M37.2252 9.83391C37.2135 10.912 36.1979 11.8984 35.903 12.1777C35.1432 12.8984 34.5182 13.4902 33.901 14.0116L33.8854 14.0253C33.4144 14.4258 32.9207 14.7988 32.4069 15.1425C31.9653 15.4382 31.509 15.7114 31.0397 15.9609C30.7799 16.1034 30.526 16.2402 30.2741 16.3632C29.7426 16.6382 29.1893 16.8688 28.6198 17.0527C27.3682 17.4472 26.0629 17.6449 24.7506 17.6386C23.4498 17.624 22.1571 17.4308 20.9088 17.0644C19.4655 16.662 17.9791 16.2499 16.7311 15.6972C16.13 15.4459 15.562 15.1218 15.0397 14.7323L14.8815 14.6093C14.2963 14.1553 13.8736 13.5244 13.6764 12.8105C13.2194 10.9843 14.5514 9.17375 14.7526 8.90422C15.383 8.09896 16.2133 7.47275 17.1608 7.08782C18.9635 6.3261 19.7995 6.9218 23.7194 7.08782C27.2018 7.23821 28.9459 7.31633 30.5905 6.67375C31.2545 6.41204 32.4967 5.83782 32.7194 6.14641C32.8952 6.39446 32.3854 7.12297 32.2663 7.29875C31.8151 7.94524 31.4381 8.12102 31.4987 8.27532C31.5983 8.52336 32.6862 8.40422 33.5944 8.1386C34.5534 7.85539 34.9225 7.52141 35.0924 7.68352C35.3248 7.90227 34.9772 8.83586 34.3952 9.46086C33.9752 9.91204 33.5846 10.0351 33.6276 10.1952C33.6842 10.3906 34.4342 10.4726 35.1276 10.2968C36.2252 10.0234 36.7819 9.22258 37.0905 9.42375C37.1705 9.46477 37.2311 9.57024 37.2252 9.83391Z" fill="#2D2D2D"/>
</svg>
